G04 (created by PCBNEW-RS274X (2012-apr-16-27)-stable) date Sun 18 May 2014 21:07:07 BST*
G01*
G70*
G90*
%MOIN*%
G04 Gerber Fmt 3.4, Leading zero omitted, Abs format*
%FSLAX34Y34*%
G04 APERTURE LIST*
%ADD10C,0.006000*%
%ADD11C,0.015000*%
%ADD12R,0.047600X0.059400*%
%ADD13R,0.035700X0.067200*%
%ADD14R,0.067200X0.043600*%
%ADD15R,0.067200X0.035700*%
%ADD16R,0.080000X0.080000*%
%ADD17C,0.080000*%
%ADD18R,0.045000X0.065000*%
%ADD19R,0.065000X0.045000*%
%ADD20C,0.098700*%
%ADD21R,0.153900X0.153900*%
%ADD22R,0.043600X0.035700*%
%ADD23R,0.031800X0.035700*%
%ADD24R,0.035700X0.031800*%
%ADD25R,0.075000X0.075000*%
%ADD26C,0.075000*%
%ADD27R,0.035700X0.043600*%
G04 APERTURE END LIST*
G54D10*
G54D11*
X82168Y-42655D02*
X81900Y-42655D01*
X83261Y-28521D02*
X83261Y-28569D01*
X81887Y-27447D02*
X82174Y-27447D01*
X83264Y-28544D02*
X83264Y-41565D01*
X81890Y-27448D02*
X65975Y-27448D01*
X81890Y-42655D02*
X65975Y-42655D01*
X64882Y-41562D02*
X64882Y-28551D01*
X65964Y-27447D02*
X65870Y-27452D01*
X65776Y-27464D01*
X65684Y-27484D01*
X65594Y-27513D01*
X65507Y-27549D01*
X65423Y-27593D01*
X65343Y-27643D01*
X65268Y-27701D01*
X65199Y-27765D01*
X65135Y-27834D01*
X65077Y-27909D01*
X65027Y-27989D01*
X64983Y-28073D01*
X64947Y-28160D01*
X64918Y-28250D01*
X64898Y-28342D01*
X64886Y-28436D01*
X64881Y-28530D01*
X83262Y-28531D02*
X83257Y-28437D01*
X83245Y-28343D01*
X83225Y-28251D01*
X83196Y-28161D01*
X83160Y-28074D01*
X83116Y-27990D01*
X83066Y-27910D01*
X83008Y-27835D01*
X82944Y-27766D01*
X82875Y-27702D01*
X82800Y-27644D01*
X82720Y-27594D01*
X82636Y-27550D01*
X82549Y-27514D01*
X82459Y-27485D01*
X82367Y-27465D01*
X82273Y-27453D01*
X82179Y-27448D01*
X82181Y-42655D02*
X82275Y-42650D01*
X82369Y-42638D01*
X82461Y-42618D01*
X82551Y-42589D01*
X82638Y-42553D01*
X82722Y-42509D01*
X82802Y-42459D01*
X82877Y-42401D01*
X82946Y-42337D01*
X83010Y-42268D01*
X83068Y-42193D01*
X83118Y-42113D01*
X83162Y-42029D01*
X83198Y-41942D01*
X83227Y-41852D01*
X83247Y-41760D01*
X83259Y-41666D01*
X83264Y-41572D01*
X64882Y-41572D02*
X64887Y-41666D01*
X64899Y-41760D01*
X64919Y-41852D01*
X64948Y-41942D01*
X64984Y-42029D01*
X65028Y-42113D01*
X65078Y-42193D01*
X65136Y-42268D01*
X65200Y-42337D01*
X65269Y-42401D01*
X65344Y-42459D01*
X65424Y-42509D01*
X65508Y-42553D01*
X65595Y-42589D01*
X65685Y-42618D01*
X65777Y-42638D01*
X65871Y-42650D01*
X65965Y-42655D01*
G54D12*
X67106Y-38925D03*
X66731Y-37925D03*
X67481Y-37925D03*
X66654Y-29598D03*
X67029Y-30598D03*
X66279Y-30598D03*
G54D13*
X77676Y-36319D03*
X77932Y-36319D03*
X78188Y-36319D03*
X78443Y-36319D03*
X78700Y-36319D03*
X78956Y-36319D03*
X79212Y-36319D03*
X79212Y-33917D03*
X78956Y-33917D03*
X78700Y-33917D03*
X78444Y-33917D03*
X78188Y-33917D03*
X77932Y-33917D03*
X77676Y-33917D03*
G54D14*
X72362Y-29075D03*
X72362Y-29567D03*
X72362Y-30079D03*
X72362Y-30571D03*
X74646Y-30571D03*
X74646Y-30079D03*
X74646Y-29567D03*
X74646Y-29055D03*
G54D15*
X73385Y-34448D03*
X73385Y-33956D03*
X73385Y-33444D03*
X73385Y-32952D03*
X71259Y-32952D03*
X71259Y-33444D03*
X71259Y-33956D03*
X71259Y-34448D03*
G54D16*
X79912Y-28260D03*
G54D17*
X80912Y-28260D03*
G54D16*
X65932Y-28260D03*
G54D17*
X66932Y-28260D03*
G54D18*
X67476Y-37185D03*
X68076Y-37185D03*
X72654Y-35432D03*
X72054Y-35432D03*
G54D19*
X74409Y-34453D03*
X74409Y-33853D03*
G54D18*
X78991Y-38760D03*
X79591Y-38760D03*
X73765Y-28346D03*
X73165Y-28346D03*
G54D19*
X75453Y-29602D03*
X75453Y-30202D03*
X70827Y-36117D03*
X70827Y-36717D03*
X70827Y-37574D03*
X70827Y-38174D03*
G54D18*
X72054Y-36132D03*
X72654Y-36132D03*
G54D19*
X73642Y-35546D03*
X73642Y-36146D03*
X79625Y-37800D03*
X79625Y-37200D03*
X74409Y-33391D03*
X74409Y-32791D03*
X78976Y-37180D03*
X78976Y-37780D03*
G54D20*
X71437Y-30453D03*
X69094Y-35709D03*
X77303Y-38229D03*
G54D16*
X73122Y-41060D03*
G54D17*
X74122Y-41060D03*
X75122Y-41060D03*
G54D16*
X65932Y-41840D03*
G54D17*
X66932Y-41840D03*
G54D16*
X80892Y-41850D03*
G54D17*
X81892Y-41850D03*
G54D21*
X81312Y-34920D03*
X66812Y-34920D03*
G54D22*
X71772Y-29547D03*
X71772Y-29193D03*
G54D23*
X66280Y-31457D03*
X66516Y-31457D03*
G54D24*
X68209Y-37933D03*
X68209Y-38169D03*
G54D25*
X72972Y-37551D03*
G54D26*
X72972Y-38551D03*
G54D24*
X69094Y-37933D03*
X69094Y-38169D03*
G54D22*
X74469Y-35630D03*
X74469Y-35984D03*
X75335Y-33701D03*
X75335Y-33347D03*
G54D27*
X67717Y-30610D03*
X68071Y-30610D03*
X67106Y-39705D03*
X67460Y-39705D03*
X66280Y-32185D03*
X66634Y-32185D03*
X68740Y-37185D03*
X69094Y-37185D03*
G54D22*
X69980Y-37579D03*
X69980Y-37933D03*
X75335Y-34468D03*
X75335Y-34114D03*
X80079Y-35945D03*
X80079Y-36299D03*
M02*
