G04 (created by PCBNEW-RS274X (2012-apr-16-27)-stable) date Sun 18 May 2014 11:24:35 BST*
G01*
G70*
G90*
%MOIN*%
G04 Gerber Fmt 3.4, Leading zero omitted, Abs format*
%FSLAX34Y34*%
G04 APERTURE LIST*
%ADD10C,0.006000*%
%ADD11C,0.015000*%
%ADD12C,0.007900*%
%ADD13R,0.060000X0.060000*%
%ADD14C,0.060000*%
%ADD15C,0.078700*%
%ADD16R,0.133900X0.133900*%
%ADD17C,0.035000*%
%ADD18C,0.010000*%
G04 APERTURE END LIST*
G54D10*
G54D11*
X43720Y-27490D02*
X43720Y-42710D01*
X62630Y-27490D02*
X43720Y-27490D01*
X62630Y-42710D02*
X62630Y-27490D01*
X43730Y-42710D02*
X62630Y-42710D01*
G54D12*
X47347Y-42124D02*
X47347Y-41324D01*
X46861Y-41705D02*
X47061Y-41705D01*
X47061Y-42124D02*
X47061Y-41324D01*
X46775Y-41324D01*
X58127Y-41342D02*
X58184Y-41304D01*
X58270Y-41304D01*
X58355Y-41342D01*
X58413Y-41418D01*
X58441Y-41494D01*
X58470Y-41647D01*
X58470Y-41761D01*
X58441Y-41913D01*
X58413Y-41990D01*
X58355Y-42066D01*
X58270Y-42104D01*
X58213Y-42104D01*
X58127Y-42066D01*
X58098Y-42028D01*
X58098Y-41761D01*
X58213Y-41761D01*
X57841Y-42104D02*
X57841Y-41304D01*
X57498Y-42104D01*
X57498Y-41304D01*
X57212Y-42104D02*
X57212Y-41304D01*
X57069Y-41304D01*
X56984Y-41342D01*
X56926Y-41418D01*
X56898Y-41494D01*
X56869Y-41647D01*
X56869Y-41761D01*
X56898Y-41913D01*
X56926Y-41990D01*
X56984Y-42066D01*
X57069Y-42104D01*
X57212Y-42104D01*
X56827Y-28132D02*
X56884Y-28094D01*
X56970Y-28094D01*
X57055Y-28132D01*
X57113Y-28208D01*
X57141Y-28284D01*
X57170Y-28437D01*
X57170Y-28551D01*
X57141Y-28703D01*
X57113Y-28780D01*
X57055Y-28856D01*
X56970Y-28894D01*
X56913Y-28894D01*
X56827Y-28856D01*
X56798Y-28818D01*
X56798Y-28551D01*
X56913Y-28551D01*
X56541Y-28894D02*
X56541Y-28094D01*
X56198Y-28894D01*
X56198Y-28094D01*
X55912Y-28894D02*
X55912Y-28094D01*
X55769Y-28094D01*
X55684Y-28132D01*
X55626Y-28208D01*
X55598Y-28284D01*
X55569Y-28437D01*
X55569Y-28551D01*
X55598Y-28703D01*
X55626Y-28780D01*
X55684Y-28856D01*
X55769Y-28894D01*
X55912Y-28894D01*
X48851Y-28589D02*
X48394Y-28589D01*
X48623Y-28894D02*
X48623Y-28284D01*
X47822Y-28094D02*
X48108Y-28094D01*
X48137Y-28475D01*
X48108Y-28437D01*
X48051Y-28399D01*
X47908Y-28399D01*
X47851Y-28437D01*
X47822Y-28475D01*
X47794Y-28551D01*
X47794Y-28741D01*
X47822Y-28818D01*
X47851Y-28856D01*
X47908Y-28894D01*
X48051Y-28894D01*
X48108Y-28856D01*
X48137Y-28818D01*
X47623Y-28094D02*
X47423Y-28894D01*
X47223Y-28094D01*
G54D13*
X58770Y-28300D03*
G54D14*
X59770Y-28300D03*
G54D13*
X44790Y-28300D03*
G54D14*
X45790Y-28300D03*
G54D15*
X45490Y-30440D03*
X52240Y-39380D03*
X55590Y-32470D03*
G54D13*
X51980Y-41100D03*
G54D14*
X52980Y-41100D03*
X53980Y-41100D03*
G54D13*
X44790Y-41880D03*
G54D14*
X45790Y-41880D03*
G54D13*
X59750Y-41890D03*
G54D14*
X60750Y-41890D03*
G54D16*
X60170Y-34960D03*
X45670Y-34960D03*
G54D17*
X48744Y-40897D03*
X50331Y-29957D03*
X47910Y-36352D03*
X50753Y-35500D03*
X57215Y-34404D03*
X49848Y-31533D03*
X60439Y-32127D03*
X57567Y-36226D03*
G54D10*
G36*
X62305Y-42370D02*
X61493Y-42370D01*
X61340Y-42370D01*
X61425Y-42286D01*
X61350Y-42211D01*
X61426Y-42200D01*
X61493Y-41918D01*
X61447Y-41631D01*
X61426Y-41580D01*
X61289Y-41559D01*
X61088Y-41760D01*
X61088Y-35679D01*
X61088Y-35580D01*
X61088Y-34242D01*
X61050Y-34150D01*
X60980Y-34080D01*
X60889Y-34042D01*
X60790Y-34042D01*
X60513Y-34042D01*
X59452Y-34042D01*
X59360Y-34080D01*
X59290Y-34150D01*
X59252Y-34241D01*
X59252Y-34340D01*
X59252Y-35678D01*
X59290Y-35770D01*
X59360Y-35840D01*
X59451Y-35878D01*
X59550Y-35878D01*
X60888Y-35878D01*
X60980Y-35840D01*
X61050Y-35770D01*
X61088Y-35679D01*
X61088Y-41760D01*
X60993Y-41855D01*
X60958Y-41890D01*
X60750Y-42098D01*
X60542Y-41890D01*
X60750Y-41682D01*
X60785Y-41647D01*
X61081Y-41351D01*
X61060Y-41214D01*
X60778Y-41147D01*
X60491Y-41193D01*
X60440Y-41214D01*
X60428Y-41289D01*
X60354Y-41215D01*
X60327Y-41241D01*
X60301Y-41214D01*
X60138Y-41147D01*
X60008Y-41146D01*
X59897Y-41257D01*
X59897Y-41693D01*
X59897Y-41743D01*
X59897Y-42037D01*
X59603Y-42037D01*
X59603Y-41743D01*
X59603Y-41257D01*
X59492Y-41146D01*
X59362Y-41147D01*
X59199Y-41214D01*
X59075Y-41339D01*
X59007Y-41502D01*
X59007Y-41633D01*
X59117Y-41743D01*
X59603Y-41743D01*
X59603Y-42037D01*
X59553Y-42037D01*
X59117Y-42037D01*
X59007Y-42147D01*
X59007Y-42278D01*
X59046Y-42373D01*
X58874Y-42373D01*
X58874Y-40853D01*
X58623Y-40853D01*
X58623Y-28933D01*
X58623Y-28447D01*
X58137Y-28447D01*
X58027Y-28557D01*
X58027Y-28688D01*
X58095Y-28851D01*
X58219Y-28976D01*
X58382Y-29043D01*
X58512Y-29044D01*
X58623Y-28933D01*
X58623Y-40853D01*
X56467Y-40853D01*
X56467Y-42376D01*
X56233Y-42376D01*
X56233Y-32599D01*
X56233Y-32343D01*
X56135Y-32107D01*
X55955Y-31926D01*
X55719Y-31827D01*
X55463Y-31827D01*
X55227Y-31925D01*
X55046Y-32105D01*
X54947Y-32341D01*
X54947Y-32597D01*
X55045Y-32833D01*
X55225Y-33014D01*
X55461Y-33113D01*
X55717Y-33113D01*
X55953Y-33015D01*
X56134Y-32835D01*
X56233Y-32599D01*
X56233Y-42376D01*
X54723Y-42377D01*
X54723Y-41128D01*
X54677Y-40841D01*
X54656Y-40790D01*
X54519Y-40769D01*
X54311Y-40977D01*
X54311Y-40561D01*
X54290Y-40424D01*
X54008Y-40357D01*
X53721Y-40403D01*
X53670Y-40424D01*
X53649Y-40561D01*
X53980Y-40892D01*
X54311Y-40561D01*
X54311Y-40977D01*
X54188Y-41100D01*
X54519Y-41431D01*
X54656Y-41410D01*
X54723Y-41128D01*
X54723Y-42377D01*
X54311Y-42378D01*
X54311Y-41639D01*
X53980Y-41308D01*
X53772Y-41516D01*
X53772Y-41100D01*
X53441Y-40769D01*
X53427Y-40771D01*
X53291Y-40635D01*
X53089Y-40551D01*
X52883Y-40551D01*
X52883Y-39509D01*
X52883Y-39253D01*
X52785Y-39017D01*
X52605Y-38836D01*
X52369Y-38737D01*
X52113Y-38737D01*
X51877Y-38835D01*
X51696Y-39015D01*
X51597Y-39251D01*
X51597Y-39507D01*
X51695Y-39743D01*
X51875Y-39924D01*
X52111Y-40023D01*
X52367Y-40023D01*
X52603Y-39925D01*
X52784Y-39745D01*
X52883Y-39509D01*
X52883Y-40551D01*
X52871Y-40551D01*
X52669Y-40635D01*
X52529Y-40775D01*
X52529Y-40751D01*
X52491Y-40659D01*
X52421Y-40589D01*
X52330Y-40551D01*
X52231Y-40551D01*
X51631Y-40551D01*
X51539Y-40589D01*
X51469Y-40659D01*
X51431Y-40750D01*
X51431Y-40849D01*
X51431Y-41449D01*
X51469Y-41541D01*
X51539Y-41611D01*
X51630Y-41649D01*
X51729Y-41649D01*
X52329Y-41649D01*
X52421Y-41611D01*
X52491Y-41541D01*
X52529Y-41450D01*
X52529Y-41425D01*
X52669Y-41565D01*
X52871Y-41649D01*
X53089Y-41649D01*
X53291Y-41565D01*
X53427Y-41428D01*
X53441Y-41431D01*
X53772Y-41100D01*
X53772Y-41516D01*
X53649Y-41639D01*
X53670Y-41776D01*
X53952Y-41843D01*
X54239Y-41797D01*
X54290Y-41776D01*
X54311Y-41639D01*
X54311Y-42378D01*
X48612Y-42385D01*
X47779Y-42385D01*
X47779Y-40873D01*
X46588Y-40873D01*
X46588Y-35679D01*
X46588Y-35580D01*
X46588Y-34242D01*
X46550Y-34150D01*
X46480Y-34080D01*
X46389Y-34042D01*
X46290Y-34042D01*
X46133Y-34042D01*
X46133Y-30569D01*
X46133Y-30313D01*
X46035Y-30077D01*
X45855Y-29896D01*
X45619Y-29797D01*
X45363Y-29797D01*
X45127Y-29895D01*
X44946Y-30075D01*
X44847Y-30311D01*
X44847Y-30567D01*
X44945Y-30803D01*
X45125Y-30984D01*
X45361Y-31083D01*
X45617Y-31083D01*
X45853Y-30985D01*
X46034Y-30805D01*
X46133Y-30569D01*
X46133Y-34042D01*
X44952Y-34042D01*
X44860Y-34080D01*
X44790Y-34150D01*
X44752Y-34241D01*
X44752Y-34340D01*
X44752Y-35678D01*
X44790Y-35770D01*
X44860Y-35840D01*
X44951Y-35878D01*
X45050Y-35878D01*
X46388Y-35878D01*
X46480Y-35840D01*
X46550Y-35770D01*
X46588Y-35679D01*
X46588Y-40873D01*
X46401Y-40873D01*
X46401Y-42385D01*
X46004Y-42385D01*
X46101Y-42345D01*
X46255Y-42191D01*
X46339Y-41989D01*
X46339Y-41771D01*
X46255Y-41569D01*
X46101Y-41415D01*
X45899Y-41331D01*
X45681Y-41331D01*
X45479Y-41415D01*
X45339Y-41555D01*
X45339Y-41531D01*
X45301Y-41439D01*
X45231Y-41369D01*
X45140Y-41331D01*
X45041Y-41331D01*
X44441Y-41331D01*
X44349Y-41369D01*
X44279Y-41439D01*
X44241Y-41530D01*
X44241Y-41629D01*
X44241Y-42229D01*
X44279Y-42321D01*
X44343Y-42385D01*
X44045Y-42385D01*
X44045Y-27815D01*
X44323Y-27815D01*
X44279Y-27859D01*
X44241Y-27950D01*
X44241Y-28049D01*
X44241Y-28649D01*
X44279Y-28741D01*
X44349Y-28811D01*
X44440Y-28849D01*
X44539Y-28849D01*
X45139Y-28849D01*
X45231Y-28811D01*
X45301Y-28741D01*
X45339Y-28650D01*
X45339Y-28625D01*
X45479Y-28765D01*
X45681Y-28849D01*
X45899Y-28849D01*
X46101Y-28765D01*
X46255Y-28611D01*
X46339Y-28409D01*
X46339Y-28191D01*
X46255Y-27989D01*
X46101Y-27835D01*
X46052Y-27815D01*
X46877Y-27815D01*
X46877Y-29420D01*
X49283Y-29420D01*
X49283Y-27815D01*
X55167Y-27815D01*
X55167Y-29420D01*
X57574Y-29420D01*
X57574Y-27815D01*
X58067Y-27815D01*
X58027Y-27912D01*
X58027Y-28043D01*
X58137Y-28153D01*
X58573Y-28153D01*
X58623Y-28153D01*
X58917Y-28153D01*
X58917Y-28447D01*
X58917Y-28497D01*
X58917Y-28933D01*
X59028Y-29044D01*
X59158Y-29043D01*
X59321Y-28976D01*
X59347Y-28948D01*
X59374Y-28975D01*
X59448Y-28900D01*
X59460Y-28976D01*
X59742Y-29043D01*
X60029Y-28997D01*
X60080Y-28976D01*
X60101Y-28839D01*
X59805Y-28543D01*
X59770Y-28508D01*
X59562Y-28300D01*
X59770Y-28092D01*
X59978Y-28300D01*
X60013Y-28335D01*
X60309Y-28631D01*
X60446Y-28610D01*
X60513Y-28328D01*
X60467Y-28041D01*
X60446Y-27990D01*
X60370Y-27978D01*
X60445Y-27904D01*
X60356Y-27815D01*
X62305Y-27815D01*
X62305Y-42370D01*
X62305Y-42370D01*
G37*
G54D18*
X62305Y-42370D02*
X61493Y-42370D01*
X61340Y-42370D01*
X61425Y-42286D01*
X61350Y-42211D01*
X61426Y-42200D01*
X61493Y-41918D01*
X61447Y-41631D01*
X61426Y-41580D01*
X61289Y-41559D01*
X61088Y-41760D01*
X61088Y-35679D01*
X61088Y-35580D01*
X61088Y-34242D01*
X61050Y-34150D01*
X60980Y-34080D01*
X60889Y-34042D01*
X60790Y-34042D01*
X60513Y-34042D01*
X59452Y-34042D01*
X59360Y-34080D01*
X59290Y-34150D01*
X59252Y-34241D01*
X59252Y-34340D01*
X59252Y-35678D01*
X59290Y-35770D01*
X59360Y-35840D01*
X59451Y-35878D01*
X59550Y-35878D01*
X60888Y-35878D01*
X60980Y-35840D01*
X61050Y-35770D01*
X61088Y-35679D01*
X61088Y-41760D01*
X60993Y-41855D01*
X60958Y-41890D01*
X60750Y-42098D01*
X60542Y-41890D01*
X60750Y-41682D01*
X60785Y-41647D01*
X61081Y-41351D01*
X61060Y-41214D01*
X60778Y-41147D01*
X60491Y-41193D01*
X60440Y-41214D01*
X60428Y-41289D01*
X60354Y-41215D01*
X60327Y-41241D01*
X60301Y-41214D01*
X60138Y-41147D01*
X60008Y-41146D01*
X59897Y-41257D01*
X59897Y-41693D01*
X59897Y-41743D01*
X59897Y-42037D01*
X59603Y-42037D01*
X59603Y-41743D01*
X59603Y-41257D01*
X59492Y-41146D01*
X59362Y-41147D01*
X59199Y-41214D01*
X59075Y-41339D01*
X59007Y-41502D01*
X59007Y-41633D01*
X59117Y-41743D01*
X59603Y-41743D01*
X59603Y-42037D01*
X59553Y-42037D01*
X59117Y-42037D01*
X59007Y-42147D01*
X59007Y-42278D01*
X59046Y-42373D01*
X58874Y-42373D01*
X58874Y-40853D01*
X58623Y-40853D01*
X58623Y-28933D01*
X58623Y-28447D01*
X58137Y-28447D01*
X58027Y-28557D01*
X58027Y-28688D01*
X58095Y-28851D01*
X58219Y-28976D01*
X58382Y-29043D01*
X58512Y-29044D01*
X58623Y-28933D01*
X58623Y-40853D01*
X56467Y-40853D01*
X56467Y-42376D01*
X56233Y-42376D01*
X56233Y-32599D01*
X56233Y-32343D01*
X56135Y-32107D01*
X55955Y-31926D01*
X55719Y-31827D01*
X55463Y-31827D01*
X55227Y-31925D01*
X55046Y-32105D01*
X54947Y-32341D01*
X54947Y-32597D01*
X55045Y-32833D01*
X55225Y-33014D01*
X55461Y-33113D01*
X55717Y-33113D01*
X55953Y-33015D01*
X56134Y-32835D01*
X56233Y-32599D01*
X56233Y-42376D01*
X54723Y-42377D01*
X54723Y-41128D01*
X54677Y-40841D01*
X54656Y-40790D01*
X54519Y-40769D01*
X54311Y-40977D01*
X54311Y-40561D01*
X54290Y-40424D01*
X54008Y-40357D01*
X53721Y-40403D01*
X53670Y-40424D01*
X53649Y-40561D01*
X53980Y-40892D01*
X54311Y-40561D01*
X54311Y-40977D01*
X54188Y-41100D01*
X54519Y-41431D01*
X54656Y-41410D01*
X54723Y-41128D01*
X54723Y-42377D01*
X54311Y-42378D01*
X54311Y-41639D01*
X53980Y-41308D01*
X53772Y-41516D01*
X53772Y-41100D01*
X53441Y-40769D01*
X53427Y-40771D01*
X53291Y-40635D01*
X53089Y-40551D01*
X52883Y-40551D01*
X52883Y-39509D01*
X52883Y-39253D01*
X52785Y-39017D01*
X52605Y-38836D01*
X52369Y-38737D01*
X52113Y-38737D01*
X51877Y-38835D01*
X51696Y-39015D01*
X51597Y-39251D01*
X51597Y-39507D01*
X51695Y-39743D01*
X51875Y-39924D01*
X52111Y-40023D01*
X52367Y-40023D01*
X52603Y-39925D01*
X52784Y-39745D01*
X52883Y-39509D01*
X52883Y-40551D01*
X52871Y-40551D01*
X52669Y-40635D01*
X52529Y-40775D01*
X52529Y-40751D01*
X52491Y-40659D01*
X52421Y-40589D01*
X52330Y-40551D01*
X52231Y-40551D01*
X51631Y-40551D01*
X51539Y-40589D01*
X51469Y-40659D01*
X51431Y-40750D01*
X51431Y-40849D01*
X51431Y-41449D01*
X51469Y-41541D01*
X51539Y-41611D01*
X51630Y-41649D01*
X51729Y-41649D01*
X52329Y-41649D01*
X52421Y-41611D01*
X52491Y-41541D01*
X52529Y-41450D01*
X52529Y-41425D01*
X52669Y-41565D01*
X52871Y-41649D01*
X53089Y-41649D01*
X53291Y-41565D01*
X53427Y-41428D01*
X53441Y-41431D01*
X53772Y-41100D01*
X53772Y-41516D01*
X53649Y-41639D01*
X53670Y-41776D01*
X53952Y-41843D01*
X54239Y-41797D01*
X54290Y-41776D01*
X54311Y-41639D01*
X54311Y-42378D01*
X48612Y-42385D01*
X47779Y-42385D01*
X47779Y-40873D01*
X46588Y-40873D01*
X46588Y-35679D01*
X46588Y-35580D01*
X46588Y-34242D01*
X46550Y-34150D01*
X46480Y-34080D01*
X46389Y-34042D01*
X46290Y-34042D01*
X46133Y-34042D01*
X46133Y-30569D01*
X46133Y-30313D01*
X46035Y-30077D01*
X45855Y-29896D01*
X45619Y-29797D01*
X45363Y-29797D01*
X45127Y-29895D01*
X44946Y-30075D01*
X44847Y-30311D01*
X44847Y-30567D01*
X44945Y-30803D01*
X45125Y-30984D01*
X45361Y-31083D01*
X45617Y-31083D01*
X45853Y-30985D01*
X46034Y-30805D01*
X46133Y-30569D01*
X46133Y-34042D01*
X44952Y-34042D01*
X44860Y-34080D01*
X44790Y-34150D01*
X44752Y-34241D01*
X44752Y-34340D01*
X44752Y-35678D01*
X44790Y-35770D01*
X44860Y-35840D01*
X44951Y-35878D01*
X45050Y-35878D01*
X46388Y-35878D01*
X46480Y-35840D01*
X46550Y-35770D01*
X46588Y-35679D01*
X46588Y-40873D01*
X46401Y-40873D01*
X46401Y-42385D01*
X46004Y-42385D01*
X46101Y-42345D01*
X46255Y-42191D01*
X46339Y-41989D01*
X46339Y-41771D01*
X46255Y-41569D01*
X46101Y-41415D01*
X45899Y-41331D01*
X45681Y-41331D01*
X45479Y-41415D01*
X45339Y-41555D01*
X45339Y-41531D01*
X45301Y-41439D01*
X45231Y-41369D01*
X45140Y-41331D01*
X45041Y-41331D01*
X44441Y-41331D01*
X44349Y-41369D01*
X44279Y-41439D01*
X44241Y-41530D01*
X44241Y-41629D01*
X44241Y-42229D01*
X44279Y-42321D01*
X44343Y-42385D01*
X44045Y-42385D01*
X44045Y-27815D01*
X44323Y-27815D01*
X44279Y-27859D01*
X44241Y-27950D01*
X44241Y-28049D01*
X44241Y-28649D01*
X44279Y-28741D01*
X44349Y-28811D01*
X44440Y-28849D01*
X44539Y-28849D01*
X45139Y-28849D01*
X45231Y-28811D01*
X45301Y-28741D01*
X45339Y-28650D01*
X45339Y-28625D01*
X45479Y-28765D01*
X45681Y-28849D01*
X45899Y-28849D01*
X46101Y-28765D01*
X46255Y-28611D01*
X46339Y-28409D01*
X46339Y-28191D01*
X46255Y-27989D01*
X46101Y-27835D01*
X46052Y-27815D01*
X46877Y-27815D01*
X46877Y-29420D01*
X49283Y-29420D01*
X49283Y-27815D01*
X55167Y-27815D01*
X55167Y-29420D01*
X57574Y-29420D01*
X57574Y-27815D01*
X58067Y-27815D01*
X58027Y-27912D01*
X58027Y-28043D01*
X58137Y-28153D01*
X58573Y-28153D01*
X58623Y-28153D01*
X58917Y-28153D01*
X58917Y-28447D01*
X58917Y-28497D01*
X58917Y-28933D01*
X59028Y-29044D01*
X59158Y-29043D01*
X59321Y-28976D01*
X59347Y-28948D01*
X59374Y-28975D01*
X59448Y-28900D01*
X59460Y-28976D01*
X59742Y-29043D01*
X60029Y-28997D01*
X60080Y-28976D01*
X60101Y-28839D01*
X59805Y-28543D01*
X59770Y-28508D01*
X59562Y-28300D01*
X59770Y-28092D01*
X59978Y-28300D01*
X60013Y-28335D01*
X60309Y-28631D01*
X60446Y-28610D01*
X60513Y-28328D01*
X60467Y-28041D01*
X60446Y-27990D01*
X60370Y-27978D01*
X60445Y-27904D01*
X60356Y-27815D01*
X62305Y-27815D01*
X62305Y-42370D01*
M02*
