G04 (created by PCBNEW-RS274X (2012-apr-16-27)-stable) date Sun 18 May 2014 21:07:07 BST*
G01*
G70*
G90*
%MOIN*%
G04 Gerber Fmt 3.4, Leading zero omitted, Abs format*
%FSLAX34Y34*%
G04 APERTURE LIST*
%ADD10C,0.006000*%
%ADD11C,0.015000*%
%ADD12C,0.007900*%
%ADD13R,0.060000X0.060000*%
%ADD14C,0.060000*%
%ADD15C,0.078700*%
%ADD16R,0.133900X0.133900*%
%ADD17R,0.055000X0.055000*%
%ADD18C,0.055000*%
%ADD19C,0.035000*%
%ADD20C,0.009800*%
%ADD21C,0.010000*%
G04 APERTURE END LIST*
G54D10*
G54D11*
X82168Y-42655D02*
X81900Y-42655D01*
X83261Y-28521D02*
X83261Y-28569D01*
X81887Y-27447D02*
X82174Y-27447D01*
X83264Y-28544D02*
X83264Y-41565D01*
X81890Y-27448D02*
X65975Y-27448D01*
X81890Y-42655D02*
X65975Y-42655D01*
X64882Y-41562D02*
X64882Y-28551D01*
X65964Y-27447D02*
X65870Y-27452D01*
X65776Y-27464D01*
X65684Y-27484D01*
X65594Y-27513D01*
X65507Y-27549D01*
X65423Y-27593D01*
X65343Y-27643D01*
X65268Y-27701D01*
X65199Y-27765D01*
X65135Y-27834D01*
X65077Y-27909D01*
X65027Y-27989D01*
X64983Y-28073D01*
X64947Y-28160D01*
X64918Y-28250D01*
X64898Y-28342D01*
X64886Y-28436D01*
X64881Y-28530D01*
X83262Y-28531D02*
X83257Y-28437D01*
X83245Y-28343D01*
X83225Y-28251D01*
X83196Y-28161D01*
X83160Y-28074D01*
X83116Y-27990D01*
X83066Y-27910D01*
X83008Y-27835D01*
X82944Y-27766D01*
X82875Y-27702D01*
X82800Y-27644D01*
X82720Y-27594D01*
X82636Y-27550D01*
X82549Y-27514D01*
X82459Y-27485D01*
X82367Y-27465D01*
X82273Y-27453D01*
X82179Y-27448D01*
X82181Y-42655D02*
X82275Y-42650D01*
X82369Y-42638D01*
X82461Y-42618D01*
X82551Y-42589D01*
X82638Y-42553D01*
X82722Y-42509D01*
X82802Y-42459D01*
X82877Y-42401D01*
X82946Y-42337D01*
X83010Y-42268D01*
X83068Y-42193D01*
X83118Y-42113D01*
X83162Y-42029D01*
X83198Y-41942D01*
X83227Y-41852D01*
X83247Y-41760D01*
X83259Y-41666D01*
X83264Y-41572D01*
X64882Y-41572D02*
X64887Y-41666D01*
X64899Y-41760D01*
X64919Y-41852D01*
X64948Y-41942D01*
X64984Y-42029D01*
X65028Y-42113D01*
X65078Y-42193D01*
X65136Y-42268D01*
X65200Y-42337D01*
X65269Y-42401D01*
X65344Y-42459D01*
X65424Y-42509D01*
X65508Y-42553D01*
X65595Y-42589D01*
X65685Y-42618D01*
X65777Y-42638D01*
X65871Y-42650D01*
X65965Y-42655D01*
G54D12*
X68489Y-42084D02*
X68489Y-41284D01*
X68003Y-41665D02*
X68203Y-41665D01*
X68203Y-42084D02*
X68203Y-41284D01*
X67917Y-41284D01*
X79269Y-41302D02*
X79326Y-41264D01*
X79412Y-41264D01*
X79497Y-41302D01*
X79555Y-41378D01*
X79583Y-41454D01*
X79612Y-41607D01*
X79612Y-41721D01*
X79583Y-41873D01*
X79555Y-41950D01*
X79497Y-42026D01*
X79412Y-42064D01*
X79355Y-42064D01*
X79269Y-42026D01*
X79240Y-41988D01*
X79240Y-41721D01*
X79355Y-41721D01*
X78983Y-42064D02*
X78983Y-41264D01*
X78640Y-42064D01*
X78640Y-41264D01*
X78354Y-42064D02*
X78354Y-41264D01*
X78211Y-41264D01*
X78126Y-41302D01*
X78068Y-41378D01*
X78040Y-41454D01*
X78011Y-41607D01*
X78011Y-41721D01*
X78040Y-41873D01*
X78068Y-41950D01*
X78126Y-42026D01*
X78211Y-42064D01*
X78354Y-42064D01*
X77969Y-28092D02*
X78026Y-28054D01*
X78112Y-28054D01*
X78197Y-28092D01*
X78255Y-28168D01*
X78283Y-28244D01*
X78312Y-28397D01*
X78312Y-28511D01*
X78283Y-28663D01*
X78255Y-28740D01*
X78197Y-28816D01*
X78112Y-28854D01*
X78055Y-28854D01*
X77969Y-28816D01*
X77940Y-28778D01*
X77940Y-28511D01*
X78055Y-28511D01*
X77683Y-28854D02*
X77683Y-28054D01*
X77340Y-28854D01*
X77340Y-28054D01*
X77054Y-28854D02*
X77054Y-28054D01*
X76911Y-28054D01*
X76826Y-28092D01*
X76768Y-28168D01*
X76740Y-28244D01*
X76711Y-28397D01*
X76711Y-28511D01*
X76740Y-28663D01*
X76768Y-28740D01*
X76826Y-28816D01*
X76911Y-28854D01*
X77054Y-28854D01*
X69993Y-28549D02*
X69536Y-28549D01*
X69765Y-28854D02*
X69765Y-28244D01*
X68964Y-28054D02*
X69250Y-28054D01*
X69279Y-28435D01*
X69250Y-28397D01*
X69193Y-28359D01*
X69050Y-28359D01*
X68993Y-28397D01*
X68964Y-28435D01*
X68936Y-28511D01*
X68936Y-28701D01*
X68964Y-28778D01*
X68993Y-28816D01*
X69050Y-28854D01*
X69193Y-28854D01*
X69250Y-28816D01*
X69279Y-28778D01*
X68765Y-28054D02*
X68565Y-28854D01*
X68365Y-28054D01*
G54D13*
X79912Y-28260D03*
G54D14*
X80912Y-28260D03*
G54D13*
X65932Y-28260D03*
G54D14*
X66932Y-28260D03*
G54D15*
X71437Y-30453D03*
X69094Y-35709D03*
X77303Y-38229D03*
G54D13*
X73122Y-41060D03*
G54D14*
X74122Y-41060D03*
X75122Y-41060D03*
G54D13*
X65932Y-41840D03*
G54D14*
X66932Y-41840D03*
G54D13*
X80892Y-41850D03*
G54D14*
X81892Y-41850D03*
G54D16*
X81312Y-34920D03*
X66812Y-34920D03*
G54D17*
X72972Y-37551D03*
G54D18*
X72972Y-38551D03*
G54D19*
X75298Y-35604D03*
X71403Y-35521D03*
X72506Y-33492D03*
G54D20*
X77303Y-37609D02*
X77303Y-38229D01*
X75298Y-35604D02*
X77303Y-37609D01*
X71403Y-36982D02*
X71403Y-35521D01*
X75122Y-40701D02*
X72972Y-38551D01*
X75122Y-41060D02*
X75122Y-40701D01*
X72972Y-38551D02*
X71403Y-36982D01*
X71311Y-33492D02*
X72506Y-33492D01*
X69094Y-35709D02*
X71311Y-33492D01*
G54D10*
G36*
X82939Y-41539D02*
X82875Y-41859D01*
X82712Y-42104D01*
X82635Y-42155D01*
X82539Y-42218D01*
X82492Y-42171D01*
X82568Y-42160D01*
X82635Y-41878D01*
X82589Y-41591D01*
X82568Y-41540D01*
X82431Y-41519D01*
X82230Y-41720D01*
X82230Y-35639D01*
X82230Y-35540D01*
X82230Y-34202D01*
X82192Y-34110D01*
X82122Y-34040D01*
X82031Y-34002D01*
X81932Y-34002D01*
X81655Y-34002D01*
X80594Y-34002D01*
X80502Y-34040D01*
X80432Y-34110D01*
X80394Y-34201D01*
X80394Y-34300D01*
X80394Y-35638D01*
X80432Y-35730D01*
X80502Y-35800D01*
X80593Y-35838D01*
X80692Y-35838D01*
X82030Y-35838D01*
X82122Y-35800D01*
X82192Y-35730D01*
X82230Y-35639D01*
X82230Y-41720D01*
X82135Y-41815D01*
X82100Y-41850D01*
X81892Y-42058D01*
X81684Y-41850D01*
X81892Y-41642D01*
X81927Y-41607D01*
X82223Y-41311D01*
X82202Y-41174D01*
X81920Y-41107D01*
X81633Y-41153D01*
X81582Y-41174D01*
X81570Y-41249D01*
X81496Y-41175D01*
X81469Y-41201D01*
X81443Y-41174D01*
X81280Y-41107D01*
X81150Y-41106D01*
X81039Y-41217D01*
X81039Y-41653D01*
X81039Y-41703D01*
X81039Y-41997D01*
X80745Y-41997D01*
X80745Y-41703D01*
X80745Y-41217D01*
X80634Y-41106D01*
X80504Y-41107D01*
X80341Y-41174D01*
X80217Y-41299D01*
X80149Y-41462D01*
X80149Y-41593D01*
X80259Y-41703D01*
X80745Y-41703D01*
X80745Y-41997D01*
X80695Y-41997D01*
X80259Y-41997D01*
X80149Y-42107D01*
X80149Y-42238D01*
X80187Y-42330D01*
X80016Y-42330D01*
X80016Y-40813D01*
X79765Y-40813D01*
X79765Y-28893D01*
X79765Y-28407D01*
X79279Y-28407D01*
X79169Y-28517D01*
X79169Y-28648D01*
X79237Y-28811D01*
X79361Y-28936D01*
X79524Y-29003D01*
X79654Y-29004D01*
X79765Y-28893D01*
X79765Y-40813D01*
X77946Y-40813D01*
X77946Y-38358D01*
X77946Y-38102D01*
X77848Y-37866D01*
X77668Y-37685D01*
X77602Y-37657D01*
X77602Y-37609D01*
X77579Y-37495D01*
X77578Y-37494D01*
X77556Y-37462D01*
X77514Y-37398D01*
X77514Y-37397D01*
X75723Y-35606D01*
X75723Y-35520D01*
X75659Y-35364D01*
X75539Y-35244D01*
X75383Y-35179D01*
X75214Y-35179D01*
X75058Y-35243D01*
X74938Y-35363D01*
X74873Y-35519D01*
X74873Y-35688D01*
X74937Y-35844D01*
X75057Y-35964D01*
X75213Y-36029D01*
X75300Y-36029D01*
X76950Y-37679D01*
X76940Y-37684D01*
X76759Y-37864D01*
X76660Y-38100D01*
X76660Y-38356D01*
X76758Y-38592D01*
X76938Y-38773D01*
X77174Y-38872D01*
X77430Y-38872D01*
X77666Y-38774D01*
X77847Y-38594D01*
X77946Y-38358D01*
X77946Y-40813D01*
X77609Y-40813D01*
X77609Y-42330D01*
X75865Y-42330D01*
X75865Y-41088D01*
X75819Y-40801D01*
X75798Y-40750D01*
X75661Y-40729D01*
X75453Y-40937D01*
X75453Y-40521D01*
X75432Y-40384D01*
X75150Y-40317D01*
X74863Y-40363D01*
X74812Y-40384D01*
X74791Y-40521D01*
X75122Y-40852D01*
X75453Y-40521D01*
X75453Y-40937D01*
X75330Y-41060D01*
X75661Y-41391D01*
X75798Y-41370D01*
X75865Y-41088D01*
X75865Y-42330D01*
X75453Y-42330D01*
X75453Y-41599D01*
X75122Y-41268D01*
X74914Y-41476D01*
X74914Y-41060D01*
X74583Y-40729D01*
X74569Y-40731D01*
X74433Y-40595D01*
X74231Y-40511D01*
X74013Y-40511D01*
X73811Y-40595D01*
X73690Y-40716D01*
X73690Y-38581D01*
X73647Y-38305D01*
X73623Y-38248D01*
X73496Y-38230D01*
X73496Y-37876D01*
X73496Y-37777D01*
X73496Y-37227D01*
X73458Y-37135D01*
X73388Y-37065D01*
X73297Y-37027D01*
X73198Y-37027D01*
X72931Y-37027D01*
X72931Y-33577D01*
X72931Y-33408D01*
X72867Y-33252D01*
X72747Y-33132D01*
X72591Y-33067D01*
X72422Y-33067D01*
X72266Y-33131D01*
X72204Y-33193D01*
X72080Y-33193D01*
X72080Y-30582D01*
X72080Y-30326D01*
X71982Y-30090D01*
X71802Y-29909D01*
X71566Y-29810D01*
X71310Y-29810D01*
X71074Y-29908D01*
X70893Y-30088D01*
X70794Y-30324D01*
X70794Y-30580D01*
X70892Y-30816D01*
X71072Y-30997D01*
X71308Y-31096D01*
X71564Y-31096D01*
X71800Y-30998D01*
X71981Y-30818D01*
X72080Y-30582D01*
X72080Y-33193D01*
X71311Y-33193D01*
X71215Y-33212D01*
X71196Y-33216D01*
X71099Y-33281D01*
X69287Y-35093D01*
X69223Y-35066D01*
X68967Y-35066D01*
X68731Y-35164D01*
X68550Y-35344D01*
X68451Y-35580D01*
X68451Y-35836D01*
X68549Y-36072D01*
X68729Y-36253D01*
X68965Y-36352D01*
X69221Y-36352D01*
X69457Y-36254D01*
X69638Y-36074D01*
X69737Y-35838D01*
X69737Y-35582D01*
X69709Y-35515D01*
X71434Y-33791D01*
X72204Y-33791D01*
X72265Y-33852D01*
X72421Y-33917D01*
X72590Y-33917D01*
X72746Y-33853D01*
X72866Y-33733D01*
X72931Y-33577D01*
X72931Y-37027D01*
X72648Y-37027D01*
X72556Y-37065D01*
X72486Y-37135D01*
X72448Y-37226D01*
X72448Y-37325D01*
X72448Y-37875D01*
X72486Y-37967D01*
X72556Y-38037D01*
X72647Y-38075D01*
X72689Y-38075D01*
X72972Y-38357D01*
X73254Y-38075D01*
X73296Y-38075D01*
X73388Y-38037D01*
X73458Y-37967D01*
X73496Y-37876D01*
X73496Y-38230D01*
X73487Y-38229D01*
X73166Y-38551D01*
X73487Y-38873D01*
X73623Y-38854D01*
X73690Y-38581D01*
X73690Y-40716D01*
X73671Y-40735D01*
X73671Y-40711D01*
X73633Y-40619D01*
X73563Y-40549D01*
X73472Y-40511D01*
X73373Y-40511D01*
X73294Y-40511D01*
X73294Y-39066D01*
X72972Y-38745D01*
X72778Y-38938D01*
X72778Y-38551D01*
X72457Y-38229D01*
X72321Y-38248D01*
X72254Y-38521D01*
X72297Y-38797D01*
X72321Y-38854D01*
X72457Y-38873D01*
X72778Y-38551D01*
X72778Y-38938D01*
X72650Y-39066D01*
X72669Y-39202D01*
X72942Y-39269D01*
X73218Y-39226D01*
X73275Y-39202D01*
X73294Y-39066D01*
X73294Y-40511D01*
X72773Y-40511D01*
X72681Y-40549D01*
X72611Y-40619D01*
X72573Y-40710D01*
X72573Y-40809D01*
X72573Y-41409D01*
X72611Y-41501D01*
X72681Y-41571D01*
X72772Y-41609D01*
X72871Y-41609D01*
X73471Y-41609D01*
X73563Y-41571D01*
X73633Y-41501D01*
X73671Y-41410D01*
X73671Y-41385D01*
X73811Y-41525D01*
X74013Y-41609D01*
X74231Y-41609D01*
X74433Y-41525D01*
X74569Y-41388D01*
X74583Y-41391D01*
X74914Y-41060D01*
X74914Y-41476D01*
X74791Y-41599D01*
X74812Y-41736D01*
X75094Y-41803D01*
X75381Y-41757D01*
X75432Y-41736D01*
X75453Y-41599D01*
X75453Y-42330D01*
X68921Y-42330D01*
X68921Y-40833D01*
X67730Y-40833D01*
X67730Y-35639D01*
X67730Y-35540D01*
X67730Y-34202D01*
X67692Y-34110D01*
X67622Y-34040D01*
X67531Y-34002D01*
X67432Y-34002D01*
X66094Y-34002D01*
X66002Y-34040D01*
X65932Y-34110D01*
X65894Y-34201D01*
X65894Y-34300D01*
X65894Y-35638D01*
X65932Y-35730D01*
X66002Y-35800D01*
X66093Y-35838D01*
X66192Y-35838D01*
X67530Y-35838D01*
X67622Y-35800D01*
X67692Y-35730D01*
X67730Y-35639D01*
X67730Y-40833D01*
X67543Y-40833D01*
X67543Y-42330D01*
X67182Y-42330D01*
X67243Y-42305D01*
X67397Y-42151D01*
X67481Y-41949D01*
X67481Y-41731D01*
X67397Y-41529D01*
X67243Y-41375D01*
X67041Y-41291D01*
X66823Y-41291D01*
X66621Y-41375D01*
X66481Y-41515D01*
X66481Y-41491D01*
X66443Y-41399D01*
X66373Y-41329D01*
X66282Y-41291D01*
X66183Y-41291D01*
X65583Y-41291D01*
X65491Y-41329D01*
X65421Y-41399D01*
X65383Y-41490D01*
X65383Y-41589D01*
X65383Y-42029D01*
X65270Y-41861D01*
X65207Y-41539D01*
X65207Y-28557D01*
X65269Y-28240D01*
X65383Y-28071D01*
X65383Y-28609D01*
X65421Y-28701D01*
X65491Y-28771D01*
X65582Y-28809D01*
X65681Y-28809D01*
X66281Y-28809D01*
X66373Y-28771D01*
X66443Y-28701D01*
X66481Y-28610D01*
X66481Y-28585D01*
X66621Y-28725D01*
X66823Y-28809D01*
X67041Y-28809D01*
X67243Y-28725D01*
X67397Y-28571D01*
X67481Y-28369D01*
X67481Y-28151D01*
X67397Y-27949D01*
X67243Y-27795D01*
X67190Y-27773D01*
X68019Y-27773D01*
X68019Y-29380D01*
X70425Y-29380D01*
X70425Y-27773D01*
X76309Y-27773D01*
X76309Y-29380D01*
X78716Y-29380D01*
X78716Y-27773D01*
X79210Y-27773D01*
X79169Y-27872D01*
X79169Y-28003D01*
X79279Y-28113D01*
X79715Y-28113D01*
X79765Y-28113D01*
X80059Y-28113D01*
X80059Y-28407D01*
X80059Y-28457D01*
X80059Y-28893D01*
X80170Y-29004D01*
X80300Y-29003D01*
X80463Y-28936D01*
X80489Y-28908D01*
X80516Y-28935D01*
X80590Y-28860D01*
X80602Y-28936D01*
X80884Y-29003D01*
X81171Y-28957D01*
X81222Y-28936D01*
X81243Y-28799D01*
X80947Y-28503D01*
X80912Y-28468D01*
X80704Y-28260D01*
X80912Y-28052D01*
X81120Y-28260D01*
X81155Y-28295D01*
X81451Y-28591D01*
X81588Y-28570D01*
X81655Y-28288D01*
X81609Y-28001D01*
X81588Y-27950D01*
X81512Y-27938D01*
X81587Y-27864D01*
X81496Y-27773D01*
X81890Y-27773D01*
X81894Y-27772D01*
X82141Y-27772D01*
X82468Y-27836D01*
X82710Y-27998D01*
X82873Y-28243D01*
X82936Y-28558D01*
X82936Y-28569D01*
X82939Y-28583D01*
X82939Y-41539D01*
X82939Y-41539D01*
G37*
G54D21*
X82939Y-41539D02*
X82875Y-41859D01*
X82712Y-42104D01*
X82635Y-42155D01*
X82539Y-42218D01*
X82492Y-42171D01*
X82568Y-42160D01*
X82635Y-41878D01*
X82589Y-41591D01*
X82568Y-41540D01*
X82431Y-41519D01*
X82230Y-41720D01*
X82230Y-35639D01*
X82230Y-35540D01*
X82230Y-34202D01*
X82192Y-34110D01*
X82122Y-34040D01*
X82031Y-34002D01*
X81932Y-34002D01*
X81655Y-34002D01*
X80594Y-34002D01*
X80502Y-34040D01*
X80432Y-34110D01*
X80394Y-34201D01*
X80394Y-34300D01*
X80394Y-35638D01*
X80432Y-35730D01*
X80502Y-35800D01*
X80593Y-35838D01*
X80692Y-35838D01*
X82030Y-35838D01*
X82122Y-35800D01*
X82192Y-35730D01*
X82230Y-35639D01*
X82230Y-41720D01*
X82135Y-41815D01*
X82100Y-41850D01*
X81892Y-42058D01*
X81684Y-41850D01*
X81892Y-41642D01*
X81927Y-41607D01*
X82223Y-41311D01*
X82202Y-41174D01*
X81920Y-41107D01*
X81633Y-41153D01*
X81582Y-41174D01*
X81570Y-41249D01*
X81496Y-41175D01*
X81469Y-41201D01*
X81443Y-41174D01*
X81280Y-41107D01*
X81150Y-41106D01*
X81039Y-41217D01*
X81039Y-41653D01*
X81039Y-41703D01*
X81039Y-41997D01*
X80745Y-41997D01*
X80745Y-41703D01*
X80745Y-41217D01*
X80634Y-41106D01*
X80504Y-41107D01*
X80341Y-41174D01*
X80217Y-41299D01*
X80149Y-41462D01*
X80149Y-41593D01*
X80259Y-41703D01*
X80745Y-41703D01*
X80745Y-41997D01*
X80695Y-41997D01*
X80259Y-41997D01*
X80149Y-42107D01*
X80149Y-42238D01*
X80187Y-42330D01*
X80016Y-42330D01*
X80016Y-40813D01*
X79765Y-40813D01*
X79765Y-28893D01*
X79765Y-28407D01*
X79279Y-28407D01*
X79169Y-28517D01*
X79169Y-28648D01*
X79237Y-28811D01*
X79361Y-28936D01*
X79524Y-29003D01*
X79654Y-29004D01*
X79765Y-28893D01*
X79765Y-40813D01*
X77946Y-40813D01*
X77946Y-38358D01*
X77946Y-38102D01*
X77848Y-37866D01*
X77668Y-37685D01*
X77602Y-37657D01*
X77602Y-37609D01*
X77579Y-37495D01*
X77578Y-37494D01*
X77556Y-37462D01*
X77514Y-37398D01*
X77514Y-37397D01*
X75723Y-35606D01*
X75723Y-35520D01*
X75659Y-35364D01*
X75539Y-35244D01*
X75383Y-35179D01*
X75214Y-35179D01*
X75058Y-35243D01*
X74938Y-35363D01*
X74873Y-35519D01*
X74873Y-35688D01*
X74937Y-35844D01*
X75057Y-35964D01*
X75213Y-36029D01*
X75300Y-36029D01*
X76950Y-37679D01*
X76940Y-37684D01*
X76759Y-37864D01*
X76660Y-38100D01*
X76660Y-38356D01*
X76758Y-38592D01*
X76938Y-38773D01*
X77174Y-38872D01*
X77430Y-38872D01*
X77666Y-38774D01*
X77847Y-38594D01*
X77946Y-38358D01*
X77946Y-40813D01*
X77609Y-40813D01*
X77609Y-42330D01*
X75865Y-42330D01*
X75865Y-41088D01*
X75819Y-40801D01*
X75798Y-40750D01*
X75661Y-40729D01*
X75453Y-40937D01*
X75453Y-40521D01*
X75432Y-40384D01*
X75150Y-40317D01*
X74863Y-40363D01*
X74812Y-40384D01*
X74791Y-40521D01*
X75122Y-40852D01*
X75453Y-40521D01*
X75453Y-40937D01*
X75330Y-41060D01*
X75661Y-41391D01*
X75798Y-41370D01*
X75865Y-41088D01*
X75865Y-42330D01*
X75453Y-42330D01*
X75453Y-41599D01*
X75122Y-41268D01*
X74914Y-41476D01*
X74914Y-41060D01*
X74583Y-40729D01*
X74569Y-40731D01*
X74433Y-40595D01*
X74231Y-40511D01*
X74013Y-40511D01*
X73811Y-40595D01*
X73690Y-40716D01*
X73690Y-38581D01*
X73647Y-38305D01*
X73623Y-38248D01*
X73496Y-38230D01*
X73496Y-37876D01*
X73496Y-37777D01*
X73496Y-37227D01*
X73458Y-37135D01*
X73388Y-37065D01*
X73297Y-37027D01*
X73198Y-37027D01*
X72931Y-37027D01*
X72931Y-33577D01*
X72931Y-33408D01*
X72867Y-33252D01*
X72747Y-33132D01*
X72591Y-33067D01*
X72422Y-33067D01*
X72266Y-33131D01*
X72204Y-33193D01*
X72080Y-33193D01*
X72080Y-30582D01*
X72080Y-30326D01*
X71982Y-30090D01*
X71802Y-29909D01*
X71566Y-29810D01*
X71310Y-29810D01*
X71074Y-29908D01*
X70893Y-30088D01*
X70794Y-30324D01*
X70794Y-30580D01*
X70892Y-30816D01*
X71072Y-30997D01*
X71308Y-31096D01*
X71564Y-31096D01*
X71800Y-30998D01*
X71981Y-30818D01*
X72080Y-30582D01*
X72080Y-33193D01*
X71311Y-33193D01*
X71215Y-33212D01*
X71196Y-33216D01*
X71099Y-33281D01*
X69287Y-35093D01*
X69223Y-35066D01*
X68967Y-35066D01*
X68731Y-35164D01*
X68550Y-35344D01*
X68451Y-35580D01*
X68451Y-35836D01*
X68549Y-36072D01*
X68729Y-36253D01*
X68965Y-36352D01*
X69221Y-36352D01*
X69457Y-36254D01*
X69638Y-36074D01*
X69737Y-35838D01*
X69737Y-35582D01*
X69709Y-35515D01*
X71434Y-33791D01*
X72204Y-33791D01*
X72265Y-33852D01*
X72421Y-33917D01*
X72590Y-33917D01*
X72746Y-33853D01*
X72866Y-33733D01*
X72931Y-33577D01*
X72931Y-37027D01*
X72648Y-37027D01*
X72556Y-37065D01*
X72486Y-37135D01*
X72448Y-37226D01*
X72448Y-37325D01*
X72448Y-37875D01*
X72486Y-37967D01*
X72556Y-38037D01*
X72647Y-38075D01*
X72689Y-38075D01*
X72972Y-38357D01*
X73254Y-38075D01*
X73296Y-38075D01*
X73388Y-38037D01*
X73458Y-37967D01*
X73496Y-37876D01*
X73496Y-38230D01*
X73487Y-38229D01*
X73166Y-38551D01*
X73487Y-38873D01*
X73623Y-38854D01*
X73690Y-38581D01*
X73690Y-40716D01*
X73671Y-40735D01*
X73671Y-40711D01*
X73633Y-40619D01*
X73563Y-40549D01*
X73472Y-40511D01*
X73373Y-40511D01*
X73294Y-40511D01*
X73294Y-39066D01*
X72972Y-38745D01*
X72778Y-38938D01*
X72778Y-38551D01*
X72457Y-38229D01*
X72321Y-38248D01*
X72254Y-38521D01*
X72297Y-38797D01*
X72321Y-38854D01*
X72457Y-38873D01*
X72778Y-38551D01*
X72778Y-38938D01*
X72650Y-39066D01*
X72669Y-39202D01*
X72942Y-39269D01*
X73218Y-39226D01*
X73275Y-39202D01*
X73294Y-39066D01*
X73294Y-40511D01*
X72773Y-40511D01*
X72681Y-40549D01*
X72611Y-40619D01*
X72573Y-40710D01*
X72573Y-40809D01*
X72573Y-41409D01*
X72611Y-41501D01*
X72681Y-41571D01*
X72772Y-41609D01*
X72871Y-41609D01*
X73471Y-41609D01*
X73563Y-41571D01*
X73633Y-41501D01*
X73671Y-41410D01*
X73671Y-41385D01*
X73811Y-41525D01*
X74013Y-41609D01*
X74231Y-41609D01*
X74433Y-41525D01*
X74569Y-41388D01*
X74583Y-41391D01*
X74914Y-41060D01*
X74914Y-41476D01*
X74791Y-41599D01*
X74812Y-41736D01*
X75094Y-41803D01*
X75381Y-41757D01*
X75432Y-41736D01*
X75453Y-41599D01*
X75453Y-42330D01*
X68921Y-42330D01*
X68921Y-40833D01*
X67730Y-40833D01*
X67730Y-35639D01*
X67730Y-35540D01*
X67730Y-34202D01*
X67692Y-34110D01*
X67622Y-34040D01*
X67531Y-34002D01*
X67432Y-34002D01*
X66094Y-34002D01*
X66002Y-34040D01*
X65932Y-34110D01*
X65894Y-34201D01*
X65894Y-34300D01*
X65894Y-35638D01*
X65932Y-35730D01*
X66002Y-35800D01*
X66093Y-35838D01*
X66192Y-35838D01*
X67530Y-35838D01*
X67622Y-35800D01*
X67692Y-35730D01*
X67730Y-35639D01*
X67730Y-40833D01*
X67543Y-40833D01*
X67543Y-42330D01*
X67182Y-42330D01*
X67243Y-42305D01*
X67397Y-42151D01*
X67481Y-41949D01*
X67481Y-41731D01*
X67397Y-41529D01*
X67243Y-41375D01*
X67041Y-41291D01*
X66823Y-41291D01*
X66621Y-41375D01*
X66481Y-41515D01*
X66481Y-41491D01*
X66443Y-41399D01*
X66373Y-41329D01*
X66282Y-41291D01*
X66183Y-41291D01*
X65583Y-41291D01*
X65491Y-41329D01*
X65421Y-41399D01*
X65383Y-41490D01*
X65383Y-41589D01*
X65383Y-42029D01*
X65270Y-41861D01*
X65207Y-41539D01*
X65207Y-28557D01*
X65269Y-28240D01*
X65383Y-28071D01*
X65383Y-28609D01*
X65421Y-28701D01*
X65491Y-28771D01*
X65582Y-28809D01*
X65681Y-28809D01*
X66281Y-28809D01*
X66373Y-28771D01*
X66443Y-28701D01*
X66481Y-28610D01*
X66481Y-28585D01*
X66621Y-28725D01*
X66823Y-28809D01*
X67041Y-28809D01*
X67243Y-28725D01*
X67397Y-28571D01*
X67481Y-28369D01*
X67481Y-28151D01*
X67397Y-27949D01*
X67243Y-27795D01*
X67190Y-27773D01*
X68019Y-27773D01*
X68019Y-29380D01*
X70425Y-29380D01*
X70425Y-27773D01*
X76309Y-27773D01*
X76309Y-29380D01*
X78716Y-29380D01*
X78716Y-27773D01*
X79210Y-27773D01*
X79169Y-27872D01*
X79169Y-28003D01*
X79279Y-28113D01*
X79715Y-28113D01*
X79765Y-28113D01*
X80059Y-28113D01*
X80059Y-28407D01*
X80059Y-28457D01*
X80059Y-28893D01*
X80170Y-29004D01*
X80300Y-29003D01*
X80463Y-28936D01*
X80489Y-28908D01*
X80516Y-28935D01*
X80590Y-28860D01*
X80602Y-28936D01*
X80884Y-29003D01*
X81171Y-28957D01*
X81222Y-28936D01*
X81243Y-28799D01*
X80947Y-28503D01*
X80912Y-28468D01*
X80704Y-28260D01*
X80912Y-28052D01*
X81120Y-28260D01*
X81155Y-28295D01*
X81451Y-28591D01*
X81588Y-28570D01*
X81655Y-28288D01*
X81609Y-28001D01*
X81588Y-27950D01*
X81512Y-27938D01*
X81587Y-27864D01*
X81496Y-27773D01*
X81890Y-27773D01*
X81894Y-27772D01*
X82141Y-27772D01*
X82468Y-27836D01*
X82710Y-27998D01*
X82873Y-28243D01*
X82936Y-28558D01*
X82936Y-28569D01*
X82939Y-28583D01*
X82939Y-41539D01*
M02*
