G04 (created by PCBNEW-RS274X (2012-apr-16-27)-stable) date Sun 18 May 2014 11:24:35 BST*
G01*
G70*
G90*
%MOIN*%
G04 Gerber Fmt 3.4, Leading zero omitted, Abs format*
%FSLAX34Y34*%
G04 APERTURE LIST*
%ADD10C,0.006000*%
%ADD11C,0.015000*%
%ADD12C,0.012000*%
%ADD13R,0.080000X0.080000*%
%ADD14C,0.080000*%
%ADD15C,0.098700*%
%ADD16R,0.153900X0.153900*%
G04 APERTURE END LIST*
G54D10*
G54D11*
X43720Y-27490D02*
X43720Y-42710D01*
X62630Y-27490D02*
X43720Y-27490D01*
X62630Y-42710D02*
X62630Y-27490D01*
X43730Y-42710D02*
X62630Y-42710D01*
G54D12*
X56347Y-40682D02*
X56404Y-40644D01*
X56490Y-40644D01*
X56575Y-40682D01*
X56633Y-40758D01*
X56661Y-40834D01*
X56690Y-40987D01*
X56690Y-41101D01*
X56661Y-41253D01*
X56633Y-41330D01*
X56575Y-41406D01*
X56490Y-41444D01*
X56433Y-41444D01*
X56347Y-41406D01*
X56318Y-41368D01*
X56318Y-41101D01*
X56433Y-41101D01*
X56061Y-41444D02*
X56061Y-40644D01*
X55718Y-41444D01*
X55718Y-40644D01*
X55432Y-41444D02*
X55432Y-40644D01*
X55289Y-40644D01*
X55204Y-40682D01*
X55146Y-40758D01*
X55118Y-40834D01*
X55089Y-40987D01*
X55089Y-41101D01*
X55118Y-41253D01*
X55146Y-41330D01*
X55204Y-41406D01*
X55289Y-41444D01*
X55432Y-41444D01*
X50991Y-41139D02*
X50534Y-41139D01*
X50763Y-41444D02*
X50763Y-40834D01*
X49962Y-40644D02*
X50248Y-40644D01*
X50277Y-41025D01*
X50248Y-40987D01*
X50191Y-40949D01*
X50048Y-40949D01*
X49991Y-40987D01*
X49962Y-41025D01*
X49934Y-41101D01*
X49934Y-41291D01*
X49962Y-41368D01*
X49991Y-41406D01*
X50048Y-41444D01*
X50191Y-41444D01*
X50248Y-41406D01*
X50277Y-41368D01*
X49763Y-40644D02*
X49563Y-41444D01*
X49363Y-40644D01*
%LPC*%
G54D13*
X58770Y-28300D03*
G54D14*
X59770Y-28300D03*
G54D13*
X44790Y-28300D03*
G54D14*
X45790Y-28300D03*
G54D15*
X45490Y-30440D03*
X52240Y-39380D03*
X55590Y-32470D03*
G54D13*
X51980Y-41100D03*
G54D14*
X52980Y-41100D03*
X53980Y-41100D03*
G54D13*
X44790Y-41880D03*
G54D14*
X45790Y-41880D03*
G54D13*
X59750Y-41890D03*
G54D14*
X60750Y-41890D03*
G54D16*
X60170Y-34960D03*
X45670Y-34960D03*
M02*
