G04 (created by PCBNEW-RS274X (2012-apr-16-27)-stable) date Sun 18 May 2014 21:07:07 BST*
G01*
G70*
G90*
%MOIN*%
G04 Gerber Fmt 3.4, Leading zero omitted, Abs format*
%FSLAX34Y34*%
G04 APERTURE LIST*
%ADD10C,0.006000*%
%ADD11C,0.015000*%
%ADD12R,0.027600X0.039400*%
%ADD13R,0.015700X0.047200*%
%ADD14R,0.047200X0.023600*%
%ADD15R,0.047200X0.015700*%
%ADD16R,0.060000X0.060000*%
%ADD17C,0.060000*%
%ADD18R,0.025000X0.045000*%
%ADD19R,0.045000X0.025000*%
%ADD20C,0.078700*%
%ADD21R,0.133900X0.133900*%
%ADD22R,0.023600X0.015700*%
%ADD23R,0.011800X0.015700*%
%ADD24R,0.015700X0.011800*%
%ADD25R,0.055000X0.055000*%
%ADD26C,0.055000*%
%ADD27R,0.015700X0.023600*%
%ADD28C,0.035000*%
%ADD29C,0.009800*%
%ADD30C,0.010000*%
G04 APERTURE END LIST*
G54D10*
G54D11*
X82168Y-42655D02*
X81900Y-42655D01*
X83261Y-28521D02*
X83261Y-28569D01*
X81887Y-27447D02*
X82174Y-27447D01*
X83264Y-28544D02*
X83264Y-41565D01*
X81890Y-27448D02*
X65975Y-27448D01*
X81890Y-42655D02*
X65975Y-42655D01*
X64882Y-41562D02*
X64882Y-28551D01*
X65964Y-27447D02*
X65870Y-27452D01*
X65776Y-27464D01*
X65684Y-27484D01*
X65594Y-27513D01*
X65507Y-27549D01*
X65423Y-27593D01*
X65343Y-27643D01*
X65268Y-27701D01*
X65199Y-27765D01*
X65135Y-27834D01*
X65077Y-27909D01*
X65027Y-27989D01*
X64983Y-28073D01*
X64947Y-28160D01*
X64918Y-28250D01*
X64898Y-28342D01*
X64886Y-28436D01*
X64881Y-28530D01*
X83262Y-28531D02*
X83257Y-28437D01*
X83245Y-28343D01*
X83225Y-28251D01*
X83196Y-28161D01*
X83160Y-28074D01*
X83116Y-27990D01*
X83066Y-27910D01*
X83008Y-27835D01*
X82944Y-27766D01*
X82875Y-27702D01*
X82800Y-27644D01*
X82720Y-27594D01*
X82636Y-27550D01*
X82549Y-27514D01*
X82459Y-27485D01*
X82367Y-27465D01*
X82273Y-27453D01*
X82179Y-27448D01*
X82181Y-42655D02*
X82275Y-42650D01*
X82369Y-42638D01*
X82461Y-42618D01*
X82551Y-42589D01*
X82638Y-42553D01*
X82722Y-42509D01*
X82802Y-42459D01*
X82877Y-42401D01*
X82946Y-42337D01*
X83010Y-42268D01*
X83068Y-42193D01*
X83118Y-42113D01*
X83162Y-42029D01*
X83198Y-41942D01*
X83227Y-41852D01*
X83247Y-41760D01*
X83259Y-41666D01*
X83264Y-41572D01*
X64882Y-41572D02*
X64887Y-41666D01*
X64899Y-41760D01*
X64919Y-41852D01*
X64948Y-41942D01*
X64984Y-42029D01*
X65028Y-42113D01*
X65078Y-42193D01*
X65136Y-42268D01*
X65200Y-42337D01*
X65269Y-42401D01*
X65344Y-42459D01*
X65424Y-42509D01*
X65508Y-42553D01*
X65595Y-42589D01*
X65685Y-42618D01*
X65777Y-42638D01*
X65871Y-42650D01*
X65965Y-42655D01*
G54D12*
X67106Y-38925D03*
X66731Y-37925D03*
X67481Y-37925D03*
X66654Y-29598D03*
X67029Y-30598D03*
X66279Y-30598D03*
G54D13*
X77676Y-36319D03*
X77932Y-36319D03*
X78188Y-36319D03*
X78443Y-36319D03*
X78700Y-36319D03*
X78956Y-36319D03*
X79212Y-36319D03*
X79212Y-33917D03*
X78956Y-33917D03*
X78700Y-33917D03*
X78444Y-33917D03*
X78188Y-33917D03*
X77932Y-33917D03*
X77676Y-33917D03*
G54D14*
X72362Y-29075D03*
X72362Y-29567D03*
X72362Y-30079D03*
X72362Y-30571D03*
X74646Y-30571D03*
X74646Y-30079D03*
X74646Y-29567D03*
X74646Y-29055D03*
G54D15*
X73385Y-34448D03*
X73385Y-33956D03*
X73385Y-33444D03*
X73385Y-32952D03*
X71259Y-32952D03*
X71259Y-33444D03*
X71259Y-33956D03*
X71259Y-34448D03*
G54D16*
X79912Y-28260D03*
G54D17*
X80912Y-28260D03*
G54D16*
X65932Y-28260D03*
G54D17*
X66932Y-28260D03*
G54D18*
X67476Y-37185D03*
X68076Y-37185D03*
X72654Y-35432D03*
X72054Y-35432D03*
G54D19*
X74409Y-34453D03*
X74409Y-33853D03*
G54D18*
X78991Y-38760D03*
X79591Y-38760D03*
X73765Y-28346D03*
X73165Y-28346D03*
G54D19*
X75453Y-29602D03*
X75453Y-30202D03*
X70827Y-36117D03*
X70827Y-36717D03*
X70827Y-37574D03*
X70827Y-38174D03*
G54D18*
X72054Y-36132D03*
X72654Y-36132D03*
G54D19*
X73642Y-35546D03*
X73642Y-36146D03*
X79625Y-37800D03*
X79625Y-37200D03*
X74409Y-33391D03*
X74409Y-32791D03*
X78976Y-37180D03*
X78976Y-37780D03*
G54D20*
X71437Y-30453D03*
X69094Y-35709D03*
X77303Y-38229D03*
G54D16*
X73122Y-41060D03*
G54D17*
X74122Y-41060D03*
X75122Y-41060D03*
G54D16*
X65932Y-41840D03*
G54D17*
X66932Y-41840D03*
G54D16*
X80892Y-41850D03*
G54D17*
X81892Y-41850D03*
G54D21*
X81312Y-34920D03*
X66812Y-34920D03*
G54D22*
X71772Y-29547D03*
X71772Y-29193D03*
G54D23*
X66280Y-31457D03*
X66516Y-31457D03*
G54D24*
X68209Y-37933D03*
X68209Y-38169D03*
G54D25*
X72972Y-37551D03*
G54D26*
X72972Y-38551D03*
G54D24*
X69094Y-37933D03*
X69094Y-38169D03*
G54D22*
X74469Y-35630D03*
X74469Y-35984D03*
X75335Y-33701D03*
X75335Y-33347D03*
G54D27*
X67717Y-30610D03*
X68071Y-30610D03*
X67106Y-39705D03*
X67460Y-39705D03*
X66280Y-32185D03*
X66634Y-32185D03*
X68740Y-37185D03*
X69094Y-37185D03*
G54D22*
X69980Y-37579D03*
X69980Y-37933D03*
X75335Y-34468D03*
X75335Y-34114D03*
X80079Y-35945D03*
X80079Y-36299D03*
G54D28*
X75298Y-35604D03*
X71403Y-35521D03*
X72506Y-33492D03*
G54D29*
X70827Y-34494D02*
X70873Y-34448D01*
X70827Y-36117D02*
X70827Y-34494D01*
X66654Y-29598D02*
X66942Y-29598D01*
X78188Y-36319D02*
X78188Y-35933D01*
X73404Y-37150D02*
X73377Y-37123D01*
X73377Y-37123D02*
X71833Y-37123D01*
X73122Y-40610D02*
X73404Y-40328D01*
X71102Y-36392D02*
X70827Y-36392D01*
X71833Y-37123D02*
X71102Y-36392D01*
X73404Y-40328D02*
X73404Y-37150D01*
X70827Y-36117D02*
X70827Y-36392D01*
X73122Y-41060D02*
X73122Y-40610D01*
X71259Y-34448D02*
X70873Y-34448D01*
X68678Y-27862D02*
X66942Y-29598D01*
X73990Y-27862D02*
X68678Y-27862D01*
X74260Y-28132D02*
X73990Y-27862D01*
X75881Y-35933D02*
X74664Y-37150D01*
X74664Y-37150D02*
X73404Y-37150D01*
X78188Y-35933D02*
X75881Y-35933D01*
X75881Y-35933D02*
X75881Y-29364D01*
X80079Y-35945D02*
X79811Y-35945D01*
X75572Y-29055D02*
X74646Y-29055D01*
X75881Y-29364D02*
X75572Y-29055D01*
X79811Y-35945D02*
X79799Y-35933D01*
X79799Y-35933D02*
X78188Y-35933D01*
X74646Y-29055D02*
X74260Y-29055D01*
X74260Y-29055D02*
X74260Y-28132D01*
X74122Y-40259D02*
X77676Y-36705D01*
X74122Y-41060D02*
X74122Y-40259D01*
X77676Y-36319D02*
X77676Y-36705D01*
X66280Y-32185D02*
X66280Y-31457D01*
X66280Y-30945D02*
X66279Y-30945D01*
X66280Y-31457D02*
X66280Y-30945D01*
X66279Y-30598D02*
X66279Y-30945D01*
X66279Y-30598D02*
X66279Y-30251D01*
X66279Y-28260D02*
X66279Y-30251D01*
X66932Y-28260D02*
X66279Y-28260D01*
X66279Y-28260D02*
X65932Y-28260D01*
X67106Y-38925D02*
X67106Y-39705D01*
X65932Y-41840D02*
X66382Y-41840D01*
X67106Y-41666D02*
X66932Y-41840D01*
X67106Y-39705D02*
X67106Y-41666D01*
X66932Y-41840D02*
X66382Y-41840D01*
X71280Y-30610D02*
X71437Y-30453D01*
X68071Y-30610D02*
X71280Y-30610D01*
X71811Y-30079D02*
X72362Y-30079D01*
X71437Y-30453D02*
X71811Y-30079D01*
X78352Y-37180D02*
X78956Y-37180D01*
X77303Y-38229D02*
X78352Y-37180D01*
X78956Y-37180D02*
X78976Y-37180D01*
X72362Y-32444D02*
X74200Y-32444D01*
X74699Y-32653D02*
X75335Y-33289D01*
X74409Y-32653D02*
X74699Y-32653D01*
X75604Y-35298D02*
X75298Y-35604D01*
X75604Y-33558D02*
X75604Y-35298D01*
X71598Y-33208D02*
X72362Y-32444D01*
X78956Y-37180D02*
X78956Y-36319D01*
X70873Y-33956D02*
X70873Y-33234D01*
X70873Y-33234D02*
X70899Y-33208D01*
X70899Y-33208D02*
X71598Y-33208D01*
X74200Y-32444D02*
X74409Y-32653D01*
X74409Y-32791D02*
X74409Y-32653D01*
X75335Y-33347D02*
X75335Y-33289D01*
X71259Y-33956D02*
X70873Y-33956D01*
X75335Y-33289D02*
X75604Y-33558D01*
X70447Y-38169D02*
X69094Y-38169D01*
X79591Y-38385D02*
X79625Y-38351D01*
X72362Y-29075D02*
X71976Y-29075D01*
X79591Y-38760D02*
X79591Y-41060D01*
X79591Y-38760D02*
X79591Y-38385D01*
X79625Y-38351D02*
X79625Y-37800D01*
X75122Y-41060D02*
X79591Y-41060D01*
X78188Y-33917D02*
X78188Y-33531D01*
X78188Y-33917D02*
X78188Y-34303D01*
X72054Y-35432D02*
X71917Y-35432D01*
X78188Y-33531D02*
X78188Y-30434D01*
X71690Y-35521D02*
X71779Y-35432D01*
X79591Y-41060D02*
X80381Y-41850D01*
X70452Y-38174D02*
X70447Y-38169D01*
X81892Y-41850D02*
X80892Y-41850D01*
X71917Y-35432D02*
X71779Y-35432D01*
X71858Y-29193D02*
X71976Y-29075D01*
X78188Y-30434D02*
X79912Y-28710D01*
X80912Y-28260D02*
X79912Y-28260D01*
X70827Y-38174D02*
X70452Y-38174D01*
X80381Y-41850D02*
X80892Y-41850D01*
X71772Y-29193D02*
X71858Y-29193D01*
X71403Y-35521D02*
X71690Y-35521D01*
X70929Y-38551D02*
X70827Y-38449D01*
X71917Y-35432D02*
X71917Y-33528D01*
X67800Y-37550D02*
X67800Y-32636D01*
X70827Y-38174D02*
X70827Y-38449D01*
X71917Y-33528D02*
X72493Y-32952D01*
X66516Y-31457D02*
X66621Y-31457D01*
X67814Y-29193D02*
X71772Y-29193D01*
X68604Y-38169D02*
X68209Y-38169D01*
X72972Y-38551D02*
X70929Y-38551D01*
X67460Y-39705D02*
X67689Y-39705D01*
X79625Y-37800D02*
X79625Y-37525D01*
X79912Y-28260D02*
X79912Y-28710D01*
X80361Y-35743D02*
X78921Y-34303D01*
X68203Y-37577D02*
X67827Y-37577D01*
X69094Y-38169D02*
X68604Y-38169D01*
X78921Y-34303D02*
X78188Y-34303D01*
X67800Y-32636D02*
X66621Y-31457D01*
X68209Y-38169D02*
X68209Y-39185D01*
X67827Y-37577D02*
X67800Y-37550D01*
X79900Y-37525D02*
X80361Y-37064D01*
X68604Y-37978D02*
X68203Y-37577D01*
X66621Y-31457D02*
X66621Y-30386D01*
X68604Y-38169D02*
X68604Y-37978D01*
X79625Y-37525D02*
X79900Y-37525D01*
X66621Y-30386D02*
X67814Y-29193D01*
X68209Y-39185D02*
X67689Y-39705D01*
X80361Y-37064D02*
X80361Y-35743D01*
X72493Y-32952D02*
X73385Y-32952D01*
X73165Y-28721D02*
X73107Y-28779D01*
X71772Y-29547D02*
X72040Y-29547D01*
X72040Y-29547D02*
X72060Y-29567D01*
X72060Y-29567D02*
X72362Y-29567D01*
X73107Y-28779D02*
X73107Y-29567D01*
X73165Y-28346D02*
X73165Y-28721D01*
X72362Y-29567D02*
X73107Y-29567D01*
X73619Y-30079D02*
X74646Y-30079D01*
X73107Y-29567D02*
X73619Y-30079D01*
X75067Y-29602D02*
X75032Y-29567D01*
X75453Y-29602D02*
X75067Y-29602D01*
X74646Y-29567D02*
X75032Y-29567D01*
X74055Y-29567D02*
X74646Y-29567D01*
X73765Y-29277D02*
X74055Y-29567D01*
X73765Y-28721D02*
X73765Y-29277D01*
X73765Y-28346D02*
X73765Y-28721D01*
X73016Y-30839D02*
X72748Y-30571D01*
X75091Y-30839D02*
X73016Y-30839D01*
X75453Y-30477D02*
X75091Y-30839D01*
X75453Y-30202D02*
X75453Y-30477D01*
X72362Y-30571D02*
X72748Y-30571D01*
X78976Y-38370D02*
X78991Y-38385D01*
X78976Y-37780D02*
X78976Y-38370D01*
X78991Y-38760D02*
X78991Y-38385D01*
X79682Y-36925D02*
X79625Y-36925D01*
X80079Y-36528D02*
X79682Y-36925D01*
X80079Y-36299D02*
X80079Y-36528D01*
X79625Y-37200D02*
X79625Y-36965D01*
X79625Y-36965D02*
X79625Y-36925D01*
X79405Y-36705D02*
X79212Y-36705D01*
X79625Y-36925D02*
X79405Y-36705D01*
X79212Y-36319D02*
X79212Y-36705D01*
X74409Y-33391D02*
X74409Y-33116D01*
X72420Y-32669D02*
X71645Y-33444D01*
X74409Y-33116D02*
X74134Y-33116D01*
X71259Y-33444D02*
X71645Y-33444D01*
X75067Y-33701D02*
X74784Y-33418D01*
X73687Y-32669D02*
X72420Y-32669D01*
X75335Y-34114D02*
X75335Y-33701D01*
X74784Y-33418D02*
X74784Y-33391D01*
X74409Y-33391D02*
X74784Y-33391D01*
X74134Y-33116D02*
X73687Y-32669D01*
X75335Y-33701D02*
X75067Y-33701D01*
X68740Y-37185D02*
X68076Y-37185D01*
X67777Y-37933D02*
X67769Y-37925D01*
X68209Y-37933D02*
X67777Y-37933D01*
X67481Y-37925D02*
X67769Y-37925D01*
X67476Y-37573D02*
X67481Y-37578D01*
X67476Y-37185D02*
X67476Y-37573D01*
X67481Y-37925D02*
X67481Y-37578D01*
X73642Y-35546D02*
X73642Y-35271D01*
X73385Y-33956D02*
X72999Y-33956D01*
X72883Y-34628D02*
X72999Y-34628D01*
X72329Y-36132D02*
X72329Y-35182D01*
X72329Y-35182D02*
X72883Y-34628D01*
X73642Y-35271D02*
X72999Y-34628D01*
X72054Y-36132D02*
X72329Y-36132D01*
X72999Y-34628D02*
X72999Y-33956D01*
X74101Y-35630D02*
X74017Y-35546D01*
X73642Y-35546D02*
X74017Y-35546D01*
X74469Y-35630D02*
X74101Y-35630D01*
X74684Y-34128D02*
X74409Y-34128D01*
X75024Y-34468D02*
X74684Y-34128D01*
X75335Y-34468D02*
X75024Y-34468D01*
X74409Y-33853D02*
X74409Y-34128D01*
X65992Y-33688D02*
X65992Y-37474D01*
X66634Y-33046D02*
X65992Y-33688D01*
X66731Y-37925D02*
X66443Y-37925D01*
X65992Y-37474D02*
X66443Y-37925D01*
X66634Y-32185D02*
X66634Y-33046D01*
X67329Y-30610D02*
X67317Y-30598D01*
X67717Y-30610D02*
X67329Y-30610D01*
X67029Y-30598D02*
X67317Y-30598D01*
X72654Y-36132D02*
X72654Y-35432D01*
X70827Y-36854D02*
X70827Y-36992D01*
X70447Y-37579D02*
X70452Y-37574D01*
X70827Y-36717D02*
X70827Y-36854D01*
X70827Y-37574D02*
X70452Y-37574D01*
X69980Y-37579D02*
X70447Y-37579D01*
X70827Y-37574D02*
X71202Y-37574D01*
X70531Y-32952D02*
X71259Y-32952D01*
X70448Y-33035D02*
X70531Y-32952D01*
X72972Y-37551D02*
X71225Y-37551D01*
X71225Y-37551D02*
X71225Y-37390D01*
X71225Y-37390D02*
X70827Y-36992D01*
X70827Y-36854D02*
X70448Y-36475D01*
X70448Y-36475D02*
X70448Y-33035D01*
X71225Y-37551D02*
X71202Y-37574D01*
X69094Y-37933D02*
X69323Y-37933D01*
X69094Y-37185D02*
X69323Y-37185D01*
X69323Y-37933D02*
X69980Y-37933D01*
X69323Y-37933D02*
X69323Y-37185D01*
X69323Y-35938D02*
X69094Y-35709D01*
X69323Y-37185D02*
X69323Y-35938D01*
X73385Y-33444D02*
X72999Y-33444D01*
X72952Y-33491D02*
X72506Y-33491D01*
X72506Y-33491D02*
X72506Y-33492D01*
X72999Y-33444D02*
X72952Y-33491D01*
X73642Y-36146D02*
X74017Y-36146D01*
X74179Y-35984D02*
X74469Y-35984D01*
X74017Y-36146D02*
X74179Y-35984D01*
X74469Y-35984D02*
X74737Y-35984D01*
X74409Y-34453D02*
X74409Y-34590D01*
X74409Y-34590D02*
X74409Y-34728D01*
X73913Y-34590D02*
X73771Y-34448D01*
X74409Y-34590D02*
X73913Y-34590D01*
X73385Y-34448D02*
X73771Y-34448D01*
X74737Y-35178D02*
X74737Y-35984D01*
X74409Y-34850D02*
X74737Y-35178D01*
X74409Y-34728D02*
X74409Y-34850D01*
G54D10*
G36*
X68870Y-38198D02*
X68683Y-38198D01*
X68651Y-38229D01*
X68620Y-38198D01*
X68433Y-38198D01*
X68491Y-38140D01*
X68620Y-38140D01*
X68651Y-38108D01*
X68683Y-38140D01*
X68812Y-38140D01*
X68870Y-38198D01*
X68870Y-38198D01*
G37*
G54D30*
X68870Y-38198D02*
X68683Y-38198D01*
X68651Y-38229D01*
X68620Y-38198D01*
X68433Y-38198D01*
X68491Y-38140D01*
X68620Y-38140D01*
X68651Y-38108D01*
X68683Y-38140D01*
X68812Y-38140D01*
X68870Y-38198D01*
G54D10*
G36*
X72791Y-28557D02*
X72686Y-28514D01*
X72590Y-28514D01*
X72480Y-28624D01*
X72480Y-29016D01*
X72509Y-29016D01*
X72509Y-29134D01*
X72480Y-29134D01*
X72480Y-29193D01*
X72244Y-29193D01*
X72244Y-29134D01*
X72243Y-29134D01*
X72334Y-29043D01*
X72333Y-29027D01*
X72266Y-28864D01*
X72244Y-28842D01*
X72244Y-28624D01*
X72134Y-28514D01*
X72038Y-28514D01*
X71875Y-28582D01*
X71750Y-28706D01*
X71713Y-28796D01*
X71713Y-28782D01*
X71603Y-28672D01*
X71566Y-28672D01*
X71403Y-28740D01*
X71278Y-28864D01*
X71211Y-29027D01*
X71210Y-29043D01*
X71321Y-29154D01*
X71682Y-29154D01*
X71682Y-29220D01*
X71605Y-29220D01*
X71575Y-29232D01*
X71321Y-29232D01*
X71210Y-29343D01*
X71211Y-29359D01*
X71278Y-29522D01*
X71403Y-29646D01*
X71405Y-29646D01*
X71405Y-29674D01*
X71443Y-29766D01*
X71487Y-29810D01*
X71310Y-29810D01*
X71074Y-29908D01*
X70893Y-30088D01*
X70799Y-30311D01*
X68320Y-30311D01*
X68290Y-30281D01*
X68199Y-30243D01*
X68100Y-30243D01*
X67944Y-30243D01*
X67894Y-30263D01*
X67845Y-30243D01*
X67746Y-30243D01*
X67590Y-30243D01*
X67498Y-30281D01*
X67468Y-30311D01*
X67399Y-30311D01*
X67378Y-30260D01*
X67308Y-30190D01*
X67217Y-30152D01*
X67118Y-30152D01*
X66842Y-30152D01*
X66750Y-30190D01*
X66680Y-30260D01*
X66653Y-30322D01*
X66628Y-30260D01*
X66578Y-30210D01*
X66578Y-30044D01*
X66841Y-30044D01*
X66933Y-30006D01*
X67003Y-29936D01*
X67026Y-29879D01*
X67037Y-29877D01*
X67056Y-29874D01*
X67057Y-29874D01*
X67153Y-29809D01*
X68801Y-28161D01*
X72791Y-28161D01*
X72791Y-28170D01*
X72791Y-28557D01*
X72791Y-28557D01*
G37*
G54D30*
X72791Y-28557D02*
X72686Y-28514D01*
X72590Y-28514D01*
X72480Y-28624D01*
X72480Y-29016D01*
X72509Y-29016D01*
X72509Y-29134D01*
X72480Y-29134D01*
X72480Y-29193D01*
X72244Y-29193D01*
X72244Y-29134D01*
X72243Y-29134D01*
X72334Y-29043D01*
X72333Y-29027D01*
X72266Y-28864D01*
X72244Y-28842D01*
X72244Y-28624D01*
X72134Y-28514D01*
X72038Y-28514D01*
X71875Y-28582D01*
X71750Y-28706D01*
X71713Y-28796D01*
X71713Y-28782D01*
X71603Y-28672D01*
X71566Y-28672D01*
X71403Y-28740D01*
X71278Y-28864D01*
X71211Y-29027D01*
X71210Y-29043D01*
X71321Y-29154D01*
X71682Y-29154D01*
X71682Y-29220D01*
X71605Y-29220D01*
X71575Y-29232D01*
X71321Y-29232D01*
X71210Y-29343D01*
X71211Y-29359D01*
X71278Y-29522D01*
X71403Y-29646D01*
X71405Y-29646D01*
X71405Y-29674D01*
X71443Y-29766D01*
X71487Y-29810D01*
X71310Y-29810D01*
X71074Y-29908D01*
X70893Y-30088D01*
X70799Y-30311D01*
X68320Y-30311D01*
X68290Y-30281D01*
X68199Y-30243D01*
X68100Y-30243D01*
X67944Y-30243D01*
X67894Y-30263D01*
X67845Y-30243D01*
X67746Y-30243D01*
X67590Y-30243D01*
X67498Y-30281D01*
X67468Y-30311D01*
X67399Y-30311D01*
X67378Y-30260D01*
X67308Y-30190D01*
X67217Y-30152D01*
X67118Y-30152D01*
X66842Y-30152D01*
X66750Y-30190D01*
X66680Y-30260D01*
X66653Y-30322D01*
X66628Y-30260D01*
X66578Y-30210D01*
X66578Y-30044D01*
X66841Y-30044D01*
X66933Y-30006D01*
X67003Y-29936D01*
X67026Y-29879D01*
X67037Y-29877D01*
X67056Y-29874D01*
X67057Y-29874D01*
X67153Y-29809D01*
X68801Y-28161D01*
X72791Y-28161D01*
X72791Y-28170D01*
X72791Y-28557D01*
G54D10*
G36*
X75363Y-36029D02*
X74541Y-36851D01*
X73497Y-36851D01*
X73492Y-36847D01*
X73472Y-36843D01*
X73377Y-36824D01*
X71956Y-36824D01*
X71313Y-36181D01*
X71301Y-36172D01*
X71301Y-35943D01*
X71263Y-35851D01*
X71193Y-35781D01*
X71126Y-35753D01*
X71126Y-34775D01*
X71544Y-34775D01*
X71636Y-34737D01*
X71706Y-34667D01*
X71744Y-34576D01*
X71744Y-34477D01*
X71744Y-34321D01*
X71706Y-34229D01*
X71679Y-34202D01*
X71706Y-34175D01*
X71744Y-34084D01*
X71744Y-33985D01*
X71744Y-33829D01*
X71706Y-33737D01*
X71700Y-33731D01*
X71740Y-33723D01*
X71759Y-33720D01*
X71760Y-33720D01*
X71856Y-33655D01*
X72081Y-33430D01*
X72081Y-33576D01*
X72145Y-33732D01*
X72265Y-33852D01*
X72421Y-33917D01*
X72590Y-33917D01*
X72718Y-33864D01*
X72700Y-33956D01*
X72700Y-34397D01*
X72671Y-34417D01*
X72307Y-34780D01*
X72267Y-34764D01*
X72227Y-34763D01*
X72116Y-34874D01*
X72116Y-34973D01*
X72053Y-35067D01*
X72049Y-35086D01*
X72030Y-35182D01*
X72030Y-35579D01*
X71992Y-35579D01*
X71992Y-35544D01*
X71992Y-35320D01*
X71992Y-34874D01*
X71881Y-34763D01*
X71841Y-34764D01*
X71678Y-34831D01*
X71554Y-34956D01*
X71486Y-35119D01*
X71486Y-35210D01*
X71596Y-35320D01*
X71992Y-35320D01*
X71992Y-35544D01*
X71596Y-35544D01*
X71486Y-35654D01*
X71486Y-35745D01*
X71554Y-35908D01*
X71678Y-36033D01*
X71680Y-36033D01*
X71680Y-36406D01*
X71718Y-36498D01*
X71788Y-36568D01*
X71879Y-36606D01*
X71978Y-36606D01*
X72228Y-36606D01*
X72320Y-36568D01*
X72354Y-36534D01*
X72388Y-36568D01*
X72479Y-36606D01*
X72578Y-36606D01*
X72828Y-36606D01*
X72920Y-36568D01*
X72990Y-36498D01*
X73028Y-36407D01*
X73028Y-36308D01*
X73028Y-35858D01*
X72996Y-35782D01*
X73028Y-35707D01*
X73028Y-35608D01*
X73028Y-35158D01*
X72990Y-35066D01*
X72928Y-35004D01*
X72941Y-34992D01*
X73217Y-35268D01*
X73206Y-35280D01*
X73168Y-35371D01*
X73168Y-35470D01*
X73168Y-35720D01*
X73206Y-35812D01*
X73240Y-35846D01*
X73206Y-35880D01*
X73168Y-35971D01*
X73168Y-36070D01*
X73168Y-36320D01*
X73206Y-36412D01*
X73276Y-36482D01*
X73367Y-36520D01*
X73466Y-36520D01*
X73916Y-36520D01*
X74008Y-36482D01*
X74052Y-36437D01*
X74112Y-36425D01*
X74131Y-36422D01*
X74132Y-36422D01*
X74228Y-36357D01*
X74281Y-36303D01*
X74301Y-36311D01*
X74400Y-36311D01*
X74636Y-36311D01*
X74703Y-36283D01*
X74737Y-36283D01*
X74851Y-36260D01*
X74948Y-36195D01*
X75013Y-36098D01*
X75036Y-35984D01*
X75036Y-35943D01*
X75057Y-35964D01*
X75213Y-36029D01*
X75363Y-36029D01*
X75363Y-36029D01*
G37*
G54D30*
X75363Y-36029D02*
X74541Y-36851D01*
X73497Y-36851D01*
X73492Y-36847D01*
X73472Y-36843D01*
X73377Y-36824D01*
X71956Y-36824D01*
X71313Y-36181D01*
X71301Y-36172D01*
X71301Y-35943D01*
X71263Y-35851D01*
X71193Y-35781D01*
X71126Y-35753D01*
X71126Y-34775D01*
X71544Y-34775D01*
X71636Y-34737D01*
X71706Y-34667D01*
X71744Y-34576D01*
X71744Y-34477D01*
X71744Y-34321D01*
X71706Y-34229D01*
X71679Y-34202D01*
X71706Y-34175D01*
X71744Y-34084D01*
X71744Y-33985D01*
X71744Y-33829D01*
X71706Y-33737D01*
X71700Y-33731D01*
X71740Y-33723D01*
X71759Y-33720D01*
X71760Y-33720D01*
X71856Y-33655D01*
X72081Y-33430D01*
X72081Y-33576D01*
X72145Y-33732D01*
X72265Y-33852D01*
X72421Y-33917D01*
X72590Y-33917D01*
X72718Y-33864D01*
X72700Y-33956D01*
X72700Y-34397D01*
X72671Y-34417D01*
X72307Y-34780D01*
X72267Y-34764D01*
X72227Y-34763D01*
X72116Y-34874D01*
X72116Y-34973D01*
X72053Y-35067D01*
X72049Y-35086D01*
X72030Y-35182D01*
X72030Y-35579D01*
X71992Y-35579D01*
X71992Y-35544D01*
X71992Y-35320D01*
X71992Y-34874D01*
X71881Y-34763D01*
X71841Y-34764D01*
X71678Y-34831D01*
X71554Y-34956D01*
X71486Y-35119D01*
X71486Y-35210D01*
X71596Y-35320D01*
X71992Y-35320D01*
X71992Y-35544D01*
X71596Y-35544D01*
X71486Y-35654D01*
X71486Y-35745D01*
X71554Y-35908D01*
X71678Y-36033D01*
X71680Y-36033D01*
X71680Y-36406D01*
X71718Y-36498D01*
X71788Y-36568D01*
X71879Y-36606D01*
X71978Y-36606D01*
X72228Y-36606D01*
X72320Y-36568D01*
X72354Y-36534D01*
X72388Y-36568D01*
X72479Y-36606D01*
X72578Y-36606D01*
X72828Y-36606D01*
X72920Y-36568D01*
X72990Y-36498D01*
X73028Y-36407D01*
X73028Y-36308D01*
X73028Y-35858D01*
X72996Y-35782D01*
X73028Y-35707D01*
X73028Y-35608D01*
X73028Y-35158D01*
X72990Y-35066D01*
X72928Y-35004D01*
X72941Y-34992D01*
X73217Y-35268D01*
X73206Y-35280D01*
X73168Y-35371D01*
X73168Y-35470D01*
X73168Y-35720D01*
X73206Y-35812D01*
X73240Y-35846D01*
X73206Y-35880D01*
X73168Y-35971D01*
X73168Y-36070D01*
X73168Y-36320D01*
X73206Y-36412D01*
X73276Y-36482D01*
X73367Y-36520D01*
X73466Y-36520D01*
X73916Y-36520D01*
X74008Y-36482D01*
X74052Y-36437D01*
X74112Y-36425D01*
X74131Y-36422D01*
X74132Y-36422D01*
X74228Y-36357D01*
X74281Y-36303D01*
X74301Y-36311D01*
X74400Y-36311D01*
X74636Y-36311D01*
X74703Y-36283D01*
X74737Y-36283D01*
X74851Y-36260D01*
X74948Y-36195D01*
X75013Y-36098D01*
X75036Y-35984D01*
X75036Y-35943D01*
X75057Y-35964D01*
X75213Y-36029D01*
X75363Y-36029D01*
G54D10*
G36*
X75582Y-33052D02*
X75503Y-33020D01*
X75488Y-33020D01*
X74910Y-32442D01*
X74814Y-32377D01*
X74794Y-32373D01*
X74699Y-32354D01*
X74532Y-32354D01*
X74411Y-32233D01*
X74315Y-32168D01*
X74295Y-32164D01*
X74200Y-32145D01*
X72362Y-32145D01*
X72248Y-32168D01*
X72215Y-32190D01*
X72150Y-32233D01*
X71678Y-32705D01*
X71636Y-32663D01*
X71545Y-32625D01*
X71446Y-32625D01*
X70974Y-32625D01*
X70906Y-32653D01*
X70531Y-32653D01*
X70435Y-32672D01*
X70416Y-32676D01*
X70319Y-32741D01*
X70237Y-32824D01*
X70172Y-32920D01*
X70168Y-32939D01*
X70149Y-33035D01*
X70149Y-36475D01*
X70168Y-36570D01*
X70172Y-36590D01*
X70237Y-36686D01*
X70353Y-36802D01*
X70353Y-36891D01*
X70391Y-36983D01*
X70461Y-37053D01*
X70547Y-37089D01*
X70551Y-37107D01*
X70613Y-37200D01*
X70553Y-37200D01*
X70461Y-37238D01*
X70419Y-37280D01*
X70215Y-37280D01*
X70148Y-37252D01*
X70049Y-37252D01*
X69813Y-37252D01*
X69721Y-37290D01*
X69651Y-37360D01*
X69622Y-37429D01*
X69622Y-37185D01*
X69622Y-36089D01*
X69638Y-36074D01*
X69737Y-35838D01*
X69737Y-35582D01*
X69639Y-35346D01*
X69459Y-35165D01*
X69223Y-35066D01*
X68967Y-35066D01*
X68731Y-35164D01*
X68550Y-35344D01*
X68451Y-35580D01*
X68451Y-35836D01*
X68549Y-36072D01*
X68729Y-36253D01*
X68965Y-36352D01*
X69024Y-36352D01*
X69024Y-36818D01*
X68967Y-36818D01*
X68917Y-36838D01*
X68868Y-36818D01*
X68769Y-36818D01*
X68613Y-36818D01*
X68521Y-36856D01*
X68491Y-36886D01*
X68439Y-36886D01*
X68412Y-36819D01*
X68342Y-36749D01*
X68251Y-36711D01*
X68152Y-36711D01*
X67902Y-36711D01*
X67810Y-36749D01*
X67776Y-36783D01*
X67742Y-36749D01*
X67651Y-36711D01*
X67552Y-36711D01*
X67302Y-36711D01*
X67210Y-36749D01*
X67140Y-36819D01*
X67102Y-36910D01*
X67102Y-37009D01*
X67102Y-37459D01*
X67140Y-37551D01*
X67154Y-37565D01*
X67132Y-37587D01*
X67105Y-37649D01*
X67080Y-37587D01*
X67010Y-37517D01*
X66919Y-37479D01*
X66820Y-37479D01*
X66544Y-37479D01*
X66455Y-37515D01*
X66291Y-37350D01*
X66291Y-35838D01*
X67530Y-35838D01*
X67622Y-35800D01*
X67692Y-35730D01*
X67730Y-35639D01*
X67730Y-35540D01*
X67730Y-34202D01*
X67692Y-34110D01*
X67622Y-34040D01*
X67531Y-34002D01*
X67432Y-34002D01*
X66291Y-34002D01*
X66291Y-33811D01*
X66845Y-33258D01*
X66845Y-33257D01*
X66887Y-33193D01*
X66909Y-33161D01*
X66910Y-33160D01*
X66932Y-33047D01*
X66933Y-33046D01*
X66933Y-32420D01*
X66961Y-32353D01*
X66961Y-32254D01*
X66961Y-32018D01*
X66923Y-31926D01*
X66866Y-31869D01*
X66950Y-31786D01*
X67018Y-31623D01*
X67018Y-31606D01*
X66908Y-31496D01*
X66588Y-31496D01*
X66588Y-31486D01*
X66588Y-31418D01*
X66908Y-31418D01*
X67018Y-31308D01*
X67018Y-31291D01*
X66950Y-31128D01*
X66866Y-31044D01*
X66940Y-31044D01*
X67216Y-31044D01*
X67308Y-31006D01*
X67378Y-30936D01*
X67389Y-30909D01*
X67468Y-30909D01*
X67498Y-30939D01*
X67589Y-30977D01*
X67688Y-30977D01*
X67844Y-30977D01*
X67893Y-30956D01*
X67943Y-30977D01*
X68042Y-30977D01*
X68198Y-30977D01*
X68290Y-30939D01*
X68320Y-30909D01*
X70984Y-30909D01*
X71072Y-30997D01*
X71308Y-31096D01*
X71564Y-31096D01*
X71800Y-30998D01*
X71941Y-30856D01*
X71985Y-30900D01*
X72076Y-30938D01*
X72175Y-30938D01*
X72647Y-30938D01*
X72679Y-30924D01*
X72805Y-31050D01*
X72901Y-31115D01*
X72902Y-31115D01*
X72920Y-31118D01*
X73016Y-31138D01*
X75091Y-31138D01*
X75091Y-31137D01*
X75186Y-31118D01*
X75205Y-31115D01*
X75206Y-31115D01*
X75302Y-31050D01*
X75582Y-30770D01*
X75582Y-33052D01*
X75582Y-33052D01*
G37*
G54D30*
X75582Y-33052D02*
X75503Y-33020D01*
X75488Y-33020D01*
X74910Y-32442D01*
X74814Y-32377D01*
X74794Y-32373D01*
X74699Y-32354D01*
X74532Y-32354D01*
X74411Y-32233D01*
X74315Y-32168D01*
X74295Y-32164D01*
X74200Y-32145D01*
X72362Y-32145D01*
X72248Y-32168D01*
X72215Y-32190D01*
X72150Y-32233D01*
X71678Y-32705D01*
X71636Y-32663D01*
X71545Y-32625D01*
X71446Y-32625D01*
X70974Y-32625D01*
X70906Y-32653D01*
X70531Y-32653D01*
X70435Y-32672D01*
X70416Y-32676D01*
X70319Y-32741D01*
X70237Y-32824D01*
X70172Y-32920D01*
X70168Y-32939D01*
X70149Y-33035D01*
X70149Y-36475D01*
X70168Y-36570D01*
X70172Y-36590D01*
X70237Y-36686D01*
X70353Y-36802D01*
X70353Y-36891D01*
X70391Y-36983D01*
X70461Y-37053D01*
X70547Y-37089D01*
X70551Y-37107D01*
X70613Y-37200D01*
X70553Y-37200D01*
X70461Y-37238D01*
X70419Y-37280D01*
X70215Y-37280D01*
X70148Y-37252D01*
X70049Y-37252D01*
X69813Y-37252D01*
X69721Y-37290D01*
X69651Y-37360D01*
X69622Y-37429D01*
X69622Y-37185D01*
X69622Y-36089D01*
X69638Y-36074D01*
X69737Y-35838D01*
X69737Y-35582D01*
X69639Y-35346D01*
X69459Y-35165D01*
X69223Y-35066D01*
X68967Y-35066D01*
X68731Y-35164D01*
X68550Y-35344D01*
X68451Y-35580D01*
X68451Y-35836D01*
X68549Y-36072D01*
X68729Y-36253D01*
X68965Y-36352D01*
X69024Y-36352D01*
X69024Y-36818D01*
X68967Y-36818D01*
X68917Y-36838D01*
X68868Y-36818D01*
X68769Y-36818D01*
X68613Y-36818D01*
X68521Y-36856D01*
X68491Y-36886D01*
X68439Y-36886D01*
X68412Y-36819D01*
X68342Y-36749D01*
X68251Y-36711D01*
X68152Y-36711D01*
X67902Y-36711D01*
X67810Y-36749D01*
X67776Y-36783D01*
X67742Y-36749D01*
X67651Y-36711D01*
X67552Y-36711D01*
X67302Y-36711D01*
X67210Y-36749D01*
X67140Y-36819D01*
X67102Y-36910D01*
X67102Y-37009D01*
X67102Y-37459D01*
X67140Y-37551D01*
X67154Y-37565D01*
X67132Y-37587D01*
X67105Y-37649D01*
X67080Y-37587D01*
X67010Y-37517D01*
X66919Y-37479D01*
X66820Y-37479D01*
X66544Y-37479D01*
X66455Y-37515D01*
X66291Y-37350D01*
X66291Y-35838D01*
X67530Y-35838D01*
X67622Y-35800D01*
X67692Y-35730D01*
X67730Y-35639D01*
X67730Y-35540D01*
X67730Y-34202D01*
X67692Y-34110D01*
X67622Y-34040D01*
X67531Y-34002D01*
X67432Y-34002D01*
X66291Y-34002D01*
X66291Y-33811D01*
X66845Y-33258D01*
X66845Y-33257D01*
X66887Y-33193D01*
X66909Y-33161D01*
X66910Y-33160D01*
X66932Y-33047D01*
X66933Y-33046D01*
X66933Y-32420D01*
X66961Y-32353D01*
X66961Y-32254D01*
X66961Y-32018D01*
X66923Y-31926D01*
X66866Y-31869D01*
X66950Y-31786D01*
X67018Y-31623D01*
X67018Y-31606D01*
X66908Y-31496D01*
X66588Y-31496D01*
X66588Y-31486D01*
X66588Y-31418D01*
X66908Y-31418D01*
X67018Y-31308D01*
X67018Y-31291D01*
X66950Y-31128D01*
X66866Y-31044D01*
X66940Y-31044D01*
X67216Y-31044D01*
X67308Y-31006D01*
X67378Y-30936D01*
X67389Y-30909D01*
X67468Y-30909D01*
X67498Y-30939D01*
X67589Y-30977D01*
X67688Y-30977D01*
X67844Y-30977D01*
X67893Y-30956D01*
X67943Y-30977D01*
X68042Y-30977D01*
X68198Y-30977D01*
X68290Y-30939D01*
X68320Y-30909D01*
X70984Y-30909D01*
X71072Y-30997D01*
X71308Y-31096D01*
X71564Y-31096D01*
X71800Y-30998D01*
X71941Y-30856D01*
X71985Y-30900D01*
X72076Y-30938D01*
X72175Y-30938D01*
X72647Y-30938D01*
X72679Y-30924D01*
X72805Y-31050D01*
X72901Y-31115D01*
X72902Y-31115D01*
X72920Y-31118D01*
X73016Y-31138D01*
X75091Y-31138D01*
X75091Y-31137D01*
X75186Y-31118D01*
X75205Y-31115D01*
X75206Y-31115D01*
X75302Y-31050D01*
X75582Y-30770D01*
X75582Y-33052D01*
G54D10*
G36*
X82939Y-41539D02*
X82875Y-41859D01*
X82712Y-42104D01*
X82635Y-42155D01*
X82539Y-42218D01*
X82492Y-42171D01*
X82568Y-42160D01*
X82635Y-41878D01*
X82589Y-41591D01*
X82568Y-41540D01*
X82431Y-41519D01*
X82230Y-41720D01*
X82230Y-35639D01*
X82230Y-35540D01*
X82230Y-34202D01*
X82192Y-34110D01*
X82122Y-34040D01*
X82031Y-34002D01*
X81932Y-34002D01*
X81655Y-34002D01*
X80594Y-34002D01*
X80502Y-34040D01*
X80432Y-34110D01*
X80394Y-34201D01*
X80394Y-34300D01*
X80394Y-35638D01*
X80432Y-35730D01*
X80502Y-35800D01*
X80593Y-35838D01*
X80692Y-35838D01*
X82030Y-35838D01*
X82122Y-35800D01*
X82192Y-35730D01*
X82230Y-35639D01*
X82230Y-41720D01*
X82135Y-41815D01*
X82100Y-41850D01*
X81892Y-42058D01*
X81684Y-41850D01*
X81892Y-41642D01*
X81927Y-41607D01*
X82223Y-41311D01*
X82202Y-41174D01*
X81920Y-41107D01*
X81633Y-41153D01*
X81582Y-41174D01*
X81570Y-41249D01*
X81496Y-41175D01*
X81469Y-41201D01*
X81443Y-41174D01*
X81280Y-41107D01*
X81150Y-41106D01*
X81039Y-41217D01*
X81039Y-41653D01*
X81039Y-41703D01*
X81039Y-41997D01*
X80745Y-41997D01*
X80745Y-41703D01*
X80745Y-41217D01*
X80634Y-41106D01*
X80504Y-41107D01*
X80341Y-41174D01*
X80294Y-41221D01*
X80294Y-37973D01*
X80183Y-37862D01*
X79737Y-37862D01*
X79737Y-38118D01*
X79653Y-38202D01*
X79653Y-38648D01*
X80049Y-38648D01*
X80159Y-38538D01*
X80159Y-38447D01*
X80098Y-38301D01*
X80101Y-38300D01*
X80226Y-38176D01*
X80293Y-38013D01*
X80294Y-37973D01*
X80294Y-41221D01*
X80217Y-41299D01*
X80159Y-41438D01*
X80159Y-39073D01*
X80159Y-38982D01*
X80049Y-38872D01*
X79653Y-38872D01*
X79653Y-39318D01*
X79764Y-39429D01*
X79804Y-39428D01*
X79967Y-39361D01*
X80091Y-39236D01*
X80159Y-39073D01*
X80159Y-41438D01*
X80149Y-41462D01*
X80149Y-41593D01*
X80259Y-41703D01*
X80745Y-41703D01*
X80745Y-41997D01*
X80695Y-41997D01*
X80259Y-41997D01*
X80149Y-42107D01*
X80149Y-42238D01*
X80187Y-42330D01*
X75865Y-42330D01*
X75865Y-41088D01*
X75819Y-40801D01*
X75798Y-40750D01*
X75661Y-40729D01*
X75453Y-40937D01*
X75453Y-40521D01*
X75432Y-40384D01*
X75150Y-40317D01*
X74863Y-40363D01*
X74812Y-40384D01*
X74791Y-40521D01*
X75122Y-40852D01*
X75453Y-40521D01*
X75453Y-40937D01*
X75330Y-41060D01*
X75661Y-41391D01*
X75798Y-41370D01*
X75865Y-41088D01*
X75865Y-42330D01*
X75453Y-42330D01*
X75453Y-41599D01*
X75122Y-41268D01*
X74791Y-41599D01*
X74812Y-41736D01*
X75094Y-41803D01*
X75381Y-41757D01*
X75432Y-41736D01*
X75453Y-41599D01*
X75453Y-42330D01*
X71496Y-42330D01*
X71496Y-38347D01*
X71385Y-38236D01*
X70939Y-38236D01*
X70939Y-38632D01*
X71049Y-38742D01*
X71140Y-38742D01*
X71303Y-38674D01*
X71428Y-38550D01*
X71495Y-38387D01*
X71496Y-38347D01*
X71496Y-42330D01*
X70715Y-42330D01*
X67981Y-42330D01*
X67981Y-39911D01*
X67981Y-39874D01*
X67871Y-39764D01*
X67499Y-39764D01*
X67499Y-40156D01*
X67610Y-40267D01*
X67626Y-40266D01*
X67789Y-40199D01*
X67913Y-40074D01*
X67981Y-39911D01*
X67981Y-42330D01*
X67182Y-42330D01*
X67243Y-42305D01*
X67397Y-42151D01*
X67481Y-41949D01*
X67481Y-41731D01*
X67405Y-41548D01*
X67405Y-40172D01*
X67421Y-40156D01*
X67421Y-39901D01*
X67433Y-39873D01*
X67433Y-39774D01*
X67433Y-39587D01*
X67499Y-39587D01*
X67499Y-39646D01*
X67871Y-39646D01*
X67981Y-39536D01*
X67981Y-39499D01*
X67913Y-39336D01*
X67789Y-39211D01*
X67657Y-39156D01*
X67657Y-39143D01*
X67610Y-39143D01*
X67493Y-39143D01*
X67493Y-39073D01*
X67493Y-38679D01*
X67455Y-38587D01*
X67385Y-38517D01*
X67294Y-38479D01*
X67195Y-38479D01*
X66919Y-38479D01*
X66827Y-38517D01*
X66757Y-38587D01*
X66719Y-38678D01*
X66719Y-38777D01*
X66719Y-39171D01*
X66757Y-39263D01*
X66807Y-39313D01*
X66807Y-39469D01*
X66779Y-39537D01*
X66779Y-39636D01*
X66779Y-39872D01*
X66807Y-39939D01*
X66807Y-41297D01*
X66621Y-41375D01*
X66481Y-41515D01*
X66481Y-41491D01*
X66443Y-41399D01*
X66373Y-41329D01*
X66282Y-41291D01*
X66183Y-41291D01*
X65583Y-41291D01*
X65491Y-41329D01*
X65421Y-41399D01*
X65383Y-41490D01*
X65383Y-41589D01*
X65383Y-42029D01*
X65270Y-41861D01*
X65207Y-41539D01*
X65207Y-28557D01*
X65269Y-28240D01*
X65383Y-28071D01*
X65383Y-28609D01*
X65421Y-28701D01*
X65491Y-28771D01*
X65582Y-28809D01*
X65681Y-28809D01*
X65980Y-28809D01*
X65980Y-30210D01*
X65930Y-30260D01*
X65892Y-30351D01*
X65892Y-30450D01*
X65892Y-30844D01*
X65930Y-30936D01*
X65981Y-30987D01*
X65981Y-31307D01*
X65972Y-31329D01*
X65972Y-31428D01*
X65972Y-31584D01*
X65981Y-31605D01*
X65981Y-31949D01*
X65953Y-32017D01*
X65953Y-32116D01*
X65953Y-32352D01*
X65991Y-32444D01*
X66061Y-32514D01*
X66152Y-32552D01*
X66251Y-32552D01*
X66335Y-32552D01*
X66335Y-32922D01*
X65781Y-33477D01*
X65716Y-33573D01*
X65712Y-33592D01*
X65693Y-33688D01*
X65693Y-37474D01*
X65712Y-37569D01*
X65716Y-37589D01*
X65781Y-37685D01*
X66231Y-38136D01*
X66232Y-38136D01*
X66296Y-38178D01*
X66328Y-38200D01*
X66329Y-38201D01*
X66358Y-38206D01*
X66358Y-38207D01*
X66382Y-38263D01*
X66452Y-38333D01*
X66543Y-38371D01*
X66642Y-38371D01*
X66918Y-38371D01*
X67010Y-38333D01*
X67080Y-38263D01*
X67106Y-38200D01*
X67132Y-38263D01*
X67202Y-38333D01*
X67293Y-38371D01*
X67392Y-38371D01*
X67668Y-38371D01*
X67687Y-38362D01*
X67687Y-38366D01*
X67708Y-38366D01*
X67755Y-38479D01*
X67880Y-38603D01*
X68043Y-38671D01*
X68060Y-38671D01*
X68170Y-38561D01*
X68170Y-38241D01*
X68180Y-38241D01*
X68248Y-38241D01*
X68248Y-38561D01*
X68358Y-38671D01*
X68375Y-38671D01*
X68538Y-38603D01*
X68651Y-38490D01*
X68765Y-38603D01*
X68928Y-38671D01*
X68945Y-38671D01*
X69055Y-38561D01*
X69055Y-38241D01*
X69065Y-38241D01*
X69133Y-38241D01*
X69133Y-38561D01*
X69243Y-38671D01*
X69260Y-38671D01*
X69423Y-38603D01*
X69548Y-38479D01*
X69594Y-38366D01*
X69616Y-38366D01*
X69616Y-38309D01*
X69616Y-38232D01*
X69744Y-38232D01*
X69812Y-38260D01*
X69911Y-38260D01*
X70147Y-38260D01*
X70158Y-38255D01*
X70158Y-38347D01*
X70158Y-38371D01*
X70159Y-38387D01*
X70226Y-38550D01*
X70351Y-38674D01*
X70514Y-38742D01*
X70605Y-38742D01*
X70715Y-38632D01*
X70715Y-38236D01*
X70680Y-38236D01*
X70680Y-38112D01*
X70715Y-38112D01*
X70715Y-38049D01*
X70939Y-38049D01*
X70939Y-38112D01*
X71385Y-38112D01*
X71496Y-38001D01*
X71495Y-37961D01*
X71449Y-37850D01*
X72448Y-37850D01*
X72448Y-37875D01*
X72486Y-37967D01*
X72556Y-38037D01*
X72647Y-38075D01*
X72689Y-38075D01*
X72972Y-38357D01*
X72979Y-38350D01*
X73105Y-38476D01*
X73105Y-38626D01*
X72979Y-38751D01*
X72972Y-38745D01*
X72778Y-38938D01*
X72778Y-38551D01*
X72457Y-38229D01*
X72321Y-38248D01*
X72254Y-38521D01*
X72297Y-38797D01*
X72321Y-38854D01*
X72457Y-38873D01*
X72778Y-38551D01*
X72778Y-38938D01*
X72650Y-39066D01*
X72669Y-39202D01*
X72942Y-39269D01*
X73105Y-39243D01*
X73105Y-40204D01*
X72911Y-40399D01*
X72846Y-40495D01*
X72842Y-40511D01*
X72773Y-40511D01*
X72681Y-40549D01*
X72611Y-40619D01*
X72573Y-40710D01*
X72573Y-40809D01*
X72573Y-41409D01*
X72611Y-41501D01*
X72681Y-41571D01*
X72772Y-41609D01*
X72871Y-41609D01*
X73471Y-41609D01*
X73563Y-41571D01*
X73633Y-41501D01*
X73671Y-41410D01*
X73671Y-41385D01*
X73811Y-41525D01*
X74013Y-41609D01*
X74231Y-41609D01*
X74433Y-41525D01*
X74569Y-41388D01*
X74583Y-41391D01*
X74914Y-41060D01*
X74583Y-40729D01*
X74569Y-40731D01*
X74433Y-40595D01*
X74421Y-40590D01*
X74421Y-40382D01*
X76660Y-38143D01*
X76660Y-38356D01*
X76758Y-38592D01*
X76938Y-38773D01*
X77174Y-38872D01*
X77430Y-38872D01*
X77666Y-38774D01*
X77847Y-38594D01*
X77946Y-38358D01*
X77946Y-38102D01*
X77918Y-38035D01*
X78475Y-37479D01*
X78573Y-37479D01*
X78574Y-37480D01*
X78540Y-37514D01*
X78502Y-37605D01*
X78502Y-37704D01*
X78502Y-37954D01*
X78540Y-38046D01*
X78610Y-38116D01*
X78677Y-38143D01*
X78677Y-38370D01*
X78677Y-38371D01*
X78655Y-38394D01*
X78617Y-38485D01*
X78617Y-38584D01*
X78617Y-39034D01*
X78655Y-39126D01*
X78725Y-39196D01*
X78816Y-39234D01*
X78915Y-39234D01*
X79090Y-39234D01*
X79091Y-39236D01*
X79215Y-39361D01*
X79378Y-39428D01*
X79418Y-39429D01*
X79529Y-39318D01*
X79529Y-38872D01*
X79466Y-38872D01*
X79466Y-38648D01*
X79529Y-38648D01*
X79529Y-38202D01*
X79513Y-38186D01*
X79513Y-37862D01*
X79478Y-37862D01*
X79478Y-37738D01*
X79513Y-37738D01*
X79513Y-37675D01*
X79737Y-37675D01*
X79737Y-37738D01*
X80183Y-37738D01*
X80294Y-37627D01*
X80293Y-37587D01*
X80226Y-37424D01*
X80101Y-37300D01*
X80099Y-37299D01*
X80099Y-37276D01*
X80099Y-37026D01*
X80071Y-36958D01*
X80290Y-36740D01*
X80290Y-36739D01*
X80332Y-36675D01*
X80354Y-36643D01*
X80355Y-36642D01*
X80372Y-36553D01*
X80408Y-36518D01*
X80446Y-36427D01*
X80446Y-36328D01*
X80446Y-36172D01*
X80425Y-36122D01*
X80446Y-36073D01*
X80446Y-35974D01*
X80446Y-35818D01*
X80408Y-35726D01*
X80338Y-35656D01*
X80247Y-35618D01*
X80148Y-35618D01*
X79912Y-35618D01*
X79848Y-35644D01*
X79799Y-35634D01*
X79765Y-35634D01*
X79765Y-28893D01*
X79765Y-28407D01*
X79279Y-28407D01*
X79169Y-28517D01*
X79169Y-28648D01*
X79237Y-28811D01*
X79361Y-28936D01*
X79524Y-29003D01*
X79654Y-29004D01*
X79765Y-28893D01*
X79765Y-35634D01*
X79539Y-35634D01*
X79539Y-34203D01*
X79539Y-34104D01*
X79539Y-33632D01*
X79501Y-33540D01*
X79431Y-33470D01*
X79340Y-33432D01*
X79241Y-33432D01*
X79085Y-33432D01*
X79084Y-33432D01*
X78985Y-33432D01*
X78829Y-33432D01*
X78828Y-33432D01*
X78729Y-33432D01*
X78641Y-33432D01*
X78641Y-33430D01*
X78517Y-33305D01*
X78354Y-33238D01*
X78338Y-33237D01*
X78227Y-33348D01*
X78227Y-33469D01*
X78225Y-33470D01*
X78188Y-33507D01*
X78151Y-33470D01*
X78149Y-33469D01*
X78149Y-33348D01*
X78038Y-33237D01*
X78022Y-33238D01*
X77859Y-33305D01*
X77735Y-33430D01*
X77734Y-33432D01*
X77705Y-33432D01*
X77549Y-33432D01*
X77457Y-33470D01*
X77387Y-33540D01*
X77349Y-33631D01*
X77349Y-33730D01*
X77349Y-34202D01*
X77387Y-34294D01*
X77457Y-34364D01*
X77548Y-34402D01*
X77647Y-34402D01*
X77734Y-34402D01*
X77735Y-34404D01*
X77859Y-34529D01*
X78022Y-34596D01*
X78038Y-34597D01*
X78149Y-34486D01*
X78149Y-34364D01*
X78151Y-34364D01*
X78188Y-34327D01*
X78225Y-34364D01*
X78227Y-34364D01*
X78227Y-34486D01*
X78338Y-34597D01*
X78354Y-34596D01*
X78517Y-34529D01*
X78641Y-34404D01*
X78641Y-34402D01*
X78671Y-34402D01*
X78827Y-34402D01*
X78827Y-34401D01*
X78828Y-34402D01*
X78927Y-34402D01*
X79083Y-34402D01*
X79083Y-34401D01*
X79084Y-34402D01*
X79183Y-34402D01*
X79339Y-34402D01*
X79431Y-34364D01*
X79501Y-34294D01*
X79539Y-34203D01*
X79539Y-35634D01*
X78188Y-35634D01*
X76180Y-35634D01*
X76180Y-29364D01*
X76179Y-29363D01*
X76157Y-29250D01*
X76156Y-29249D01*
X76134Y-29217D01*
X76092Y-29153D01*
X76092Y-29152D01*
X75783Y-28844D01*
X75687Y-28779D01*
X75667Y-28775D01*
X75572Y-28756D01*
X75053Y-28756D01*
X75023Y-28726D01*
X74932Y-28688D01*
X74833Y-28688D01*
X74559Y-28688D01*
X74559Y-28132D01*
X74558Y-28131D01*
X74536Y-28018D01*
X74535Y-28017D01*
X74513Y-27985D01*
X74471Y-27921D01*
X74471Y-27920D01*
X74323Y-27773D01*
X79210Y-27773D01*
X79169Y-27872D01*
X79169Y-28003D01*
X79279Y-28113D01*
X79715Y-28113D01*
X79765Y-28113D01*
X80059Y-28113D01*
X80059Y-28407D01*
X80059Y-28457D01*
X80059Y-28893D01*
X80170Y-29004D01*
X80300Y-29003D01*
X80463Y-28936D01*
X80489Y-28908D01*
X80516Y-28935D01*
X80590Y-28860D01*
X80602Y-28936D01*
X80884Y-29003D01*
X81171Y-28957D01*
X81222Y-28936D01*
X81243Y-28799D01*
X80947Y-28503D01*
X80912Y-28468D01*
X80704Y-28260D01*
X80912Y-28052D01*
X81120Y-28260D01*
X81155Y-28295D01*
X81451Y-28591D01*
X81588Y-28570D01*
X81655Y-28288D01*
X81609Y-28001D01*
X81588Y-27950D01*
X81512Y-27938D01*
X81587Y-27864D01*
X81496Y-27773D01*
X81890Y-27773D01*
X81894Y-27772D01*
X82141Y-27772D01*
X82468Y-27836D01*
X82710Y-27998D01*
X82873Y-28243D01*
X82936Y-28558D01*
X82936Y-28569D01*
X82939Y-28583D01*
X82939Y-41539D01*
X82939Y-41539D01*
G37*
G54D30*
X82939Y-41539D02*
X82875Y-41859D01*
X82712Y-42104D01*
X82635Y-42155D01*
X82539Y-42218D01*
X82492Y-42171D01*
X82568Y-42160D01*
X82635Y-41878D01*
X82589Y-41591D01*
X82568Y-41540D01*
X82431Y-41519D01*
X82230Y-41720D01*
X82230Y-35639D01*
X82230Y-35540D01*
X82230Y-34202D01*
X82192Y-34110D01*
X82122Y-34040D01*
X82031Y-34002D01*
X81932Y-34002D01*
X81655Y-34002D01*
X80594Y-34002D01*
X80502Y-34040D01*
X80432Y-34110D01*
X80394Y-34201D01*
X80394Y-34300D01*
X80394Y-35638D01*
X80432Y-35730D01*
X80502Y-35800D01*
X80593Y-35838D01*
X80692Y-35838D01*
X82030Y-35838D01*
X82122Y-35800D01*
X82192Y-35730D01*
X82230Y-35639D01*
X82230Y-41720D01*
X82135Y-41815D01*
X82100Y-41850D01*
X81892Y-42058D01*
X81684Y-41850D01*
X81892Y-41642D01*
X81927Y-41607D01*
X82223Y-41311D01*
X82202Y-41174D01*
X81920Y-41107D01*
X81633Y-41153D01*
X81582Y-41174D01*
X81570Y-41249D01*
X81496Y-41175D01*
X81469Y-41201D01*
X81443Y-41174D01*
X81280Y-41107D01*
X81150Y-41106D01*
X81039Y-41217D01*
X81039Y-41653D01*
X81039Y-41703D01*
X81039Y-41997D01*
X80745Y-41997D01*
X80745Y-41703D01*
X80745Y-41217D01*
X80634Y-41106D01*
X80504Y-41107D01*
X80341Y-41174D01*
X80294Y-41221D01*
X80294Y-37973D01*
X80183Y-37862D01*
X79737Y-37862D01*
X79737Y-38118D01*
X79653Y-38202D01*
X79653Y-38648D01*
X80049Y-38648D01*
X80159Y-38538D01*
X80159Y-38447D01*
X80098Y-38301D01*
X80101Y-38300D01*
X80226Y-38176D01*
X80293Y-38013D01*
X80294Y-37973D01*
X80294Y-41221D01*
X80217Y-41299D01*
X80159Y-41438D01*
X80159Y-39073D01*
X80159Y-38982D01*
X80049Y-38872D01*
X79653Y-38872D01*
X79653Y-39318D01*
X79764Y-39429D01*
X79804Y-39428D01*
X79967Y-39361D01*
X80091Y-39236D01*
X80159Y-39073D01*
X80159Y-41438D01*
X80149Y-41462D01*
X80149Y-41593D01*
X80259Y-41703D01*
X80745Y-41703D01*
X80745Y-41997D01*
X80695Y-41997D01*
X80259Y-41997D01*
X80149Y-42107D01*
X80149Y-42238D01*
X80187Y-42330D01*
X75865Y-42330D01*
X75865Y-41088D01*
X75819Y-40801D01*
X75798Y-40750D01*
X75661Y-40729D01*
X75453Y-40937D01*
X75453Y-40521D01*
X75432Y-40384D01*
X75150Y-40317D01*
X74863Y-40363D01*
X74812Y-40384D01*
X74791Y-40521D01*
X75122Y-40852D01*
X75453Y-40521D01*
X75453Y-40937D01*
X75330Y-41060D01*
X75661Y-41391D01*
X75798Y-41370D01*
X75865Y-41088D01*
X75865Y-42330D01*
X75453Y-42330D01*
X75453Y-41599D01*
X75122Y-41268D01*
X74791Y-41599D01*
X74812Y-41736D01*
X75094Y-41803D01*
X75381Y-41757D01*
X75432Y-41736D01*
X75453Y-41599D01*
X75453Y-42330D01*
X71496Y-42330D01*
X71496Y-38347D01*
X71385Y-38236D01*
X70939Y-38236D01*
X70939Y-38632D01*
X71049Y-38742D01*
X71140Y-38742D01*
X71303Y-38674D01*
X71428Y-38550D01*
X71495Y-38387D01*
X71496Y-38347D01*
X71496Y-42330D01*
X70715Y-42330D01*
X67981Y-42330D01*
X67981Y-39911D01*
X67981Y-39874D01*
X67871Y-39764D01*
X67499Y-39764D01*
X67499Y-40156D01*
X67610Y-40267D01*
X67626Y-40266D01*
X67789Y-40199D01*
X67913Y-40074D01*
X67981Y-39911D01*
X67981Y-42330D01*
X67182Y-42330D01*
X67243Y-42305D01*
X67397Y-42151D01*
X67481Y-41949D01*
X67481Y-41731D01*
X67405Y-41548D01*
X67405Y-40172D01*
X67421Y-40156D01*
X67421Y-39901D01*
X67433Y-39873D01*
X67433Y-39774D01*
X67433Y-39587D01*
X67499Y-39587D01*
X67499Y-39646D01*
X67871Y-39646D01*
X67981Y-39536D01*
X67981Y-39499D01*
X67913Y-39336D01*
X67789Y-39211D01*
X67657Y-39156D01*
X67657Y-39143D01*
X67610Y-39143D01*
X67493Y-39143D01*
X67493Y-39073D01*
X67493Y-38679D01*
X67455Y-38587D01*
X67385Y-38517D01*
X67294Y-38479D01*
X67195Y-38479D01*
X66919Y-38479D01*
X66827Y-38517D01*
X66757Y-38587D01*
X66719Y-38678D01*
X66719Y-38777D01*
X66719Y-39171D01*
X66757Y-39263D01*
X66807Y-39313D01*
X66807Y-39469D01*
X66779Y-39537D01*
X66779Y-39636D01*
X66779Y-39872D01*
X66807Y-39939D01*
X66807Y-41297D01*
X66621Y-41375D01*
X66481Y-41515D01*
X66481Y-41491D01*
X66443Y-41399D01*
X66373Y-41329D01*
X66282Y-41291D01*
X66183Y-41291D01*
X65583Y-41291D01*
X65491Y-41329D01*
X65421Y-41399D01*
X65383Y-41490D01*
X65383Y-41589D01*
X65383Y-42029D01*
X65270Y-41861D01*
X65207Y-41539D01*
X65207Y-28557D01*
X65269Y-28240D01*
X65383Y-28071D01*
X65383Y-28609D01*
X65421Y-28701D01*
X65491Y-28771D01*
X65582Y-28809D01*
X65681Y-28809D01*
X65980Y-28809D01*
X65980Y-30210D01*
X65930Y-30260D01*
X65892Y-30351D01*
X65892Y-30450D01*
X65892Y-30844D01*
X65930Y-30936D01*
X65981Y-30987D01*
X65981Y-31307D01*
X65972Y-31329D01*
X65972Y-31428D01*
X65972Y-31584D01*
X65981Y-31605D01*
X65981Y-31949D01*
X65953Y-32017D01*
X65953Y-32116D01*
X65953Y-32352D01*
X65991Y-32444D01*
X66061Y-32514D01*
X66152Y-32552D01*
X66251Y-32552D01*
X66335Y-32552D01*
X66335Y-32922D01*
X65781Y-33477D01*
X65716Y-33573D01*
X65712Y-33592D01*
X65693Y-33688D01*
X65693Y-37474D01*
X65712Y-37569D01*
X65716Y-37589D01*
X65781Y-37685D01*
X66231Y-38136D01*
X66232Y-38136D01*
X66296Y-38178D01*
X66328Y-38200D01*
X66329Y-38201D01*
X66358Y-38206D01*
X66358Y-38207D01*
X66382Y-38263D01*
X66452Y-38333D01*
X66543Y-38371D01*
X66642Y-38371D01*
X66918Y-38371D01*
X67010Y-38333D01*
X67080Y-38263D01*
X67106Y-38200D01*
X67132Y-38263D01*
X67202Y-38333D01*
X67293Y-38371D01*
X67392Y-38371D01*
X67668Y-38371D01*
X67687Y-38362D01*
X67687Y-38366D01*
X67708Y-38366D01*
X67755Y-38479D01*
X67880Y-38603D01*
X68043Y-38671D01*
X68060Y-38671D01*
X68170Y-38561D01*
X68170Y-38241D01*
X68180Y-38241D01*
X68248Y-38241D01*
X68248Y-38561D01*
X68358Y-38671D01*
X68375Y-38671D01*
X68538Y-38603D01*
X68651Y-38490D01*
X68765Y-38603D01*
X68928Y-38671D01*
X68945Y-38671D01*
X69055Y-38561D01*
X69055Y-38241D01*
X69065Y-38241D01*
X69133Y-38241D01*
X69133Y-38561D01*
X69243Y-38671D01*
X69260Y-38671D01*
X69423Y-38603D01*
X69548Y-38479D01*
X69594Y-38366D01*
X69616Y-38366D01*
X69616Y-38309D01*
X69616Y-38232D01*
X69744Y-38232D01*
X69812Y-38260D01*
X69911Y-38260D01*
X70147Y-38260D01*
X70158Y-38255D01*
X70158Y-38347D01*
X70158Y-38371D01*
X70159Y-38387D01*
X70226Y-38550D01*
X70351Y-38674D01*
X70514Y-38742D01*
X70605Y-38742D01*
X70715Y-38632D01*
X70715Y-38236D01*
X70680Y-38236D01*
X70680Y-38112D01*
X70715Y-38112D01*
X70715Y-38049D01*
X70939Y-38049D01*
X70939Y-38112D01*
X71385Y-38112D01*
X71496Y-38001D01*
X71495Y-37961D01*
X71449Y-37850D01*
X72448Y-37850D01*
X72448Y-37875D01*
X72486Y-37967D01*
X72556Y-38037D01*
X72647Y-38075D01*
X72689Y-38075D01*
X72972Y-38357D01*
X72979Y-38350D01*
X73105Y-38476D01*
X73105Y-38626D01*
X72979Y-38751D01*
X72972Y-38745D01*
X72778Y-38938D01*
X72778Y-38551D01*
X72457Y-38229D01*
X72321Y-38248D01*
X72254Y-38521D01*
X72297Y-38797D01*
X72321Y-38854D01*
X72457Y-38873D01*
X72778Y-38551D01*
X72778Y-38938D01*
X72650Y-39066D01*
X72669Y-39202D01*
X72942Y-39269D01*
X73105Y-39243D01*
X73105Y-40204D01*
X72911Y-40399D01*
X72846Y-40495D01*
X72842Y-40511D01*
X72773Y-40511D01*
X72681Y-40549D01*
X72611Y-40619D01*
X72573Y-40710D01*
X72573Y-40809D01*
X72573Y-41409D01*
X72611Y-41501D01*
X72681Y-41571D01*
X72772Y-41609D01*
X72871Y-41609D01*
X73471Y-41609D01*
X73563Y-41571D01*
X73633Y-41501D01*
X73671Y-41410D01*
X73671Y-41385D01*
X73811Y-41525D01*
X74013Y-41609D01*
X74231Y-41609D01*
X74433Y-41525D01*
X74569Y-41388D01*
X74583Y-41391D01*
X74914Y-41060D01*
X74583Y-40729D01*
X74569Y-40731D01*
X74433Y-40595D01*
X74421Y-40590D01*
X74421Y-40382D01*
X76660Y-38143D01*
X76660Y-38356D01*
X76758Y-38592D01*
X76938Y-38773D01*
X77174Y-38872D01*
X77430Y-38872D01*
X77666Y-38774D01*
X77847Y-38594D01*
X77946Y-38358D01*
X77946Y-38102D01*
X77918Y-38035D01*
X78475Y-37479D01*
X78573Y-37479D01*
X78574Y-37480D01*
X78540Y-37514D01*
X78502Y-37605D01*
X78502Y-37704D01*
X78502Y-37954D01*
X78540Y-38046D01*
X78610Y-38116D01*
X78677Y-38143D01*
X78677Y-38370D01*
X78677Y-38371D01*
X78655Y-38394D01*
X78617Y-38485D01*
X78617Y-38584D01*
X78617Y-39034D01*
X78655Y-39126D01*
X78725Y-39196D01*
X78816Y-39234D01*
X78915Y-39234D01*
X79090Y-39234D01*
X79091Y-39236D01*
X79215Y-39361D01*
X79378Y-39428D01*
X79418Y-39429D01*
X79529Y-39318D01*
X79529Y-38872D01*
X79466Y-38872D01*
X79466Y-38648D01*
X79529Y-38648D01*
X79529Y-38202D01*
X79513Y-38186D01*
X79513Y-37862D01*
X79478Y-37862D01*
X79478Y-37738D01*
X79513Y-37738D01*
X79513Y-37675D01*
X79737Y-37675D01*
X79737Y-37738D01*
X80183Y-37738D01*
X80294Y-37627D01*
X80293Y-37587D01*
X80226Y-37424D01*
X80101Y-37300D01*
X80099Y-37299D01*
X80099Y-37276D01*
X80099Y-37026D01*
X80071Y-36958D01*
X80290Y-36740D01*
X80290Y-36739D01*
X80332Y-36675D01*
X80354Y-36643D01*
X80355Y-36642D01*
X80372Y-36553D01*
X80408Y-36518D01*
X80446Y-36427D01*
X80446Y-36328D01*
X80446Y-36172D01*
X80425Y-36122D01*
X80446Y-36073D01*
X80446Y-35974D01*
X80446Y-35818D01*
X80408Y-35726D01*
X80338Y-35656D01*
X80247Y-35618D01*
X80148Y-35618D01*
X79912Y-35618D01*
X79848Y-35644D01*
X79799Y-35634D01*
X79765Y-35634D01*
X79765Y-28893D01*
X79765Y-28407D01*
X79279Y-28407D01*
X79169Y-28517D01*
X79169Y-28648D01*
X79237Y-28811D01*
X79361Y-28936D01*
X79524Y-29003D01*
X79654Y-29004D01*
X79765Y-28893D01*
X79765Y-35634D01*
X79539Y-35634D01*
X79539Y-34203D01*
X79539Y-34104D01*
X79539Y-33632D01*
X79501Y-33540D01*
X79431Y-33470D01*
X79340Y-33432D01*
X79241Y-33432D01*
X79085Y-33432D01*
X79084Y-33432D01*
X78985Y-33432D01*
X78829Y-33432D01*
X78828Y-33432D01*
X78729Y-33432D01*
X78641Y-33432D01*
X78641Y-33430D01*
X78517Y-33305D01*
X78354Y-33238D01*
X78338Y-33237D01*
X78227Y-33348D01*
X78227Y-33469D01*
X78225Y-33470D01*
X78188Y-33507D01*
X78151Y-33470D01*
X78149Y-33469D01*
X78149Y-33348D01*
X78038Y-33237D01*
X78022Y-33238D01*
X77859Y-33305D01*
X77735Y-33430D01*
X77734Y-33432D01*
X77705Y-33432D01*
X77549Y-33432D01*
X77457Y-33470D01*
X77387Y-33540D01*
X77349Y-33631D01*
X77349Y-33730D01*
X77349Y-34202D01*
X77387Y-34294D01*
X77457Y-34364D01*
X77548Y-34402D01*
X77647Y-34402D01*
X77734Y-34402D01*
X77735Y-34404D01*
X77859Y-34529D01*
X78022Y-34596D01*
X78038Y-34597D01*
X78149Y-34486D01*
X78149Y-34364D01*
X78151Y-34364D01*
X78188Y-34327D01*
X78225Y-34364D01*
X78227Y-34364D01*
X78227Y-34486D01*
X78338Y-34597D01*
X78354Y-34596D01*
X78517Y-34529D01*
X78641Y-34404D01*
X78641Y-34402D01*
X78671Y-34402D01*
X78827Y-34402D01*
X78827Y-34401D01*
X78828Y-34402D01*
X78927Y-34402D01*
X79083Y-34402D01*
X79083Y-34401D01*
X79084Y-34402D01*
X79183Y-34402D01*
X79339Y-34402D01*
X79431Y-34364D01*
X79501Y-34294D01*
X79539Y-34203D01*
X79539Y-35634D01*
X78188Y-35634D01*
X76180Y-35634D01*
X76180Y-29364D01*
X76179Y-29363D01*
X76157Y-29250D01*
X76156Y-29249D01*
X76134Y-29217D01*
X76092Y-29153D01*
X76092Y-29152D01*
X75783Y-28844D01*
X75687Y-28779D01*
X75667Y-28775D01*
X75572Y-28756D01*
X75053Y-28756D01*
X75023Y-28726D01*
X74932Y-28688D01*
X74833Y-28688D01*
X74559Y-28688D01*
X74559Y-28132D01*
X74558Y-28131D01*
X74536Y-28018D01*
X74535Y-28017D01*
X74513Y-27985D01*
X74471Y-27921D01*
X74471Y-27920D01*
X74323Y-27773D01*
X79210Y-27773D01*
X79169Y-27872D01*
X79169Y-28003D01*
X79279Y-28113D01*
X79715Y-28113D01*
X79765Y-28113D01*
X80059Y-28113D01*
X80059Y-28407D01*
X80059Y-28457D01*
X80059Y-28893D01*
X80170Y-29004D01*
X80300Y-29003D01*
X80463Y-28936D01*
X80489Y-28908D01*
X80516Y-28935D01*
X80590Y-28860D01*
X80602Y-28936D01*
X80884Y-29003D01*
X81171Y-28957D01*
X81222Y-28936D01*
X81243Y-28799D01*
X80947Y-28503D01*
X80912Y-28468D01*
X80704Y-28260D01*
X80912Y-28052D01*
X81120Y-28260D01*
X81155Y-28295D01*
X81451Y-28591D01*
X81588Y-28570D01*
X81655Y-28288D01*
X81609Y-28001D01*
X81588Y-27950D01*
X81512Y-27938D01*
X81587Y-27864D01*
X81496Y-27773D01*
X81890Y-27773D01*
X81894Y-27772D01*
X82141Y-27772D01*
X82468Y-27836D01*
X82710Y-27998D01*
X82873Y-28243D01*
X82936Y-28558D01*
X82936Y-28569D01*
X82939Y-28583D01*
X82939Y-41539D01*
M02*
