G04 (created by PCBNEW-RS274X (2012-apr-16-27)-stable) date Sun 18 May 2014 11:24:35 BST*
G01*
G70*
G90*
%MOIN*%
G04 Gerber Fmt 3.4, Leading zero omitted, Abs format*
%FSLAX34Y34*%
G04 APERTURE LIST*
%ADD10C,0.006000*%
%ADD11C,0.015000*%
%ADD12C,0.005000*%
%ADD13C,0.003000*%
%ADD14C,0.012000*%
%ADD15C,0.009900*%
%ADD16C,0.004500*%
%ADD17R,0.047600X0.059400*%
%ADD18R,0.059400X0.047600*%
%ADD19R,0.067200X0.035700*%
%ADD20R,0.043600X0.067200*%
%ADD21R,0.080000X0.080000*%
%ADD22C,0.080000*%
%ADD23R,0.045000X0.065000*%
%ADD24R,0.065000X0.045000*%
%ADD25C,0.098700*%
%ADD26R,0.153900X0.153900*%
G04 APERTURE END LIST*
G54D10*
G54D11*
X43720Y-27490D02*
X43720Y-42710D01*
X62630Y-27490D02*
X43720Y-27490D01*
X62630Y-42710D02*
X62630Y-27490D01*
X43730Y-42710D02*
X62630Y-42710D01*
G54D12*
X48480Y-38690D02*
X48780Y-38890D01*
X47780Y-38690D02*
X48805Y-38690D01*
X48805Y-38690D02*
X48805Y-39290D01*
X48805Y-39290D02*
X47780Y-39290D01*
X47780Y-39290D02*
X47780Y-38690D01*
X47500Y-28590D02*
X47700Y-28290D01*
X47500Y-29290D02*
X47500Y-28265D01*
X47500Y-28265D02*
X48100Y-28265D01*
X48100Y-28265D02*
X48100Y-29290D01*
X48100Y-29290D02*
X47500Y-29290D01*
G54D11*
X59740Y-31749D02*
X59770Y-31747D01*
X59801Y-31743D01*
X59831Y-31736D01*
X59861Y-31727D01*
X59889Y-31715D01*
X59917Y-31701D01*
X59943Y-31684D01*
X59967Y-31666D01*
X59990Y-31645D01*
X60011Y-31622D01*
X60029Y-31598D01*
X60046Y-31571D01*
X60060Y-31544D01*
X60072Y-31516D01*
X60081Y-31486D01*
X60088Y-31456D01*
X60092Y-31425D01*
X60094Y-31395D01*
X59385Y-31395D02*
X59387Y-31425D01*
X59391Y-31456D01*
X59398Y-31486D01*
X59407Y-31516D01*
X59419Y-31545D01*
X59433Y-31572D01*
X59450Y-31598D01*
X59469Y-31623D01*
X59489Y-31646D01*
X59512Y-31666D01*
X59537Y-31685D01*
X59563Y-31702D01*
X59590Y-31716D01*
X59619Y-31728D01*
X59649Y-31737D01*
X59679Y-31744D01*
X59710Y-31748D01*
X59740Y-31750D01*
X60626Y-31356D02*
X58854Y-31356D01*
X58854Y-31356D02*
X58854Y-33364D01*
X58854Y-33364D02*
X60626Y-33364D01*
X60626Y-33364D02*
X60626Y-31356D01*
X49830Y-32171D02*
X49830Y-32190D01*
X49830Y-32211D01*
X49833Y-32231D01*
X49838Y-32251D01*
X49844Y-32271D01*
X49852Y-32290D01*
X49862Y-32308D01*
X49873Y-32326D01*
X49885Y-32342D01*
X49899Y-32357D01*
X49914Y-32371D01*
X49931Y-32383D01*
X49948Y-32394D01*
X49967Y-32404D01*
X49986Y-32412D01*
X50005Y-32418D01*
X50025Y-32422D01*
X50046Y-32425D01*
X50045Y-31973D02*
X50027Y-31974D01*
X50008Y-31977D01*
X49989Y-31981D01*
X49971Y-31987D01*
X49954Y-31994D01*
X49937Y-32003D01*
X49921Y-32013D01*
X49906Y-32024D01*
X49892Y-32037D01*
X49879Y-32051D01*
X49868Y-32066D01*
X49858Y-32082D01*
X49849Y-32099D01*
X49842Y-32116D01*
X49836Y-32134D01*
X49832Y-32153D01*
X49829Y-32172D01*
X49828Y-32190D01*
X50084Y-32977D02*
X50084Y-31403D01*
X50084Y-31403D02*
X48116Y-31403D01*
X48116Y-31403D02*
X48116Y-32977D01*
X48116Y-32977D02*
X50084Y-32977D01*
X50084Y-32977D02*
X50065Y-32958D01*
X55860Y-37880D02*
X55835Y-37882D01*
X55809Y-37885D01*
X55784Y-37891D01*
X55760Y-37898D01*
X55736Y-37908D01*
X55713Y-37920D01*
X55691Y-37934D01*
X55671Y-37950D01*
X55652Y-37967D01*
X55635Y-37986D01*
X55619Y-38006D01*
X55605Y-38028D01*
X55593Y-38051D01*
X55583Y-38075D01*
X55576Y-38099D01*
X55570Y-38124D01*
X55567Y-38150D01*
X55565Y-38175D01*
X56136Y-38156D02*
X56134Y-38132D01*
X56131Y-38109D01*
X56126Y-38085D01*
X56119Y-38062D01*
X56110Y-38040D01*
X56099Y-38019D01*
X56086Y-37998D01*
X56071Y-37979D01*
X56055Y-37961D01*
X56037Y-37945D01*
X56018Y-37930D01*
X55998Y-37917D01*
X55976Y-37906D01*
X55954Y-37897D01*
X55931Y-37890D01*
X55907Y-37885D01*
X55884Y-37882D01*
X55860Y-37880D01*
X55112Y-38195D02*
X56608Y-38195D01*
X56608Y-38195D02*
X56608Y-36305D01*
X56608Y-36305D02*
X55112Y-36305D01*
X55112Y-36305D02*
X55112Y-38195D01*
G54D10*
X58270Y-28800D02*
X58270Y-27800D01*
X58270Y-27800D02*
X60270Y-27800D01*
X60270Y-27800D02*
X60270Y-28800D01*
X60270Y-28800D02*
X58270Y-28800D01*
X44290Y-28800D02*
X44290Y-27800D01*
X44290Y-27800D02*
X46290Y-27800D01*
X46290Y-27800D02*
X46290Y-28800D01*
X46290Y-28800D02*
X44290Y-28800D01*
G54D12*
X49200Y-29800D02*
X50100Y-29800D01*
X50100Y-29800D02*
X50100Y-30300D01*
X50100Y-30300D02*
X49200Y-30300D01*
X49200Y-30300D02*
X49200Y-29800D01*
X48660Y-37080D02*
X47760Y-37080D01*
X47760Y-37080D02*
X47760Y-36580D01*
X47760Y-36580D02*
X48660Y-36580D01*
X48660Y-36580D02*
X48660Y-37080D01*
X49830Y-36850D02*
X50730Y-36850D01*
X50730Y-36850D02*
X50730Y-37350D01*
X50730Y-37350D02*
X49830Y-37350D01*
X49830Y-37350D02*
X49830Y-36850D01*
X49830Y-37740D02*
X50730Y-37740D01*
X50730Y-37740D02*
X50730Y-38240D01*
X50730Y-38240D02*
X49830Y-38240D01*
X49830Y-38240D02*
X49830Y-37740D01*
X51880Y-35630D02*
X50980Y-35630D01*
X50980Y-35630D02*
X50980Y-35130D01*
X50980Y-35130D02*
X51880Y-35130D01*
X51880Y-35130D02*
X51880Y-35630D01*
X51880Y-37350D02*
X50980Y-37350D01*
X50980Y-37350D02*
X50980Y-36850D01*
X50980Y-36850D02*
X51880Y-36850D01*
X51880Y-36850D02*
X51880Y-37350D01*
X58690Y-36450D02*
X57790Y-36450D01*
X57790Y-36450D02*
X57790Y-35950D01*
X57790Y-35950D02*
X58690Y-35950D01*
X58690Y-35950D02*
X58690Y-36450D01*
X58130Y-37330D02*
X58130Y-38230D01*
X58130Y-38230D02*
X57630Y-38230D01*
X57630Y-38230D02*
X57630Y-37330D01*
X57630Y-37330D02*
X58130Y-37330D01*
X57070Y-39310D02*
X56170Y-39310D01*
X56170Y-39310D02*
X56170Y-38810D01*
X56170Y-38810D02*
X57070Y-38810D01*
X57070Y-38810D02*
X57070Y-39310D01*
X55940Y-33970D02*
X55940Y-34870D01*
X55940Y-34870D02*
X55440Y-34870D01*
X55440Y-34870D02*
X55440Y-33970D01*
X55440Y-33970D02*
X55940Y-33970D01*
X57790Y-35220D02*
X58690Y-35220D01*
X58690Y-35220D02*
X58690Y-35720D01*
X58690Y-35720D02*
X57790Y-35720D01*
X57790Y-35720D02*
X57790Y-35220D01*
X49560Y-34420D02*
X48660Y-34420D01*
X48660Y-34420D02*
X48660Y-33920D01*
X48660Y-33920D02*
X49560Y-33920D01*
X49560Y-33920D02*
X49560Y-34420D01*
X49560Y-35210D02*
X48660Y-35210D01*
X48660Y-35210D02*
X48660Y-34710D01*
X48660Y-34710D02*
X49560Y-34710D01*
X49560Y-34710D02*
X49560Y-35210D01*
X47540Y-29690D02*
X47540Y-30590D01*
X47540Y-30590D02*
X47040Y-30590D01*
X47040Y-30590D02*
X47040Y-29690D01*
X47040Y-29690D02*
X47540Y-29690D01*
X48510Y-40020D02*
X48510Y-40920D01*
X48510Y-40920D02*
X48010Y-40920D01*
X48010Y-40920D02*
X48010Y-40020D01*
X48010Y-40020D02*
X48510Y-40020D01*
X48660Y-37920D02*
X47760Y-37920D01*
X47760Y-37920D02*
X47760Y-37420D01*
X47760Y-37420D02*
X48660Y-37420D01*
X48660Y-37420D02*
X48660Y-37920D01*
X54050Y-38260D02*
X53150Y-38260D01*
X53150Y-38260D02*
X53150Y-37760D01*
X53150Y-37760D02*
X54050Y-37760D01*
X54050Y-37760D02*
X54050Y-38260D01*
X51880Y-36430D02*
X50980Y-36430D01*
X50980Y-36430D02*
X50980Y-35930D01*
X50980Y-35930D02*
X51880Y-35930D01*
X51880Y-35930D02*
X51880Y-36430D01*
X50980Y-37740D02*
X51880Y-37740D01*
X51880Y-37740D02*
X51880Y-38240D01*
X51880Y-38240D02*
X50980Y-38240D01*
X50980Y-38240D02*
X50980Y-37740D01*
X52980Y-38240D02*
X52080Y-38240D01*
X52080Y-38240D02*
X52080Y-37740D01*
X52080Y-37740D02*
X52980Y-37740D01*
X52980Y-37740D02*
X52980Y-38240D01*
X57790Y-36650D02*
X58690Y-36650D01*
X58690Y-36650D02*
X58690Y-37150D01*
X58690Y-37150D02*
X57790Y-37150D01*
X57790Y-37150D02*
X57790Y-36650D01*
X58810Y-37330D02*
X58810Y-38230D01*
X58810Y-38230D02*
X58310Y-38230D01*
X58310Y-38230D02*
X58310Y-37330D01*
X58310Y-37330D02*
X58810Y-37330D01*
X55890Y-39310D02*
X54990Y-39310D01*
X54990Y-39310D02*
X54990Y-38810D01*
X54990Y-38810D02*
X55890Y-38810D01*
X55890Y-38810D02*
X55890Y-39310D01*
X57440Y-34570D02*
X57440Y-33670D01*
X57440Y-33670D02*
X57940Y-33670D01*
X57940Y-33670D02*
X57940Y-34570D01*
X57940Y-34570D02*
X57440Y-34570D01*
X55600Y-33260D02*
X56500Y-33260D01*
X56500Y-33260D02*
X56500Y-33760D01*
X56500Y-33760D02*
X55600Y-33760D01*
X55600Y-33760D02*
X55600Y-33260D01*
X56690Y-33980D02*
X56690Y-34880D01*
X56690Y-34880D02*
X56190Y-34880D01*
X56190Y-34880D02*
X56190Y-33980D01*
X56190Y-33980D02*
X56690Y-33980D01*
X58180Y-34570D02*
X58180Y-33670D01*
X58180Y-33670D02*
X58680Y-33670D01*
X58680Y-33670D02*
X58680Y-34570D01*
X58680Y-34570D02*
X58180Y-34570D01*
G54D10*
X51480Y-41600D02*
X51480Y-40600D01*
X51480Y-40600D02*
X54480Y-40600D01*
X54480Y-40600D02*
X54480Y-41600D01*
X54480Y-41600D02*
X51480Y-41600D01*
X52480Y-40600D02*
X52480Y-41600D01*
X44290Y-42380D02*
X44290Y-41380D01*
X44290Y-41380D02*
X46290Y-41380D01*
X46290Y-41380D02*
X46290Y-42380D01*
X46290Y-42380D02*
X44290Y-42380D01*
X59250Y-42390D02*
X59250Y-41390D01*
X59250Y-41390D02*
X61250Y-41390D01*
X61250Y-41390D02*
X61250Y-42390D01*
X61250Y-42390D02*
X59250Y-42390D01*
X58500Y-28030D02*
X58500Y-28570D01*
X59040Y-28570D01*
X59040Y-28030D01*
X58500Y-28030D01*
X60040Y-28300D02*
X60034Y-28352D01*
X60019Y-28402D01*
X59994Y-28449D01*
X59961Y-28490D01*
X59920Y-28523D01*
X59874Y-28548D01*
X59824Y-28564D01*
X59771Y-28569D01*
X59720Y-28565D01*
X59669Y-28550D01*
X59623Y-28525D01*
X59582Y-28492D01*
X59548Y-28452D01*
X59522Y-28406D01*
X59506Y-28356D01*
X59501Y-28303D01*
X59505Y-28252D01*
X59519Y-28201D01*
X59544Y-28154D01*
X59576Y-28113D01*
X59616Y-28079D01*
X59662Y-28053D01*
X59713Y-28037D01*
X59765Y-28031D01*
X59816Y-28035D01*
X59867Y-28049D01*
X59914Y-28073D01*
X59956Y-28105D01*
X59990Y-28145D01*
X60016Y-28191D01*
X60033Y-28241D01*
X60039Y-28293D01*
X60040Y-28300D01*
X44520Y-28030D02*
X44520Y-28570D01*
X45060Y-28570D01*
X45060Y-28030D01*
X44520Y-28030D01*
X46060Y-28300D02*
X46054Y-28352D01*
X46039Y-28402D01*
X46014Y-28449D01*
X45981Y-28490D01*
X45940Y-28523D01*
X45894Y-28548D01*
X45844Y-28564D01*
X45791Y-28569D01*
X45740Y-28565D01*
X45689Y-28550D01*
X45643Y-28525D01*
X45602Y-28492D01*
X45568Y-28452D01*
X45542Y-28406D01*
X45526Y-28356D01*
X45521Y-28303D01*
X45525Y-28252D01*
X45539Y-28201D01*
X45564Y-28154D01*
X45596Y-28113D01*
X45636Y-28079D01*
X45682Y-28053D01*
X45733Y-28037D01*
X45785Y-28031D01*
X45836Y-28035D01*
X45887Y-28049D01*
X45934Y-28073D01*
X45976Y-28105D01*
X46010Y-28145D01*
X46036Y-28191D01*
X46053Y-28241D01*
X46059Y-28293D01*
X46060Y-28300D01*
X45853Y-30440D02*
X45846Y-30510D01*
X45825Y-30578D01*
X45792Y-30640D01*
X45747Y-30695D01*
X45692Y-30740D01*
X45630Y-30774D01*
X45562Y-30795D01*
X45492Y-30802D01*
X45422Y-30796D01*
X45355Y-30776D01*
X45292Y-30743D01*
X45237Y-30699D01*
X45191Y-30645D01*
X45157Y-30583D01*
X45135Y-30515D01*
X45128Y-30445D01*
X45133Y-30375D01*
X45153Y-30307D01*
X45185Y-30244D01*
X45229Y-30188D01*
X45283Y-30142D01*
X45345Y-30108D01*
X45413Y-30086D01*
X45483Y-30078D01*
X45553Y-30083D01*
X45621Y-30102D01*
X45684Y-30134D01*
X45740Y-30178D01*
X45786Y-30231D01*
X45821Y-30293D01*
X45843Y-30360D01*
X45852Y-30430D01*
X45853Y-30440D01*
X52603Y-39380D02*
X52596Y-39450D01*
X52575Y-39518D01*
X52542Y-39580D01*
X52497Y-39635D01*
X52442Y-39680D01*
X52380Y-39714D01*
X52312Y-39735D01*
X52242Y-39742D01*
X52172Y-39736D01*
X52105Y-39716D01*
X52042Y-39683D01*
X51987Y-39639D01*
X51941Y-39585D01*
X51907Y-39523D01*
X51885Y-39455D01*
X51878Y-39385D01*
X51883Y-39315D01*
X51903Y-39247D01*
X51935Y-39184D01*
X51979Y-39128D01*
X52033Y-39082D01*
X52095Y-39048D01*
X52163Y-39026D01*
X52233Y-39018D01*
X52303Y-39023D01*
X52371Y-39042D01*
X52434Y-39074D01*
X52490Y-39118D01*
X52536Y-39171D01*
X52571Y-39233D01*
X52593Y-39300D01*
X52602Y-39370D01*
X52603Y-39380D01*
X55953Y-32470D02*
X55946Y-32540D01*
X55925Y-32608D01*
X55892Y-32670D01*
X55847Y-32725D01*
X55792Y-32770D01*
X55730Y-32804D01*
X55662Y-32825D01*
X55592Y-32832D01*
X55522Y-32826D01*
X55455Y-32806D01*
X55392Y-32773D01*
X55337Y-32729D01*
X55291Y-32675D01*
X55257Y-32613D01*
X55235Y-32545D01*
X55228Y-32475D01*
X55233Y-32405D01*
X55253Y-32337D01*
X55285Y-32274D01*
X55329Y-32218D01*
X55383Y-32172D01*
X55445Y-32138D01*
X55513Y-32116D01*
X55583Y-32108D01*
X55653Y-32113D01*
X55721Y-32132D01*
X55784Y-32164D01*
X55840Y-32208D01*
X55886Y-32261D01*
X55921Y-32323D01*
X55943Y-32390D01*
X55952Y-32460D01*
X55953Y-32470D01*
X51710Y-40830D02*
X51710Y-41370D01*
X52250Y-41370D01*
X52250Y-40830D01*
X51710Y-40830D01*
X53250Y-41100D02*
X53244Y-41152D01*
X53229Y-41202D01*
X53204Y-41249D01*
X53171Y-41290D01*
X53130Y-41323D01*
X53084Y-41348D01*
X53034Y-41364D01*
X52981Y-41369D01*
X52930Y-41365D01*
X52879Y-41350D01*
X52833Y-41325D01*
X52792Y-41292D01*
X52758Y-41252D01*
X52732Y-41206D01*
X52716Y-41156D01*
X52711Y-41103D01*
X52715Y-41052D01*
X52729Y-41001D01*
X52754Y-40954D01*
X52786Y-40913D01*
X52826Y-40879D01*
X52872Y-40853D01*
X52923Y-40837D01*
X52975Y-40831D01*
X53026Y-40835D01*
X53077Y-40849D01*
X53124Y-40873D01*
X53166Y-40905D01*
X53200Y-40945D01*
X53226Y-40991D01*
X53243Y-41041D01*
X53249Y-41093D01*
X53250Y-41100D01*
X54250Y-41100D02*
X54244Y-41152D01*
X54229Y-41202D01*
X54204Y-41249D01*
X54171Y-41290D01*
X54130Y-41323D01*
X54084Y-41348D01*
X54034Y-41364D01*
X53981Y-41369D01*
X53930Y-41365D01*
X53879Y-41350D01*
X53833Y-41325D01*
X53792Y-41292D01*
X53758Y-41252D01*
X53732Y-41206D01*
X53716Y-41156D01*
X53711Y-41103D01*
X53715Y-41052D01*
X53729Y-41001D01*
X53754Y-40954D01*
X53786Y-40913D01*
X53826Y-40879D01*
X53872Y-40853D01*
X53923Y-40837D01*
X53975Y-40831D01*
X54026Y-40835D01*
X54077Y-40849D01*
X54124Y-40873D01*
X54166Y-40905D01*
X54200Y-40945D01*
X54226Y-40991D01*
X54243Y-41041D01*
X54249Y-41093D01*
X54250Y-41100D01*
X44520Y-41610D02*
X44520Y-42150D01*
X45060Y-42150D01*
X45060Y-41610D01*
X44520Y-41610D01*
X46060Y-41880D02*
X46054Y-41932D01*
X46039Y-41982D01*
X46014Y-42029D01*
X45981Y-42070D01*
X45940Y-42103D01*
X45894Y-42128D01*
X45844Y-42144D01*
X45791Y-42149D01*
X45740Y-42145D01*
X45689Y-42130D01*
X45643Y-42105D01*
X45602Y-42072D01*
X45568Y-42032D01*
X45542Y-41986D01*
X45526Y-41936D01*
X45521Y-41883D01*
X45525Y-41832D01*
X45539Y-41781D01*
X45564Y-41734D01*
X45596Y-41693D01*
X45636Y-41659D01*
X45682Y-41633D01*
X45733Y-41617D01*
X45785Y-41611D01*
X45836Y-41615D01*
X45887Y-41629D01*
X45934Y-41653D01*
X45976Y-41685D01*
X46010Y-41725D01*
X46036Y-41771D01*
X46053Y-41821D01*
X46059Y-41873D01*
X46060Y-41880D01*
X59480Y-41620D02*
X59480Y-42160D01*
X60020Y-42160D01*
X60020Y-41620D01*
X59480Y-41620D01*
X61020Y-41890D02*
X61014Y-41942D01*
X60999Y-41992D01*
X60974Y-42039D01*
X60941Y-42080D01*
X60900Y-42113D01*
X60854Y-42138D01*
X60804Y-42154D01*
X60751Y-42159D01*
X60700Y-42155D01*
X60649Y-42140D01*
X60603Y-42115D01*
X60562Y-42082D01*
X60528Y-42042D01*
X60502Y-41996D01*
X60486Y-41946D01*
X60481Y-41893D01*
X60485Y-41842D01*
X60499Y-41791D01*
X60524Y-41744D01*
X60556Y-41703D01*
X60596Y-41669D01*
X60642Y-41643D01*
X60693Y-41627D01*
X60745Y-41621D01*
X60796Y-41625D01*
X60847Y-41639D01*
X60894Y-41663D01*
X60936Y-41695D01*
X60970Y-41735D01*
X60996Y-41781D01*
X61013Y-41831D01*
X61019Y-41883D01*
X61020Y-41890D01*
X59531Y-34321D02*
X59531Y-35599D01*
X60809Y-35599D01*
X60809Y-34321D01*
X59531Y-34321D01*
X45031Y-34321D02*
X45031Y-35599D01*
X46309Y-35599D01*
X46309Y-34321D01*
X45031Y-34321D01*
G54D13*
X47314Y-39258D02*
X47557Y-39258D01*
X47586Y-39243D01*
X47600Y-39229D01*
X47614Y-39200D01*
X47614Y-39143D01*
X47600Y-39115D01*
X47586Y-39100D01*
X47557Y-39086D01*
X47314Y-39086D01*
X47314Y-38972D02*
X47314Y-38786D01*
X47429Y-38886D01*
X47429Y-38844D01*
X47443Y-38815D01*
X47457Y-38801D01*
X47486Y-38786D01*
X47557Y-38786D01*
X47586Y-38801D01*
X47600Y-38815D01*
X47614Y-38844D01*
X47614Y-38929D01*
X47600Y-38958D01*
X47586Y-38972D01*
X47907Y-38872D02*
X48029Y-38872D01*
X47963Y-38947D01*
X47992Y-38947D01*
X48010Y-38957D01*
X48020Y-38966D01*
X48029Y-38985D01*
X48029Y-39032D01*
X48020Y-39050D01*
X48010Y-39060D01*
X47992Y-39069D01*
X47935Y-39069D01*
X47917Y-39060D01*
X47907Y-39050D01*
X48123Y-39069D02*
X48161Y-39069D01*
X48180Y-39060D01*
X48189Y-39050D01*
X48208Y-39022D01*
X48217Y-38985D01*
X48217Y-38910D01*
X48208Y-38891D01*
X48198Y-38882D01*
X48180Y-38872D01*
X48142Y-38872D01*
X48123Y-38882D01*
X48114Y-38891D01*
X48105Y-38910D01*
X48105Y-38957D01*
X48114Y-38975D01*
X48123Y-38985D01*
X48142Y-38994D01*
X48180Y-38994D01*
X48198Y-38985D01*
X48208Y-38975D01*
X48217Y-38957D01*
X48339Y-38872D02*
X48358Y-38872D01*
X48377Y-38882D01*
X48386Y-38891D01*
X48396Y-38910D01*
X48405Y-38947D01*
X48405Y-38994D01*
X48396Y-39032D01*
X48386Y-39050D01*
X48377Y-39060D01*
X48358Y-39069D01*
X48339Y-39069D01*
X48321Y-39060D01*
X48311Y-39050D01*
X48302Y-39032D01*
X48293Y-38994D01*
X48293Y-38947D01*
X48302Y-38910D01*
X48311Y-38891D01*
X48321Y-38882D01*
X48339Y-38872D01*
X48574Y-38938D02*
X48574Y-39069D01*
X48527Y-38863D02*
X48481Y-39004D01*
X48602Y-39004D01*
X47591Y-27811D02*
X47591Y-28054D01*
X47606Y-28083D01*
X47620Y-28097D01*
X47649Y-28111D01*
X47706Y-28111D01*
X47734Y-28097D01*
X47749Y-28083D01*
X47763Y-28054D01*
X47763Y-27811D01*
X48063Y-28111D02*
X47891Y-28111D01*
X47977Y-28111D02*
X47977Y-27811D01*
X47948Y-27854D01*
X47920Y-27883D01*
X47891Y-27897D01*
X47682Y-29163D02*
X47682Y-29041D01*
X47757Y-29107D01*
X47757Y-29078D01*
X47767Y-29060D01*
X47776Y-29050D01*
X47795Y-29041D01*
X47842Y-29041D01*
X47860Y-29050D01*
X47870Y-29060D01*
X47879Y-29078D01*
X47879Y-29135D01*
X47870Y-29153D01*
X47860Y-29163D01*
X47879Y-28947D02*
X47879Y-28909D01*
X47870Y-28890D01*
X47860Y-28881D01*
X47832Y-28862D01*
X47795Y-28853D01*
X47720Y-28853D01*
X47701Y-28862D01*
X47692Y-28872D01*
X47682Y-28890D01*
X47682Y-28928D01*
X47692Y-28947D01*
X47701Y-28956D01*
X47720Y-28965D01*
X47767Y-28965D01*
X47785Y-28956D01*
X47795Y-28947D01*
X47804Y-28928D01*
X47804Y-28890D01*
X47795Y-28872D01*
X47785Y-28862D01*
X47767Y-28853D01*
X47682Y-28731D02*
X47682Y-28712D01*
X47692Y-28693D01*
X47701Y-28684D01*
X47720Y-28674D01*
X47757Y-28665D01*
X47804Y-28665D01*
X47842Y-28674D01*
X47860Y-28684D01*
X47870Y-28693D01*
X47879Y-28712D01*
X47879Y-28731D01*
X47870Y-28749D01*
X47860Y-28759D01*
X47842Y-28768D01*
X47804Y-28777D01*
X47757Y-28777D01*
X47720Y-28768D01*
X47701Y-28759D01*
X47692Y-28749D01*
X47682Y-28731D01*
X47682Y-28496D02*
X47682Y-28533D01*
X47692Y-28552D01*
X47701Y-28561D01*
X47729Y-28580D01*
X47767Y-28589D01*
X47842Y-28589D01*
X47860Y-28580D01*
X47870Y-28571D01*
X47879Y-28552D01*
X47879Y-28514D01*
X47870Y-28496D01*
X47860Y-28486D01*
X47842Y-28477D01*
X47795Y-28477D01*
X47776Y-28486D01*
X47767Y-28496D01*
X47757Y-28514D01*
X47757Y-28552D01*
X47767Y-28571D01*
X47776Y-28580D01*
X47795Y-28589D01*
G54D14*
X59233Y-30553D02*
X59233Y-31039D01*
X59261Y-31096D01*
X59290Y-31124D01*
X59347Y-31153D01*
X59461Y-31153D01*
X59519Y-31124D01*
X59547Y-31096D01*
X59576Y-31039D01*
X59576Y-30553D01*
X60119Y-30553D02*
X60005Y-30553D01*
X59948Y-30581D01*
X59919Y-30610D01*
X59862Y-30696D01*
X59833Y-30810D01*
X59833Y-31039D01*
X59862Y-31096D01*
X59890Y-31124D01*
X59948Y-31153D01*
X60062Y-31153D01*
X60119Y-31124D01*
X60148Y-31096D01*
X60176Y-31039D01*
X60176Y-30896D01*
X60148Y-30839D01*
X60119Y-30810D01*
X60062Y-30781D01*
X59948Y-30781D01*
X59890Y-30810D01*
X59862Y-30839D01*
X59833Y-30896D01*
X59463Y-33240D02*
X59463Y-32869D01*
X59691Y-33069D01*
X59691Y-32983D01*
X59720Y-32926D01*
X59749Y-32897D01*
X59806Y-32869D01*
X59949Y-32869D01*
X60006Y-32897D01*
X60034Y-32926D01*
X60063Y-32983D01*
X60063Y-33155D01*
X60034Y-33212D01*
X60006Y-33240D01*
X59463Y-32669D02*
X59463Y-32298D01*
X59691Y-32498D01*
X59691Y-32412D01*
X59720Y-32355D01*
X59749Y-32326D01*
X59806Y-32298D01*
X59949Y-32298D01*
X60006Y-32326D01*
X60034Y-32355D01*
X60063Y-32412D01*
X60063Y-32584D01*
X60034Y-32641D01*
X60006Y-32669D01*
X60063Y-32013D02*
X60063Y-31898D01*
X60034Y-31841D01*
X60006Y-31813D01*
X59920Y-31755D01*
X59806Y-31727D01*
X59577Y-31727D01*
X59520Y-31755D01*
X59491Y-31784D01*
X59463Y-31841D01*
X59463Y-31955D01*
X59491Y-32013D01*
X59520Y-32041D01*
X59577Y-32070D01*
X59720Y-32070D01*
X59777Y-32041D01*
X59806Y-32013D01*
X59834Y-31955D01*
X59834Y-31841D01*
X59806Y-31784D01*
X59777Y-31755D01*
X59720Y-31727D01*
X50283Y-32617D02*
X50769Y-32617D01*
X50826Y-32589D01*
X50854Y-32560D01*
X50883Y-32503D01*
X50883Y-32389D01*
X50854Y-32331D01*
X50826Y-32303D01*
X50769Y-32274D01*
X50283Y-32274D01*
X50340Y-32017D02*
X50311Y-31988D01*
X50283Y-31931D01*
X50283Y-31788D01*
X50311Y-31731D01*
X50340Y-31702D01*
X50397Y-31674D01*
X50454Y-31674D01*
X50540Y-31702D01*
X50883Y-32045D01*
X50883Y-31674D01*
X48683Y-31893D02*
X48397Y-31893D01*
X48368Y-32179D01*
X48397Y-32150D01*
X48454Y-32121D01*
X48597Y-32121D01*
X48654Y-32150D01*
X48683Y-32179D01*
X48711Y-32236D01*
X48711Y-32379D01*
X48683Y-32436D01*
X48654Y-32464D01*
X48597Y-32493D01*
X48454Y-32493D01*
X48397Y-32464D01*
X48368Y-32436D01*
X49254Y-31893D02*
X48968Y-31893D01*
X48939Y-32179D01*
X48968Y-32150D01*
X49025Y-32121D01*
X49168Y-32121D01*
X49225Y-32150D01*
X49254Y-32179D01*
X49282Y-32236D01*
X49282Y-32379D01*
X49254Y-32436D01*
X49225Y-32464D01*
X49168Y-32493D01*
X49025Y-32493D01*
X48968Y-32464D01*
X48939Y-32436D01*
X49825Y-31893D02*
X49539Y-31893D01*
X49510Y-32179D01*
X49539Y-32150D01*
X49596Y-32121D01*
X49739Y-32121D01*
X49796Y-32150D01*
X49825Y-32179D01*
X49853Y-32236D01*
X49853Y-32379D01*
X49825Y-32436D01*
X49796Y-32464D01*
X49739Y-32493D01*
X49596Y-32493D01*
X49539Y-32464D01*
X49510Y-32436D01*
X55373Y-35493D02*
X55373Y-35979D01*
X55401Y-36036D01*
X55430Y-36064D01*
X55487Y-36093D01*
X55601Y-36093D01*
X55659Y-36064D01*
X55687Y-36036D01*
X55716Y-35979D01*
X55716Y-35493D01*
X56288Y-35493D02*
X56002Y-35493D01*
X55973Y-35779D01*
X56002Y-35750D01*
X56059Y-35721D01*
X56202Y-35721D01*
X56259Y-35750D01*
X56288Y-35779D01*
X56316Y-35836D01*
X56316Y-35979D01*
X56288Y-36036D01*
X56259Y-36064D01*
X56202Y-36093D01*
X56059Y-36093D01*
X56002Y-36064D01*
X55973Y-36036D01*
G54D15*
X56099Y-37876D02*
X56099Y-38063D01*
X55705Y-38063D01*
X56099Y-37744D02*
X55705Y-37744D01*
X55987Y-37613D01*
X55705Y-37482D01*
X56099Y-37482D01*
X55705Y-37332D02*
X55705Y-37088D01*
X55856Y-37219D01*
X55856Y-37163D01*
X55874Y-37125D01*
X55893Y-37107D01*
X55931Y-37088D01*
X56024Y-37088D01*
X56062Y-37107D01*
X56081Y-37125D01*
X56099Y-37163D01*
X56099Y-37275D01*
X56081Y-37313D01*
X56062Y-37332D01*
X55705Y-36732D02*
X55705Y-36919D01*
X55893Y-36938D01*
X55874Y-36919D01*
X55856Y-36882D01*
X55856Y-36788D01*
X55874Y-36750D01*
X55893Y-36732D01*
X55931Y-36713D01*
X56024Y-36713D01*
X56062Y-36732D01*
X56081Y-36750D01*
X56099Y-36788D01*
X56099Y-36882D01*
X56081Y-36919D01*
X56062Y-36938D01*
X55874Y-36488D02*
X55856Y-36525D01*
X55837Y-36544D01*
X55799Y-36563D01*
X55781Y-36563D01*
X55743Y-36544D01*
X55724Y-36525D01*
X55705Y-36488D01*
X55705Y-36413D01*
X55724Y-36375D01*
X55743Y-36357D01*
X55781Y-36338D01*
X55799Y-36338D01*
X55837Y-36357D01*
X55856Y-36375D01*
X55874Y-36413D01*
X55874Y-36488D01*
X55893Y-36525D01*
X55912Y-36544D01*
X55949Y-36563D01*
X56024Y-36563D01*
X56062Y-36544D01*
X56081Y-36525D01*
X56099Y-36488D01*
X56099Y-36413D01*
X56081Y-36375D01*
X56062Y-36357D01*
X56024Y-36338D01*
X55949Y-36338D01*
X55912Y-36357D01*
X55893Y-36375D01*
X55874Y-36413D01*
G54D10*
X57588Y-28451D02*
X57588Y-28151D01*
X57703Y-28151D01*
X57731Y-28166D01*
X57746Y-28180D01*
X57760Y-28209D01*
X57760Y-28251D01*
X57746Y-28280D01*
X57731Y-28294D01*
X57703Y-28309D01*
X57588Y-28309D01*
X58017Y-28251D02*
X58017Y-28451D01*
X57946Y-28137D02*
X57874Y-28351D01*
X58060Y-28351D01*
X58134Y-29501D02*
X58134Y-29201D01*
X58134Y-29344D02*
X58306Y-29344D01*
X58306Y-29501D02*
X58306Y-29201D01*
X58548Y-29344D02*
X58591Y-29359D01*
X58606Y-29373D01*
X58620Y-29401D01*
X58620Y-29444D01*
X58606Y-29473D01*
X58591Y-29487D01*
X58563Y-29501D01*
X58448Y-29501D01*
X58448Y-29201D01*
X58548Y-29201D01*
X58577Y-29216D01*
X58591Y-29230D01*
X58606Y-29259D01*
X58606Y-29287D01*
X58591Y-29316D01*
X58577Y-29330D01*
X58548Y-29344D01*
X58448Y-29344D01*
X58906Y-29501D02*
X58734Y-29501D01*
X58820Y-29501D02*
X58820Y-29201D01*
X58791Y-29244D01*
X58763Y-29273D01*
X58734Y-29287D01*
X59092Y-29201D02*
X59120Y-29201D01*
X59149Y-29216D01*
X59163Y-29230D01*
X59177Y-29259D01*
X59192Y-29316D01*
X59192Y-29387D01*
X59177Y-29444D01*
X59163Y-29473D01*
X59149Y-29487D01*
X59120Y-29501D01*
X59092Y-29501D01*
X59063Y-29487D01*
X59049Y-29473D01*
X59034Y-29444D01*
X59020Y-29387D01*
X59020Y-29316D01*
X59034Y-29259D01*
X59049Y-29230D01*
X59063Y-29216D01*
X59092Y-29201D01*
X59378Y-29201D02*
X59406Y-29201D01*
X59435Y-29216D01*
X59449Y-29230D01*
X59463Y-29259D01*
X59478Y-29316D01*
X59478Y-29387D01*
X59463Y-29444D01*
X59449Y-29473D01*
X59435Y-29487D01*
X59406Y-29501D01*
X59378Y-29501D01*
X59349Y-29487D01*
X59335Y-29473D01*
X59320Y-29444D01*
X59306Y-29387D01*
X59306Y-29316D01*
X59320Y-29259D01*
X59335Y-29230D01*
X59349Y-29216D01*
X59378Y-29201D01*
X59535Y-29530D02*
X59764Y-29530D01*
X59993Y-29216D02*
X59964Y-29201D01*
X59921Y-29201D01*
X59878Y-29216D01*
X59850Y-29244D01*
X59835Y-29273D01*
X59821Y-29330D01*
X59821Y-29373D01*
X59835Y-29430D01*
X59850Y-29459D01*
X59878Y-29487D01*
X59921Y-29501D01*
X59950Y-29501D01*
X59993Y-29487D01*
X60007Y-29473D01*
X60007Y-29373D01*
X59950Y-29373D01*
X60135Y-29501D02*
X60135Y-29201D01*
X60307Y-29501D01*
X60307Y-29201D01*
X60449Y-29501D02*
X60449Y-29201D01*
X60521Y-29201D01*
X60564Y-29216D01*
X60592Y-29244D01*
X60607Y-29273D01*
X60621Y-29330D01*
X60621Y-29373D01*
X60607Y-29430D01*
X60592Y-29459D01*
X60564Y-29487D01*
X60521Y-29501D01*
X60449Y-29501D01*
X46498Y-28441D02*
X46498Y-28141D01*
X46613Y-28141D01*
X46641Y-28156D01*
X46656Y-28170D01*
X46670Y-28199D01*
X46670Y-28241D01*
X46656Y-28270D01*
X46641Y-28284D01*
X46613Y-28299D01*
X46498Y-28299D01*
X46941Y-28141D02*
X46798Y-28141D01*
X46784Y-28284D01*
X46798Y-28270D01*
X46827Y-28256D01*
X46898Y-28256D01*
X46927Y-28270D01*
X46941Y-28284D01*
X46956Y-28313D01*
X46956Y-28384D01*
X46941Y-28413D01*
X46927Y-28427D01*
X46898Y-28441D01*
X46827Y-28441D01*
X46798Y-28427D01*
X46784Y-28413D01*
X44132Y-29201D02*
X44132Y-28901D01*
X44132Y-29044D02*
X44304Y-29044D01*
X44304Y-29201D02*
X44304Y-28901D01*
X44546Y-29044D02*
X44589Y-29059D01*
X44604Y-29073D01*
X44618Y-29101D01*
X44618Y-29144D01*
X44604Y-29173D01*
X44589Y-29187D01*
X44561Y-29201D01*
X44446Y-29201D01*
X44446Y-28901D01*
X44546Y-28901D01*
X44575Y-28916D01*
X44589Y-28930D01*
X44604Y-28959D01*
X44604Y-28987D01*
X44589Y-29016D01*
X44575Y-29030D01*
X44546Y-29044D01*
X44446Y-29044D01*
X44904Y-29201D02*
X44732Y-29201D01*
X44818Y-29201D02*
X44818Y-28901D01*
X44789Y-28944D01*
X44761Y-28973D01*
X44732Y-28987D01*
X45090Y-28901D02*
X45118Y-28901D01*
X45147Y-28916D01*
X45161Y-28930D01*
X45175Y-28959D01*
X45190Y-29016D01*
X45190Y-29087D01*
X45175Y-29144D01*
X45161Y-29173D01*
X45147Y-29187D01*
X45118Y-29201D01*
X45090Y-29201D01*
X45061Y-29187D01*
X45047Y-29173D01*
X45032Y-29144D01*
X45018Y-29087D01*
X45018Y-29016D01*
X45032Y-28959D01*
X45047Y-28930D01*
X45061Y-28916D01*
X45090Y-28901D01*
X45376Y-28901D02*
X45404Y-28901D01*
X45433Y-28916D01*
X45447Y-28930D01*
X45461Y-28959D01*
X45476Y-29016D01*
X45476Y-29087D01*
X45461Y-29144D01*
X45447Y-29173D01*
X45433Y-29187D01*
X45404Y-29201D01*
X45376Y-29201D01*
X45347Y-29187D01*
X45333Y-29173D01*
X45318Y-29144D01*
X45304Y-29087D01*
X45304Y-29016D01*
X45318Y-28959D01*
X45333Y-28930D01*
X45347Y-28916D01*
X45376Y-28901D01*
X45533Y-29230D02*
X45762Y-29230D01*
X45791Y-28901D02*
X45891Y-29201D01*
X45991Y-28901D01*
X46262Y-29173D02*
X46248Y-29187D01*
X46205Y-29201D01*
X46176Y-29201D01*
X46133Y-29187D01*
X46105Y-29159D01*
X46090Y-29130D01*
X46076Y-29073D01*
X46076Y-29030D01*
X46090Y-28973D01*
X46105Y-28944D01*
X46133Y-28916D01*
X46176Y-28901D01*
X46205Y-28901D01*
X46248Y-28916D01*
X46262Y-28930D01*
X46562Y-29173D02*
X46548Y-29187D01*
X46505Y-29201D01*
X46476Y-29201D01*
X46433Y-29187D01*
X46405Y-29159D01*
X46390Y-29130D01*
X46376Y-29073D01*
X46376Y-29030D01*
X46390Y-28973D01*
X46405Y-28944D01*
X46433Y-28916D01*
X46476Y-28901D01*
X46505Y-28901D01*
X46548Y-28916D01*
X46562Y-28930D01*
G54D16*
X49621Y-29702D02*
X49612Y-29711D01*
X49586Y-29721D01*
X49569Y-29721D01*
X49544Y-29711D01*
X49526Y-29692D01*
X49518Y-29673D01*
X49509Y-29635D01*
X49509Y-29607D01*
X49518Y-29569D01*
X49526Y-29550D01*
X49544Y-29530D01*
X49569Y-29521D01*
X49586Y-29521D01*
X49612Y-29530D01*
X49621Y-29540D01*
X49792Y-29721D02*
X49689Y-29721D01*
X49741Y-29721D02*
X49741Y-29521D01*
X49724Y-29550D01*
X49706Y-29569D01*
X49689Y-29578D01*
X48201Y-37312D02*
X48192Y-37321D01*
X48166Y-37331D01*
X48149Y-37331D01*
X48124Y-37321D01*
X48106Y-37302D01*
X48098Y-37283D01*
X48089Y-37245D01*
X48089Y-37217D01*
X48098Y-37179D01*
X48106Y-37160D01*
X48124Y-37140D01*
X48149Y-37131D01*
X48166Y-37131D01*
X48192Y-37140D01*
X48201Y-37150D01*
X48269Y-37150D02*
X48278Y-37140D01*
X48295Y-37131D01*
X48338Y-37131D01*
X48355Y-37140D01*
X48364Y-37150D01*
X48372Y-37169D01*
X48372Y-37188D01*
X48364Y-37217D01*
X48261Y-37331D01*
X48372Y-37331D01*
X50231Y-36762D02*
X50222Y-36771D01*
X50196Y-36781D01*
X50179Y-36781D01*
X50154Y-36771D01*
X50136Y-36752D01*
X50128Y-36733D01*
X50119Y-36695D01*
X50119Y-36667D01*
X50128Y-36629D01*
X50136Y-36610D01*
X50154Y-36590D01*
X50179Y-36581D01*
X50196Y-36581D01*
X50222Y-36590D01*
X50231Y-36600D01*
X50291Y-36581D02*
X50402Y-36581D01*
X50342Y-36657D01*
X50368Y-36657D01*
X50385Y-36667D01*
X50394Y-36676D01*
X50402Y-36695D01*
X50402Y-36743D01*
X50394Y-36762D01*
X50385Y-36771D01*
X50368Y-36781D01*
X50316Y-36781D01*
X50299Y-36771D01*
X50291Y-36762D01*
X50251Y-37652D02*
X50242Y-37661D01*
X50216Y-37671D01*
X50199Y-37671D01*
X50174Y-37661D01*
X50156Y-37642D01*
X50148Y-37623D01*
X50139Y-37585D01*
X50139Y-37557D01*
X50148Y-37519D01*
X50156Y-37500D01*
X50174Y-37480D01*
X50199Y-37471D01*
X50216Y-37471D01*
X50242Y-37480D01*
X50251Y-37490D01*
X50405Y-37538D02*
X50405Y-37671D01*
X50362Y-37461D02*
X50319Y-37604D01*
X50431Y-37604D01*
X52142Y-35429D02*
X52151Y-35438D01*
X52161Y-35464D01*
X52161Y-35481D01*
X52151Y-35506D01*
X52132Y-35524D01*
X52113Y-35532D01*
X52075Y-35541D01*
X52047Y-35541D01*
X52009Y-35532D01*
X51990Y-35524D01*
X51970Y-35506D01*
X51961Y-35481D01*
X51961Y-35464D01*
X51970Y-35438D01*
X51980Y-35429D01*
X51961Y-35266D02*
X51961Y-35352D01*
X52056Y-35361D01*
X52047Y-35352D01*
X52037Y-35335D01*
X52037Y-35292D01*
X52047Y-35275D01*
X52056Y-35266D01*
X52075Y-35258D01*
X52123Y-35258D01*
X52142Y-35266D01*
X52151Y-35275D01*
X52161Y-35292D01*
X52161Y-35335D01*
X52151Y-35352D01*
X52142Y-35361D01*
X52162Y-37139D02*
X52171Y-37148D01*
X52181Y-37174D01*
X52181Y-37191D01*
X52171Y-37216D01*
X52152Y-37234D01*
X52133Y-37242D01*
X52095Y-37251D01*
X52067Y-37251D01*
X52029Y-37242D01*
X52010Y-37234D01*
X51990Y-37216D01*
X51981Y-37191D01*
X51981Y-37174D01*
X51990Y-37148D01*
X52000Y-37139D01*
X51981Y-36985D02*
X51981Y-37019D01*
X51990Y-37036D01*
X52000Y-37045D01*
X52029Y-37062D01*
X52067Y-37071D01*
X52143Y-37071D01*
X52162Y-37062D01*
X52171Y-37054D01*
X52181Y-37036D01*
X52181Y-37002D01*
X52171Y-36985D01*
X52162Y-36976D01*
X52143Y-36968D01*
X52095Y-36968D01*
X52076Y-36976D01*
X52067Y-36985D01*
X52057Y-37002D01*
X52057Y-37036D01*
X52067Y-37054D01*
X52076Y-37062D01*
X52095Y-37071D01*
X58952Y-36259D02*
X58961Y-36268D01*
X58971Y-36294D01*
X58971Y-36311D01*
X58961Y-36336D01*
X58942Y-36354D01*
X58923Y-36362D01*
X58885Y-36371D01*
X58857Y-36371D01*
X58819Y-36362D01*
X58800Y-36354D01*
X58780Y-36336D01*
X58771Y-36311D01*
X58771Y-36294D01*
X58780Y-36268D01*
X58790Y-36259D01*
X58771Y-36199D02*
X58771Y-36079D01*
X58971Y-36156D01*
X57992Y-38529D02*
X58001Y-38538D01*
X58011Y-38564D01*
X58011Y-38581D01*
X58001Y-38606D01*
X57982Y-38624D01*
X57963Y-38632D01*
X57925Y-38641D01*
X57897Y-38641D01*
X57859Y-38632D01*
X57840Y-38624D01*
X57820Y-38606D01*
X57811Y-38581D01*
X57811Y-38564D01*
X57820Y-38538D01*
X57830Y-38529D01*
X57897Y-38426D02*
X57887Y-38444D01*
X57878Y-38452D01*
X57859Y-38461D01*
X57849Y-38461D01*
X57830Y-38452D01*
X57820Y-38444D01*
X57811Y-38426D01*
X57811Y-38392D01*
X57820Y-38375D01*
X57830Y-38366D01*
X57849Y-38358D01*
X57859Y-38358D01*
X57878Y-38366D01*
X57887Y-38375D01*
X57897Y-38392D01*
X57897Y-38426D01*
X57906Y-38444D01*
X57916Y-38452D01*
X57935Y-38461D01*
X57973Y-38461D01*
X57992Y-38452D01*
X58001Y-38444D01*
X58011Y-38426D01*
X58011Y-38392D01*
X58001Y-38375D01*
X57992Y-38366D01*
X57973Y-38358D01*
X57935Y-38358D01*
X57916Y-38366D01*
X57906Y-38375D01*
X57897Y-38392D01*
X56571Y-39552D02*
X56562Y-39561D01*
X56536Y-39571D01*
X56519Y-39571D01*
X56494Y-39561D01*
X56476Y-39542D01*
X56468Y-39523D01*
X56459Y-39485D01*
X56459Y-39457D01*
X56468Y-39419D01*
X56476Y-39400D01*
X56494Y-39380D01*
X56519Y-39371D01*
X56536Y-39371D01*
X56562Y-39380D01*
X56571Y-39390D01*
X56656Y-39571D02*
X56691Y-39571D01*
X56708Y-39561D01*
X56716Y-39552D01*
X56734Y-39523D01*
X56742Y-39485D01*
X56742Y-39409D01*
X56734Y-39390D01*
X56725Y-39380D01*
X56708Y-39371D01*
X56674Y-39371D01*
X56656Y-39380D01*
X56648Y-39390D01*
X56639Y-39409D01*
X56639Y-39457D01*
X56648Y-39476D01*
X56656Y-39485D01*
X56674Y-39495D01*
X56708Y-39495D01*
X56725Y-39485D01*
X56734Y-39476D01*
X56742Y-39457D01*
X55625Y-35182D02*
X55616Y-35191D01*
X55590Y-35201D01*
X55573Y-35201D01*
X55548Y-35191D01*
X55530Y-35172D01*
X55522Y-35153D01*
X55513Y-35115D01*
X55513Y-35087D01*
X55522Y-35049D01*
X55530Y-35030D01*
X55548Y-35010D01*
X55573Y-35001D01*
X55590Y-35001D01*
X55616Y-35010D01*
X55625Y-35020D01*
X55796Y-35201D02*
X55693Y-35201D01*
X55745Y-35201D02*
X55745Y-35001D01*
X55728Y-35030D01*
X55710Y-35049D01*
X55693Y-35058D01*
X55907Y-35001D02*
X55924Y-35001D01*
X55941Y-35010D01*
X55950Y-35020D01*
X55959Y-35039D01*
X55967Y-35077D01*
X55967Y-35125D01*
X55959Y-35163D01*
X55950Y-35182D01*
X55941Y-35191D01*
X55924Y-35201D01*
X55907Y-35201D01*
X55890Y-35191D01*
X55881Y-35182D01*
X55873Y-35163D01*
X55864Y-35125D01*
X55864Y-35077D01*
X55873Y-35039D01*
X55881Y-35020D01*
X55890Y-35010D01*
X55907Y-35001D01*
X58982Y-35585D02*
X58991Y-35594D01*
X59001Y-35620D01*
X59001Y-35637D01*
X58991Y-35662D01*
X58972Y-35680D01*
X58953Y-35688D01*
X58915Y-35697D01*
X58887Y-35697D01*
X58849Y-35688D01*
X58830Y-35680D01*
X58810Y-35662D01*
X58801Y-35637D01*
X58801Y-35620D01*
X58810Y-35594D01*
X58820Y-35585D01*
X59001Y-35414D02*
X59001Y-35517D01*
X59001Y-35465D02*
X58801Y-35465D01*
X58830Y-35482D01*
X58849Y-35500D01*
X58858Y-35517D01*
X59001Y-35243D02*
X59001Y-35346D01*
X59001Y-35294D02*
X58801Y-35294D01*
X58830Y-35311D01*
X58849Y-35329D01*
X58858Y-35346D01*
X49861Y-34179D02*
X49766Y-34239D01*
X49861Y-34282D02*
X49661Y-34282D01*
X49661Y-34214D01*
X49670Y-34196D01*
X49680Y-34188D01*
X49699Y-34179D01*
X49728Y-34179D01*
X49747Y-34188D01*
X49756Y-34196D01*
X49766Y-34214D01*
X49766Y-34282D01*
X49861Y-34008D02*
X49861Y-34111D01*
X49861Y-34059D02*
X49661Y-34059D01*
X49690Y-34076D01*
X49709Y-34094D01*
X49718Y-34111D01*
X49891Y-34969D02*
X49796Y-35029D01*
X49891Y-35072D02*
X49691Y-35072D01*
X49691Y-35004D01*
X49700Y-34986D01*
X49710Y-34978D01*
X49729Y-34969D01*
X49758Y-34969D01*
X49777Y-34978D01*
X49786Y-34986D01*
X49796Y-35004D01*
X49796Y-35072D01*
X49710Y-34901D02*
X49700Y-34892D01*
X49691Y-34875D01*
X49691Y-34832D01*
X49700Y-34815D01*
X49710Y-34806D01*
X49729Y-34798D01*
X49748Y-34798D01*
X49777Y-34806D01*
X49891Y-34909D01*
X49891Y-34798D01*
X46971Y-30139D02*
X46876Y-30199D01*
X46971Y-30242D02*
X46771Y-30242D01*
X46771Y-30174D01*
X46780Y-30156D01*
X46790Y-30148D01*
X46809Y-30139D01*
X46838Y-30139D01*
X46857Y-30148D01*
X46866Y-30156D01*
X46876Y-30174D01*
X46876Y-30242D01*
X46771Y-30079D02*
X46771Y-29968D01*
X46847Y-30028D01*
X46847Y-30002D01*
X46857Y-29985D01*
X46866Y-29976D01*
X46885Y-29968D01*
X46933Y-29968D01*
X46952Y-29976D01*
X46961Y-29985D01*
X46971Y-30002D01*
X46971Y-30054D01*
X46961Y-30071D01*
X46952Y-30079D01*
X47901Y-40459D02*
X47806Y-40519D01*
X47901Y-40562D02*
X47701Y-40562D01*
X47701Y-40494D01*
X47710Y-40476D01*
X47720Y-40468D01*
X47739Y-40459D01*
X47768Y-40459D01*
X47787Y-40468D01*
X47796Y-40476D01*
X47806Y-40494D01*
X47806Y-40562D01*
X47768Y-40305D02*
X47901Y-40305D01*
X47691Y-40348D02*
X47834Y-40391D01*
X47834Y-40279D01*
X48181Y-38221D02*
X48121Y-38126D01*
X48078Y-38221D02*
X48078Y-38021D01*
X48146Y-38021D01*
X48164Y-38030D01*
X48172Y-38040D01*
X48181Y-38059D01*
X48181Y-38088D01*
X48172Y-38107D01*
X48164Y-38116D01*
X48146Y-38126D01*
X48078Y-38126D01*
X48344Y-38021D02*
X48258Y-38021D01*
X48249Y-38116D01*
X48258Y-38107D01*
X48275Y-38097D01*
X48318Y-38097D01*
X48335Y-38107D01*
X48344Y-38116D01*
X48352Y-38135D01*
X48352Y-38183D01*
X48344Y-38202D01*
X48335Y-38211D01*
X48318Y-38221D01*
X48275Y-38221D01*
X48258Y-38211D01*
X48249Y-38202D01*
X53561Y-37671D02*
X53501Y-37576D01*
X53458Y-37671D02*
X53458Y-37471D01*
X53526Y-37471D01*
X53544Y-37480D01*
X53552Y-37490D01*
X53561Y-37509D01*
X53561Y-37538D01*
X53552Y-37557D01*
X53544Y-37566D01*
X53526Y-37576D01*
X53458Y-37576D01*
X53715Y-37471D02*
X53681Y-37471D01*
X53664Y-37480D01*
X53655Y-37490D01*
X53638Y-37519D01*
X53629Y-37557D01*
X53629Y-37633D01*
X53638Y-37652D01*
X53646Y-37661D01*
X53664Y-37671D01*
X53698Y-37671D01*
X53715Y-37661D01*
X53724Y-37652D01*
X53732Y-37633D01*
X53732Y-37585D01*
X53724Y-37566D01*
X53715Y-37557D01*
X53698Y-37547D01*
X53664Y-37547D01*
X53646Y-37557D01*
X53638Y-37566D01*
X53629Y-37585D01*
X52161Y-36209D02*
X52066Y-36269D01*
X52161Y-36312D02*
X51961Y-36312D01*
X51961Y-36244D01*
X51970Y-36226D01*
X51980Y-36218D01*
X51999Y-36209D01*
X52028Y-36209D01*
X52047Y-36218D01*
X52056Y-36226D01*
X52066Y-36244D01*
X52066Y-36312D01*
X51961Y-36149D02*
X51961Y-36029D01*
X52161Y-36106D01*
X51391Y-37661D02*
X51331Y-37566D01*
X51288Y-37661D02*
X51288Y-37461D01*
X51356Y-37461D01*
X51374Y-37470D01*
X51382Y-37480D01*
X51391Y-37499D01*
X51391Y-37528D01*
X51382Y-37547D01*
X51374Y-37556D01*
X51356Y-37566D01*
X51288Y-37566D01*
X51494Y-37547D02*
X51476Y-37537D01*
X51468Y-37528D01*
X51459Y-37509D01*
X51459Y-37499D01*
X51468Y-37480D01*
X51476Y-37470D01*
X51494Y-37461D01*
X51528Y-37461D01*
X51545Y-37470D01*
X51554Y-37480D01*
X51562Y-37499D01*
X51562Y-37509D01*
X51554Y-37528D01*
X51545Y-37537D01*
X51528Y-37547D01*
X51494Y-37547D01*
X51476Y-37556D01*
X51468Y-37566D01*
X51459Y-37585D01*
X51459Y-37623D01*
X51468Y-37642D01*
X51476Y-37651D01*
X51494Y-37661D01*
X51528Y-37661D01*
X51545Y-37651D01*
X51554Y-37642D01*
X51562Y-37623D01*
X51562Y-37585D01*
X51554Y-37566D01*
X51545Y-37556D01*
X51528Y-37547D01*
X52531Y-37641D02*
X52471Y-37546D01*
X52428Y-37641D02*
X52428Y-37441D01*
X52496Y-37441D01*
X52514Y-37450D01*
X52522Y-37460D01*
X52531Y-37479D01*
X52531Y-37508D01*
X52522Y-37527D01*
X52514Y-37536D01*
X52496Y-37546D01*
X52428Y-37546D01*
X52616Y-37641D02*
X52651Y-37641D01*
X52668Y-37631D01*
X52676Y-37622D01*
X52694Y-37593D01*
X52702Y-37555D01*
X52702Y-37479D01*
X52694Y-37460D01*
X52685Y-37450D01*
X52668Y-37441D01*
X52634Y-37441D01*
X52616Y-37450D01*
X52608Y-37460D01*
X52599Y-37479D01*
X52599Y-37527D01*
X52608Y-37546D01*
X52616Y-37555D01*
X52634Y-37565D01*
X52668Y-37565D01*
X52685Y-37555D01*
X52694Y-37546D01*
X52702Y-37527D01*
X58971Y-37005D02*
X58876Y-37065D01*
X58971Y-37108D02*
X58771Y-37108D01*
X58771Y-37040D01*
X58780Y-37022D01*
X58790Y-37014D01*
X58809Y-37005D01*
X58838Y-37005D01*
X58857Y-37014D01*
X58866Y-37022D01*
X58876Y-37040D01*
X58876Y-37108D01*
X58971Y-36834D02*
X58971Y-36937D01*
X58971Y-36885D02*
X58771Y-36885D01*
X58800Y-36902D01*
X58819Y-36920D01*
X58828Y-36937D01*
X58771Y-36723D02*
X58771Y-36706D01*
X58780Y-36689D01*
X58790Y-36680D01*
X58809Y-36671D01*
X58847Y-36663D01*
X58895Y-36663D01*
X58933Y-36671D01*
X58952Y-36680D01*
X58961Y-36689D01*
X58971Y-36706D01*
X58971Y-36723D01*
X58961Y-36740D01*
X58952Y-36749D01*
X58933Y-36757D01*
X58895Y-36766D01*
X58847Y-36766D01*
X58809Y-36757D01*
X58790Y-36749D01*
X58780Y-36740D01*
X58771Y-36723D01*
X58671Y-38655D02*
X58576Y-38715D01*
X58671Y-38758D02*
X58471Y-38758D01*
X58471Y-38690D01*
X58480Y-38672D01*
X58490Y-38664D01*
X58509Y-38655D01*
X58538Y-38655D01*
X58557Y-38664D01*
X58566Y-38672D01*
X58576Y-38690D01*
X58576Y-38758D01*
X58671Y-38484D02*
X58671Y-38587D01*
X58671Y-38535D02*
X58471Y-38535D01*
X58500Y-38552D01*
X58519Y-38570D01*
X58528Y-38587D01*
X58671Y-38313D02*
X58671Y-38416D01*
X58671Y-38364D02*
X58471Y-38364D01*
X58500Y-38381D01*
X58519Y-38399D01*
X58528Y-38416D01*
X55325Y-39571D02*
X55265Y-39476D01*
X55222Y-39571D02*
X55222Y-39371D01*
X55290Y-39371D01*
X55308Y-39380D01*
X55316Y-39390D01*
X55325Y-39409D01*
X55325Y-39438D01*
X55316Y-39457D01*
X55308Y-39466D01*
X55290Y-39476D01*
X55222Y-39476D01*
X55496Y-39571D02*
X55393Y-39571D01*
X55445Y-39571D02*
X55445Y-39371D01*
X55428Y-39400D01*
X55410Y-39419D01*
X55393Y-39428D01*
X55564Y-39390D02*
X55573Y-39380D01*
X55590Y-39371D01*
X55633Y-39371D01*
X55650Y-39380D01*
X55659Y-39390D01*
X55667Y-39409D01*
X55667Y-39428D01*
X55659Y-39457D01*
X55556Y-39571D01*
X55667Y-39571D01*
X57585Y-34861D02*
X57525Y-34766D01*
X57482Y-34861D02*
X57482Y-34661D01*
X57550Y-34661D01*
X57568Y-34670D01*
X57576Y-34680D01*
X57585Y-34699D01*
X57585Y-34728D01*
X57576Y-34747D01*
X57568Y-34756D01*
X57550Y-34766D01*
X57482Y-34766D01*
X57756Y-34861D02*
X57653Y-34861D01*
X57705Y-34861D02*
X57705Y-34661D01*
X57688Y-34690D01*
X57670Y-34709D01*
X57653Y-34718D01*
X57816Y-34661D02*
X57927Y-34661D01*
X57867Y-34737D01*
X57893Y-34737D01*
X57910Y-34747D01*
X57919Y-34756D01*
X57927Y-34775D01*
X57927Y-34823D01*
X57919Y-34842D01*
X57910Y-34851D01*
X57893Y-34861D01*
X57841Y-34861D01*
X57824Y-34851D01*
X57816Y-34842D01*
X55905Y-33151D02*
X55845Y-33056D01*
X55802Y-33151D02*
X55802Y-32951D01*
X55870Y-32951D01*
X55888Y-32960D01*
X55896Y-32970D01*
X55905Y-32989D01*
X55905Y-33018D01*
X55896Y-33037D01*
X55888Y-33046D01*
X55870Y-33056D01*
X55802Y-33056D01*
X56076Y-33151D02*
X55973Y-33151D01*
X56025Y-33151D02*
X56025Y-32951D01*
X56008Y-32980D01*
X55990Y-32999D01*
X55973Y-33008D01*
X56230Y-33018D02*
X56230Y-33151D01*
X56187Y-32941D02*
X56144Y-33084D01*
X56256Y-33084D01*
X56315Y-35211D02*
X56255Y-35116D01*
X56212Y-35211D02*
X56212Y-35011D01*
X56280Y-35011D01*
X56298Y-35020D01*
X56306Y-35030D01*
X56315Y-35049D01*
X56315Y-35078D01*
X56306Y-35097D01*
X56298Y-35106D01*
X56280Y-35116D01*
X56212Y-35116D01*
X56486Y-35211D02*
X56383Y-35211D01*
X56435Y-35211D02*
X56435Y-35011D01*
X56418Y-35040D01*
X56400Y-35059D01*
X56383Y-35068D01*
X56649Y-35011D02*
X56563Y-35011D01*
X56554Y-35106D01*
X56563Y-35097D01*
X56580Y-35087D01*
X56623Y-35087D01*
X56640Y-35097D01*
X56649Y-35106D01*
X56657Y-35125D01*
X56657Y-35173D01*
X56649Y-35192D01*
X56640Y-35201D01*
X56623Y-35211D01*
X56580Y-35211D01*
X56563Y-35201D01*
X56554Y-35192D01*
X58325Y-34881D02*
X58265Y-34786D01*
X58222Y-34881D02*
X58222Y-34681D01*
X58290Y-34681D01*
X58308Y-34690D01*
X58316Y-34700D01*
X58325Y-34719D01*
X58325Y-34748D01*
X58316Y-34767D01*
X58308Y-34776D01*
X58290Y-34786D01*
X58222Y-34786D01*
X58496Y-34881D02*
X58393Y-34881D01*
X58445Y-34881D02*
X58445Y-34681D01*
X58428Y-34710D01*
X58410Y-34729D01*
X58393Y-34738D01*
X58650Y-34681D02*
X58616Y-34681D01*
X58599Y-34690D01*
X58590Y-34700D01*
X58573Y-34729D01*
X58564Y-34767D01*
X58564Y-34843D01*
X58573Y-34862D01*
X58581Y-34871D01*
X58599Y-34881D01*
X58633Y-34881D01*
X58650Y-34871D01*
X58659Y-34862D01*
X58667Y-34843D01*
X58667Y-34795D01*
X58659Y-34776D01*
X58650Y-34767D01*
X58633Y-34757D01*
X58599Y-34757D01*
X58581Y-34767D01*
X58573Y-34776D01*
X58564Y-34795D01*
G54D14*
X44763Y-29313D02*
X45106Y-29313D01*
X44935Y-29913D02*
X44935Y-29313D01*
X45306Y-29913D02*
X45306Y-29313D01*
X45534Y-29313D01*
X45592Y-29341D01*
X45620Y-29370D01*
X45649Y-29427D01*
X45649Y-29513D01*
X45620Y-29570D01*
X45592Y-29599D01*
X45534Y-29627D01*
X45306Y-29627D01*
X46220Y-29913D02*
X45877Y-29913D01*
X46049Y-29913D02*
X46049Y-29313D01*
X45992Y-29399D01*
X45934Y-29456D01*
X45877Y-29484D01*
X50263Y-39083D02*
X50606Y-39083D01*
X50435Y-39683D02*
X50435Y-39083D01*
X50806Y-39683D02*
X50806Y-39083D01*
X51034Y-39083D01*
X51092Y-39111D01*
X51120Y-39140D01*
X51149Y-39197D01*
X51149Y-39283D01*
X51120Y-39340D01*
X51092Y-39369D01*
X51034Y-39397D01*
X50806Y-39397D01*
X51377Y-39140D02*
X51406Y-39111D01*
X51463Y-39083D01*
X51606Y-39083D01*
X51663Y-39111D01*
X51692Y-39140D01*
X51720Y-39197D01*
X51720Y-39254D01*
X51692Y-39340D01*
X51349Y-39683D01*
X51720Y-39683D01*
X54833Y-31070D02*
X55176Y-31070D01*
X55005Y-31670D02*
X55005Y-31070D01*
X55376Y-31670D02*
X55376Y-31070D01*
X55604Y-31070D01*
X55662Y-31098D01*
X55690Y-31127D01*
X55719Y-31184D01*
X55719Y-31270D01*
X55690Y-31327D01*
X55662Y-31356D01*
X55604Y-31384D01*
X55376Y-31384D01*
X55919Y-31070D02*
X56290Y-31070D01*
X56090Y-31298D01*
X56176Y-31298D01*
X56233Y-31327D01*
X56262Y-31356D01*
X56290Y-31413D01*
X56290Y-31556D01*
X56262Y-31613D01*
X56233Y-31641D01*
X56176Y-31670D01*
X56004Y-31670D01*
X55947Y-31641D01*
X55919Y-31613D01*
G54D10*
X52785Y-40412D02*
X52785Y-40012D01*
X52938Y-40012D01*
X52976Y-40031D01*
X52995Y-40050D01*
X53014Y-40088D01*
X53014Y-40145D01*
X52995Y-40183D01*
X52976Y-40202D01*
X52938Y-40221D01*
X52785Y-40221D01*
X53395Y-40412D02*
X53166Y-40412D01*
X53280Y-40412D02*
X53280Y-40012D01*
X53242Y-40069D01*
X53204Y-40107D01*
X53166Y-40126D01*
X46518Y-42011D02*
X46518Y-41711D01*
X46633Y-41711D01*
X46661Y-41726D01*
X46676Y-41740D01*
X46690Y-41769D01*
X46690Y-41811D01*
X46676Y-41840D01*
X46661Y-41854D01*
X46633Y-41869D01*
X46518Y-41869D01*
X46804Y-41740D02*
X46818Y-41726D01*
X46847Y-41711D01*
X46918Y-41711D01*
X46947Y-41726D01*
X46961Y-41740D01*
X46976Y-41769D01*
X46976Y-41797D01*
X46961Y-41840D01*
X46790Y-42011D01*
X46976Y-42011D01*
X44311Y-41251D02*
X44311Y-40951D01*
X44311Y-41094D02*
X44483Y-41094D01*
X44483Y-41251D02*
X44483Y-40951D01*
X44725Y-41094D02*
X44768Y-41109D01*
X44783Y-41123D01*
X44797Y-41151D01*
X44797Y-41194D01*
X44783Y-41223D01*
X44768Y-41237D01*
X44740Y-41251D01*
X44625Y-41251D01*
X44625Y-40951D01*
X44725Y-40951D01*
X44754Y-40966D01*
X44768Y-40980D01*
X44783Y-41009D01*
X44783Y-41037D01*
X44768Y-41066D01*
X44754Y-41080D01*
X44725Y-41094D01*
X44625Y-41094D01*
X45083Y-41251D02*
X44911Y-41251D01*
X44997Y-41251D02*
X44997Y-40951D01*
X44968Y-40994D01*
X44940Y-41023D01*
X44911Y-41037D01*
X45269Y-40951D02*
X45297Y-40951D01*
X45326Y-40966D01*
X45340Y-40980D01*
X45354Y-41009D01*
X45369Y-41066D01*
X45369Y-41137D01*
X45354Y-41194D01*
X45340Y-41223D01*
X45326Y-41237D01*
X45297Y-41251D01*
X45269Y-41251D01*
X45240Y-41237D01*
X45226Y-41223D01*
X45211Y-41194D01*
X45197Y-41137D01*
X45197Y-41066D01*
X45211Y-41009D01*
X45226Y-40980D01*
X45240Y-40966D01*
X45269Y-40951D01*
X45555Y-40951D02*
X45583Y-40951D01*
X45612Y-40966D01*
X45626Y-40980D01*
X45640Y-41009D01*
X45655Y-41066D01*
X45655Y-41137D01*
X45640Y-41194D01*
X45626Y-41223D01*
X45612Y-41237D01*
X45583Y-41251D01*
X45555Y-41251D01*
X45526Y-41237D01*
X45512Y-41223D01*
X45497Y-41194D01*
X45483Y-41137D01*
X45483Y-41066D01*
X45497Y-41009D01*
X45512Y-40980D01*
X45526Y-40966D01*
X45555Y-40951D01*
X45712Y-41280D02*
X45941Y-41280D01*
X46012Y-41251D02*
X46012Y-40951D01*
X46255Y-41094D02*
X46155Y-41094D01*
X46155Y-41251D02*
X46155Y-40951D01*
X46298Y-40951D01*
X58608Y-42041D02*
X58608Y-41741D01*
X58723Y-41741D01*
X58751Y-41756D01*
X58766Y-41770D01*
X58780Y-41799D01*
X58780Y-41841D01*
X58766Y-41870D01*
X58751Y-41884D01*
X58723Y-41899D01*
X58608Y-41899D01*
X58880Y-41741D02*
X59066Y-41741D01*
X58966Y-41856D01*
X59008Y-41856D01*
X59037Y-41870D01*
X59051Y-41884D01*
X59066Y-41913D01*
X59066Y-41984D01*
X59051Y-42013D01*
X59037Y-42027D01*
X59008Y-42041D01*
X58923Y-42041D01*
X58894Y-42027D01*
X58880Y-42013D01*
X59004Y-41151D02*
X59004Y-40851D01*
X59004Y-40994D02*
X59176Y-40994D01*
X59176Y-41151D02*
X59176Y-40851D01*
X59418Y-40994D02*
X59461Y-41009D01*
X59476Y-41023D01*
X59490Y-41051D01*
X59490Y-41094D01*
X59476Y-41123D01*
X59461Y-41137D01*
X59433Y-41151D01*
X59318Y-41151D01*
X59318Y-40851D01*
X59418Y-40851D01*
X59447Y-40866D01*
X59461Y-40880D01*
X59476Y-40909D01*
X59476Y-40937D01*
X59461Y-40966D01*
X59447Y-40980D01*
X59418Y-40994D01*
X59318Y-40994D01*
X59776Y-41151D02*
X59604Y-41151D01*
X59690Y-41151D02*
X59690Y-40851D01*
X59661Y-40894D01*
X59633Y-40923D01*
X59604Y-40937D01*
X59962Y-40851D02*
X59990Y-40851D01*
X60019Y-40866D01*
X60033Y-40880D01*
X60047Y-40909D01*
X60062Y-40966D01*
X60062Y-41037D01*
X60047Y-41094D01*
X60033Y-41123D01*
X60019Y-41137D01*
X59990Y-41151D01*
X59962Y-41151D01*
X59933Y-41137D01*
X59919Y-41123D01*
X59904Y-41094D01*
X59890Y-41037D01*
X59890Y-40966D01*
X59904Y-40909D01*
X59919Y-40880D01*
X59933Y-40866D01*
X59962Y-40851D01*
X60248Y-40851D02*
X60276Y-40851D01*
X60305Y-40866D01*
X60319Y-40880D01*
X60333Y-40909D01*
X60348Y-40966D01*
X60348Y-41037D01*
X60333Y-41094D01*
X60319Y-41123D01*
X60305Y-41137D01*
X60276Y-41151D01*
X60248Y-41151D01*
X60219Y-41137D01*
X60205Y-41123D01*
X60190Y-41094D01*
X60176Y-41037D01*
X60176Y-40966D01*
X60190Y-40909D01*
X60205Y-40880D01*
X60219Y-40866D01*
X60248Y-40851D01*
X60405Y-41180D02*
X60634Y-41180D01*
X60863Y-40866D02*
X60834Y-40851D01*
X60791Y-40851D01*
X60748Y-40866D01*
X60720Y-40894D01*
X60705Y-40923D01*
X60691Y-40980D01*
X60691Y-41023D01*
X60705Y-41080D01*
X60720Y-41109D01*
X60748Y-41137D01*
X60791Y-41151D01*
X60820Y-41151D01*
X60863Y-41137D01*
X60877Y-41123D01*
X60877Y-41023D01*
X60820Y-41023D01*
X61005Y-41151D02*
X61005Y-40851D01*
X61177Y-41151D01*
X61177Y-40851D01*
X61319Y-41151D02*
X61319Y-40851D01*
X61391Y-40851D01*
X61434Y-40866D01*
X61462Y-40894D01*
X61477Y-40923D01*
X61491Y-40980D01*
X61491Y-41023D01*
X61477Y-41080D01*
X61462Y-41109D01*
X61434Y-41137D01*
X61391Y-41151D01*
X61319Y-41151D01*
%LPC*%
G54D17*
X48280Y-39490D03*
X47905Y-38490D03*
X48655Y-38490D03*
G54D18*
X48300Y-28790D03*
X47300Y-29165D03*
X47300Y-28415D03*
G54D19*
X58539Y-31592D03*
X58539Y-31848D03*
X58539Y-32104D03*
X58539Y-32359D03*
X58539Y-32616D03*
X58539Y-32872D03*
X58539Y-33128D03*
X60941Y-33128D03*
X60941Y-32872D03*
X60941Y-32616D03*
X60941Y-32360D03*
X60941Y-32104D03*
X60941Y-31848D03*
X60941Y-31592D03*
G54D20*
X49848Y-31048D03*
X49356Y-31048D03*
X48844Y-31048D03*
X48352Y-31048D03*
X48352Y-33332D03*
X48844Y-33332D03*
X49356Y-33332D03*
X49868Y-33332D03*
G54D19*
X56923Y-37998D03*
X56923Y-37506D03*
X56923Y-36994D03*
X56923Y-36502D03*
X54797Y-36502D03*
X54797Y-36994D03*
X54797Y-37506D03*
X54797Y-37998D03*
G54D21*
X58770Y-28300D03*
G54D22*
X59770Y-28300D03*
G54D21*
X44790Y-28300D03*
G54D22*
X45790Y-28300D03*
G54D23*
X49350Y-30050D03*
X49950Y-30050D03*
X48510Y-36830D03*
X47910Y-36830D03*
X49980Y-37100D03*
X50580Y-37100D03*
X49980Y-37990D03*
X50580Y-37990D03*
X51730Y-35380D03*
X51130Y-35380D03*
X51730Y-37100D03*
X51130Y-37100D03*
X58540Y-36200D03*
X57940Y-36200D03*
G54D24*
X57880Y-37480D03*
X57880Y-38080D03*
G54D23*
X56920Y-39060D03*
X56320Y-39060D03*
G54D24*
X55690Y-34120D03*
X55690Y-34720D03*
G54D23*
X57940Y-35470D03*
X58540Y-35470D03*
X49410Y-34170D03*
X48810Y-34170D03*
X49410Y-34960D03*
X48810Y-34960D03*
G54D24*
X47290Y-29840D03*
X47290Y-30440D03*
X48260Y-40170D03*
X48260Y-40770D03*
G54D23*
X48510Y-37670D03*
X47910Y-37670D03*
X53900Y-38010D03*
X53300Y-38010D03*
X51730Y-36180D03*
X51130Y-36180D03*
X51130Y-37990D03*
X51730Y-37990D03*
X52830Y-37990D03*
X52230Y-37990D03*
X57940Y-36900D03*
X58540Y-36900D03*
G54D24*
X58560Y-37480D03*
X58560Y-38080D03*
G54D23*
X55740Y-39060D03*
X55140Y-39060D03*
G54D24*
X57690Y-34420D03*
X57690Y-33820D03*
G54D23*
X55750Y-33510D03*
X56350Y-33510D03*
G54D24*
X56440Y-34130D03*
X56440Y-34730D03*
X58430Y-34420D03*
X58430Y-33820D03*
G54D25*
X45490Y-30440D03*
X52240Y-39380D03*
X55590Y-32470D03*
G54D21*
X51980Y-41100D03*
G54D22*
X52980Y-41100D03*
X53980Y-41100D03*
G54D21*
X44790Y-41880D03*
G54D22*
X45790Y-41880D03*
G54D21*
X59750Y-41890D03*
G54D22*
X60750Y-41890D03*
G54D26*
X60170Y-34960D03*
X45670Y-34960D03*
M02*
