G04 (created by PCBNEW-RS274X (2012-apr-16-27)-stable) date Sun 18 May 2014 11:24:35 BST*
G01*
G70*
G90*
%MOIN*%
G04 Gerber Fmt 3.4, Leading zero omitted, Abs format*
%FSLAX34Y34*%
G04 APERTURE LIST*
%ADD10C,0.006000*%
%ADD11C,0.015000*%
%ADD12R,0.027600X0.039400*%
%ADD13R,0.039400X0.027600*%
%ADD14R,0.047200X0.015700*%
%ADD15R,0.023600X0.047200*%
%ADD16R,0.060000X0.060000*%
%ADD17C,0.060000*%
%ADD18R,0.025000X0.045000*%
%ADD19R,0.045000X0.025000*%
%ADD20C,0.078700*%
%ADD21R,0.133900X0.133900*%
%ADD22C,0.035000*%
%ADD23C,0.015800*%
%ADD24C,0.011800*%
%ADD25C,0.010000*%
G04 APERTURE END LIST*
G54D10*
G54D11*
X43720Y-27490D02*
X43720Y-42710D01*
X62630Y-27490D02*
X43720Y-27490D01*
X62630Y-42710D02*
X62630Y-27490D01*
X43730Y-42710D02*
X62630Y-42710D01*
G54D12*
X48280Y-39490D03*
X47905Y-38490D03*
X48655Y-38490D03*
G54D13*
X48300Y-28790D03*
X47300Y-29165D03*
X47300Y-28415D03*
G54D14*
X58539Y-31592D03*
X58539Y-31848D03*
X58539Y-32104D03*
X58539Y-32359D03*
X58539Y-32616D03*
X58539Y-32872D03*
X58539Y-33128D03*
X60941Y-33128D03*
X60941Y-32872D03*
X60941Y-32616D03*
X60941Y-32360D03*
X60941Y-32104D03*
X60941Y-31848D03*
X60941Y-31592D03*
G54D15*
X49848Y-31048D03*
X49356Y-31048D03*
X48844Y-31048D03*
X48352Y-31048D03*
X48352Y-33332D03*
X48844Y-33332D03*
X49356Y-33332D03*
X49868Y-33332D03*
G54D14*
X56923Y-37998D03*
X56923Y-37506D03*
X56923Y-36994D03*
X56923Y-36502D03*
X54797Y-36502D03*
X54797Y-36994D03*
X54797Y-37506D03*
X54797Y-37998D03*
G54D16*
X58770Y-28300D03*
G54D17*
X59770Y-28300D03*
G54D16*
X44790Y-28300D03*
G54D17*
X45790Y-28300D03*
G54D18*
X49350Y-30050D03*
X49950Y-30050D03*
X48510Y-36830D03*
X47910Y-36830D03*
X49980Y-37100D03*
X50580Y-37100D03*
X49980Y-37990D03*
X50580Y-37990D03*
X51730Y-35380D03*
X51130Y-35380D03*
X51730Y-37100D03*
X51130Y-37100D03*
X58540Y-36200D03*
X57940Y-36200D03*
G54D19*
X57880Y-37480D03*
X57880Y-38080D03*
G54D18*
X56920Y-39060D03*
X56320Y-39060D03*
G54D19*
X55690Y-34120D03*
X55690Y-34720D03*
G54D18*
X57940Y-35470D03*
X58540Y-35470D03*
X49410Y-34170D03*
X48810Y-34170D03*
X49410Y-34960D03*
X48810Y-34960D03*
G54D19*
X47290Y-29840D03*
X47290Y-30440D03*
X48260Y-40170D03*
X48260Y-40770D03*
G54D18*
X48510Y-37670D03*
X47910Y-37670D03*
X53900Y-38010D03*
X53300Y-38010D03*
X51730Y-36180D03*
X51130Y-36180D03*
X51130Y-37990D03*
X51730Y-37990D03*
X52830Y-37990D03*
X52230Y-37990D03*
X57940Y-36900D03*
X58540Y-36900D03*
G54D19*
X58560Y-37480D03*
X58560Y-38080D03*
G54D18*
X55740Y-39060D03*
X55140Y-39060D03*
G54D19*
X57690Y-34420D03*
X57690Y-33820D03*
G54D18*
X55750Y-33510D03*
X56350Y-33510D03*
G54D19*
X56440Y-34130D03*
X56440Y-34730D03*
X58430Y-34420D03*
X58430Y-33820D03*
G54D20*
X45490Y-30440D03*
X52240Y-39380D03*
X55590Y-32470D03*
G54D16*
X51980Y-41100D03*
G54D17*
X52980Y-41100D03*
X53980Y-41100D03*
G54D16*
X44790Y-41880D03*
G54D17*
X45790Y-41880D03*
G54D16*
X59750Y-41890D03*
G54D17*
X60750Y-41890D03*
G54D21*
X60170Y-34960D03*
X45670Y-34960D03*
G54D22*
X48744Y-40897D03*
X50331Y-29957D03*
X47910Y-36352D03*
X50753Y-35500D03*
X57215Y-34404D03*
X49848Y-31533D03*
X60439Y-32127D03*
X57567Y-36226D03*
G54D23*
X57209Y-32104D02*
X56778Y-31673D01*
X53623Y-38010D02*
X53623Y-38287D01*
X50138Y-33720D02*
X49868Y-33720D01*
X51453Y-35035D02*
X50138Y-33720D01*
X51453Y-36513D02*
X51453Y-35035D01*
X51498Y-36558D02*
X51453Y-36513D01*
X49868Y-33332D02*
X49868Y-33720D01*
X49868Y-33332D02*
X49868Y-32944D01*
X51139Y-31673D02*
X49868Y-32944D01*
X56778Y-31673D02*
X51139Y-31673D01*
X53623Y-38287D02*
X53113Y-38797D01*
X58539Y-32104D02*
X57209Y-32104D01*
X48877Y-28790D02*
X48300Y-28790D01*
X49650Y-29563D02*
X48877Y-28790D01*
X49650Y-30412D02*
X49650Y-29563D01*
X49695Y-30457D02*
X49650Y-30412D01*
X49923Y-30457D02*
X49695Y-30457D01*
X51139Y-31673D02*
X49923Y-30457D01*
X58707Y-34143D02*
X58430Y-34143D01*
X51980Y-41100D02*
X51980Y-40648D01*
X58927Y-33923D02*
X58707Y-34143D01*
X58927Y-32104D02*
X58927Y-33923D01*
X58539Y-32104D02*
X58927Y-32104D01*
X58430Y-34420D02*
X58430Y-34143D01*
X54797Y-37998D02*
X54409Y-37998D01*
X54397Y-38010D02*
X54409Y-37998D01*
X53900Y-38010D02*
X54397Y-38010D01*
X53900Y-38010D02*
X53623Y-38010D01*
X51452Y-40120D02*
X51980Y-40648D01*
X51452Y-36604D02*
X51452Y-40120D01*
X51498Y-36558D02*
X51452Y-36604D01*
X51989Y-36558D02*
X51498Y-36558D01*
X52528Y-37097D02*
X51989Y-36558D01*
X52528Y-38343D02*
X52528Y-37097D01*
X52982Y-38797D02*
X52528Y-38343D01*
X53113Y-38797D02*
X52982Y-38797D01*
G54D24*
X52980Y-41100D02*
X53908Y-40172D01*
X57196Y-40172D02*
X59152Y-38216D01*
X53908Y-40172D02*
X57196Y-40172D01*
X59152Y-38216D02*
X59152Y-31625D01*
X59119Y-31592D02*
X58539Y-31592D01*
X59152Y-31625D02*
X59119Y-31592D01*
X48510Y-37670D02*
X48510Y-36830D01*
X46856Y-28300D02*
X46971Y-28415D01*
X45790Y-28300D02*
X46856Y-28300D01*
X47300Y-28415D02*
X46971Y-28415D01*
X48510Y-34795D02*
X48510Y-36830D01*
X44790Y-31075D02*
X48510Y-34795D01*
X44790Y-28300D02*
X44790Y-31075D01*
X44790Y-28300D02*
X45790Y-28300D01*
X48260Y-39913D02*
X48280Y-39893D01*
X45790Y-41880D02*
X45222Y-41880D01*
X45790Y-41880D02*
X47500Y-40170D01*
X47500Y-40170D02*
X48260Y-40170D01*
X44790Y-41880D02*
X45222Y-41880D01*
X48260Y-40170D02*
X48260Y-39913D01*
X48280Y-39893D02*
X48280Y-39490D01*
X45490Y-30440D02*
X47290Y-30440D01*
X48604Y-30440D02*
X48844Y-30680D01*
X47290Y-30440D02*
X48604Y-30440D01*
X48844Y-31048D02*
X48844Y-30680D01*
X55690Y-34720D02*
X55869Y-34720D01*
X56440Y-34090D02*
X56047Y-34483D01*
X56440Y-34090D02*
X56440Y-34050D01*
X56047Y-34483D02*
X56047Y-34720D01*
X56440Y-33873D02*
X56356Y-33873D01*
X55869Y-34720D02*
X56047Y-34720D01*
X55165Y-37292D02*
X55165Y-37506D01*
X55869Y-36588D02*
X55165Y-37292D01*
X55869Y-34720D02*
X55869Y-36588D01*
X54797Y-37506D02*
X55165Y-37506D01*
X56440Y-34130D02*
X56440Y-34090D01*
X55590Y-32470D02*
X55619Y-32470D01*
X55619Y-32470D02*
X56350Y-33201D01*
X56350Y-33201D02*
X56679Y-32872D01*
X56679Y-32872D02*
X58539Y-32872D01*
X56350Y-33510D02*
X56350Y-33201D01*
X56440Y-34001D02*
X56440Y-33873D01*
X56440Y-34001D02*
X56440Y-34050D01*
X56350Y-33510D02*
X56350Y-33867D01*
X56356Y-33873D02*
X56350Y-33867D01*
X58540Y-35470D02*
X58283Y-35470D01*
X56923Y-36502D02*
X57291Y-36502D01*
X49848Y-31048D02*
X49848Y-31533D01*
X57317Y-34404D02*
X57333Y-34420D01*
X57940Y-36021D02*
X58283Y-35678D01*
X58283Y-35678D02*
X58283Y-35470D01*
X57940Y-36200D02*
X57940Y-36021D01*
X57215Y-34404D02*
X57317Y-34404D01*
X57940Y-36200D02*
X57683Y-36200D01*
X60941Y-32104D02*
X60573Y-32104D01*
X60550Y-32127D02*
X60573Y-32104D01*
X60439Y-32127D02*
X60550Y-32127D01*
X57566Y-36226D02*
X57567Y-36226D01*
X57566Y-36227D02*
X57566Y-36226D01*
X57291Y-36502D02*
X57566Y-36227D01*
X57593Y-36200D02*
X57683Y-36200D01*
X57567Y-36226D02*
X57593Y-36200D01*
X50331Y-29957D02*
X50300Y-29957D01*
X57690Y-34420D02*
X57333Y-34420D01*
X48260Y-40770D02*
X48617Y-40770D01*
X48617Y-40770D02*
X48744Y-40897D01*
X50300Y-29957D02*
X50207Y-30050D01*
X49950Y-30050D02*
X50207Y-30050D01*
X51130Y-35380D02*
X50873Y-35380D01*
X47910Y-36352D02*
X47910Y-36830D01*
X50580Y-37100D02*
X51130Y-37100D01*
X51130Y-36180D02*
X51130Y-37100D01*
X50753Y-35500D02*
X50873Y-35380D01*
X51076Y-35823D02*
X51130Y-35823D01*
X50753Y-35500D02*
X51076Y-35823D01*
X51130Y-36180D02*
X51130Y-35823D01*
X48810Y-33813D02*
X48844Y-33779D01*
X49356Y-32452D02*
X49356Y-31048D01*
X48844Y-32964D02*
X49356Y-32452D01*
X48844Y-33332D02*
X48844Y-32964D01*
X48844Y-33779D02*
X48844Y-33332D01*
X48810Y-34170D02*
X48810Y-33813D01*
X49356Y-30413D02*
X49356Y-31048D01*
X49350Y-30050D02*
X49350Y-30407D01*
X49350Y-30407D02*
X49356Y-30413D01*
X49410Y-34960D02*
X49410Y-34170D01*
X49356Y-33759D02*
X49356Y-33332D01*
X49410Y-33813D02*
X49356Y-33759D01*
X49410Y-34170D02*
X49410Y-33813D01*
X48102Y-31666D02*
X48352Y-31416D01*
X48102Y-33999D02*
X48102Y-31666D01*
X48706Y-34603D02*
X48102Y-33999D01*
X48810Y-34603D02*
X48706Y-34603D01*
X48810Y-34960D02*
X48810Y-34603D01*
X48352Y-31048D02*
X48352Y-31416D01*
X56943Y-34730D02*
X57683Y-35470D01*
X57940Y-35470D02*
X57683Y-35470D01*
X56440Y-34730D02*
X56943Y-34730D01*
X58430Y-33820D02*
X58430Y-33691D01*
X57690Y-33820D02*
X58047Y-33820D01*
X58539Y-33128D02*
X58171Y-33128D01*
X58171Y-33686D02*
X58171Y-33128D01*
X58176Y-33691D02*
X58171Y-33686D01*
X58430Y-33691D02*
X58176Y-33691D01*
X58176Y-33691D02*
X58047Y-33820D01*
X55140Y-39060D02*
X55140Y-38703D01*
X55750Y-33867D02*
X55690Y-33927D01*
X55690Y-33927D02*
X55690Y-34120D01*
X54797Y-36994D02*
X55165Y-36994D01*
X55165Y-34645D02*
X55165Y-36994D01*
X55433Y-34377D02*
X55165Y-34645D01*
X55690Y-34377D02*
X55433Y-34377D01*
X55690Y-34120D02*
X55690Y-34377D01*
X54429Y-36994D02*
X54429Y-37695D01*
X54429Y-37695D02*
X54452Y-37718D01*
X54452Y-37718D02*
X55071Y-37718D01*
X55071Y-37718D02*
X55166Y-37813D01*
X55166Y-37813D02*
X55166Y-38677D01*
X55166Y-38677D02*
X55140Y-38703D01*
X55750Y-33510D02*
X55750Y-33867D01*
X54797Y-36994D02*
X54429Y-36994D01*
X51130Y-37990D02*
X50580Y-37990D01*
X48655Y-38490D02*
X48925Y-38490D01*
X49980Y-37100D02*
X49980Y-37990D01*
X49980Y-37990D02*
X49723Y-37990D01*
X49723Y-37990D02*
X49224Y-38489D01*
X49224Y-38489D02*
X48925Y-38489D01*
X48925Y-38489D02*
X48925Y-38490D01*
X55740Y-39060D02*
X56320Y-39060D01*
X47910Y-38156D02*
X47905Y-38161D01*
X47910Y-37670D02*
X47910Y-38156D01*
X47905Y-38490D02*
X47905Y-38161D01*
X47300Y-29573D02*
X47300Y-29165D01*
X47290Y-29583D02*
X47300Y-29573D01*
X47290Y-29840D02*
X47290Y-29583D01*
X58540Y-36900D02*
X58540Y-36200D01*
X54797Y-36502D02*
X54429Y-36502D01*
X52830Y-37990D02*
X52830Y-36502D01*
X52830Y-36502D02*
X54429Y-36502D01*
X52508Y-36180D02*
X51987Y-36180D01*
X52830Y-36502D02*
X52508Y-36180D01*
X52830Y-37990D02*
X53023Y-37990D01*
X53023Y-37990D02*
X53043Y-38010D01*
X53300Y-38010D02*
X53043Y-38010D01*
X51730Y-35380D02*
X51730Y-36180D01*
X51730Y-36180D02*
X51987Y-36180D01*
X58560Y-37480D02*
X57880Y-37480D01*
X57317Y-37480D02*
X57291Y-37506D01*
X57880Y-37480D02*
X57317Y-37480D01*
X56923Y-37506D02*
X57291Y-37506D01*
X57940Y-37163D02*
X57880Y-37223D01*
X57940Y-36900D02*
X57940Y-37163D01*
X57880Y-37480D02*
X57880Y-37223D01*
X52230Y-37990D02*
X52230Y-39370D01*
X51859Y-37990D02*
X51859Y-37586D01*
X55398Y-38151D02*
X56555Y-36994D01*
X55398Y-39385D02*
X55398Y-38151D01*
X55365Y-39418D02*
X55398Y-39385D01*
X52278Y-39418D02*
X55365Y-39418D01*
X52240Y-39380D02*
X52278Y-39418D01*
X52230Y-39370D02*
X52240Y-39380D01*
X56923Y-36994D02*
X56555Y-36994D01*
X51730Y-37100D02*
X51730Y-37457D01*
X51859Y-37586D02*
X51730Y-37457D01*
X51859Y-37990D02*
X51987Y-37990D01*
X51730Y-37990D02*
X51859Y-37990D01*
X52230Y-37990D02*
X51987Y-37990D01*
X58560Y-38080D02*
X57880Y-38080D01*
X56923Y-37998D02*
X57291Y-37998D01*
X56920Y-38533D02*
X57373Y-38080D01*
X56920Y-39060D02*
X56920Y-38533D01*
X57880Y-38080D02*
X57373Y-38080D01*
X57373Y-38080D02*
X57291Y-37998D01*
G54D10*
G36*
X50673Y-31673D02*
X49635Y-32711D01*
X49564Y-32818D01*
X49555Y-32860D01*
X49524Y-32847D01*
X49425Y-32847D01*
X49397Y-32847D01*
X49574Y-32671D01*
X49574Y-32670D01*
X49641Y-32570D01*
X49664Y-32452D01*
X49665Y-32452D01*
X49665Y-31727D01*
X49678Y-31728D01*
X49789Y-31617D01*
X49789Y-31166D01*
X49730Y-31166D01*
X49730Y-30930D01*
X49789Y-30930D01*
X49789Y-30901D01*
X49902Y-30901D01*
X49907Y-30906D01*
X49907Y-30930D01*
X49930Y-30930D01*
X49966Y-30966D01*
X49966Y-31166D01*
X49907Y-31166D01*
X49907Y-31617D01*
X50018Y-31728D01*
X50054Y-31727D01*
X50217Y-31660D01*
X50341Y-31535D01*
X50398Y-31397D01*
X50673Y-31673D01*
X50673Y-31673D01*
G37*
G54D25*
X50673Y-31673D02*
X49635Y-32711D01*
X49564Y-32818D01*
X49555Y-32860D01*
X49524Y-32847D01*
X49425Y-32847D01*
X49397Y-32847D01*
X49574Y-32671D01*
X49574Y-32670D01*
X49641Y-32570D01*
X49664Y-32452D01*
X49665Y-32452D01*
X49665Y-31727D01*
X49678Y-31728D01*
X49789Y-31617D01*
X49789Y-31166D01*
X49730Y-31166D01*
X49730Y-30930D01*
X49789Y-30930D01*
X49789Y-30901D01*
X49902Y-30901D01*
X49907Y-30906D01*
X49907Y-30930D01*
X49930Y-30930D01*
X49966Y-30966D01*
X49966Y-31166D01*
X49907Y-31166D01*
X49907Y-31617D01*
X50018Y-31728D01*
X50054Y-31727D01*
X50217Y-31660D01*
X50341Y-31535D01*
X50398Y-31397D01*
X50673Y-31673D01*
G54D10*
G36*
X50705Y-37212D02*
X50672Y-37212D01*
X50642Y-37212D01*
X50642Y-37242D01*
X50637Y-37247D01*
X50518Y-37247D01*
X50518Y-37212D01*
X50455Y-37212D01*
X50455Y-36988D01*
X50518Y-36988D01*
X50518Y-36953D01*
X50637Y-36953D01*
X50642Y-36958D01*
X50642Y-36988D01*
X50672Y-36988D01*
X50705Y-36988D01*
X50705Y-37212D01*
X50705Y-37212D01*
G37*
G54D25*
X50705Y-37212D02*
X50672Y-37212D01*
X50642Y-37212D01*
X50642Y-37242D01*
X50637Y-37247D01*
X50518Y-37247D01*
X50518Y-37212D01*
X50455Y-37212D01*
X50455Y-36988D01*
X50518Y-36988D01*
X50518Y-36953D01*
X50637Y-36953D01*
X50642Y-36958D01*
X50642Y-36988D01*
X50672Y-36988D01*
X50705Y-36988D01*
X50705Y-37212D01*
G54D10*
G36*
X51124Y-36327D02*
X51068Y-36327D01*
X51068Y-36292D01*
X50672Y-36292D01*
X50562Y-36402D01*
X50562Y-36431D01*
X50407Y-36431D01*
X50383Y-36431D01*
X50367Y-36432D01*
X50204Y-36499D01*
X50080Y-36624D01*
X50079Y-36626D01*
X50056Y-36626D01*
X49806Y-36626D01*
X49714Y-36664D01*
X49644Y-36734D01*
X49606Y-36825D01*
X49606Y-36924D01*
X49606Y-37374D01*
X49644Y-37466D01*
X49671Y-37493D01*
X49671Y-37597D01*
X49644Y-37624D01*
X49610Y-37703D01*
X49605Y-37705D01*
X49571Y-37727D01*
X49504Y-37772D01*
X49096Y-38180D01*
X49015Y-38180D01*
X49004Y-38152D01*
X48934Y-38082D01*
X48843Y-38044D01*
X48838Y-38044D01*
X48846Y-38036D01*
X48884Y-37945D01*
X48884Y-37846D01*
X48884Y-37396D01*
X48846Y-37304D01*
X48819Y-37277D01*
X48819Y-37223D01*
X48846Y-37196D01*
X48884Y-37105D01*
X48884Y-37006D01*
X48884Y-36556D01*
X48846Y-36464D01*
X48819Y-36437D01*
X48819Y-35434D01*
X48984Y-35434D01*
X49076Y-35396D01*
X49110Y-35362D01*
X49144Y-35396D01*
X49235Y-35434D01*
X49334Y-35434D01*
X49584Y-35434D01*
X49676Y-35396D01*
X49746Y-35326D01*
X49784Y-35235D01*
X49784Y-35136D01*
X49784Y-34686D01*
X49746Y-34594D01*
X49719Y-34567D01*
X49719Y-34563D01*
X49746Y-34536D01*
X49784Y-34445D01*
X49784Y-34346D01*
X49784Y-34032D01*
X49868Y-34049D01*
X50001Y-34049D01*
X50742Y-34790D01*
X50630Y-34904D01*
X50562Y-35067D01*
X50562Y-35158D01*
X50672Y-35268D01*
X51068Y-35268D01*
X51068Y-35233D01*
X51124Y-35233D01*
X51124Y-35511D01*
X51068Y-35511D01*
X51068Y-35492D01*
X50672Y-35492D01*
X50562Y-35602D01*
X50562Y-35693D01*
X50598Y-35780D01*
X50562Y-35867D01*
X50562Y-35958D01*
X50672Y-36068D01*
X51068Y-36068D01*
X51068Y-36049D01*
X51124Y-36049D01*
X51124Y-36327D01*
X51124Y-36327D01*
G37*
G54D25*
X51124Y-36327D02*
X51068Y-36327D01*
X51068Y-36292D01*
X50672Y-36292D01*
X50562Y-36402D01*
X50562Y-36431D01*
X50407Y-36431D01*
X50383Y-36431D01*
X50367Y-36432D01*
X50204Y-36499D01*
X50080Y-36624D01*
X50079Y-36626D01*
X50056Y-36626D01*
X49806Y-36626D01*
X49714Y-36664D01*
X49644Y-36734D01*
X49606Y-36825D01*
X49606Y-36924D01*
X49606Y-37374D01*
X49644Y-37466D01*
X49671Y-37493D01*
X49671Y-37597D01*
X49644Y-37624D01*
X49610Y-37703D01*
X49605Y-37705D01*
X49571Y-37727D01*
X49504Y-37772D01*
X49096Y-38180D01*
X49015Y-38180D01*
X49004Y-38152D01*
X48934Y-38082D01*
X48843Y-38044D01*
X48838Y-38044D01*
X48846Y-38036D01*
X48884Y-37945D01*
X48884Y-37846D01*
X48884Y-37396D01*
X48846Y-37304D01*
X48819Y-37277D01*
X48819Y-37223D01*
X48846Y-37196D01*
X48884Y-37105D01*
X48884Y-37006D01*
X48884Y-36556D01*
X48846Y-36464D01*
X48819Y-36437D01*
X48819Y-35434D01*
X48984Y-35434D01*
X49076Y-35396D01*
X49110Y-35362D01*
X49144Y-35396D01*
X49235Y-35434D01*
X49334Y-35434D01*
X49584Y-35434D01*
X49676Y-35396D01*
X49746Y-35326D01*
X49784Y-35235D01*
X49784Y-35136D01*
X49784Y-34686D01*
X49746Y-34594D01*
X49719Y-34567D01*
X49719Y-34563D01*
X49746Y-34536D01*
X49784Y-34445D01*
X49784Y-34346D01*
X49784Y-34032D01*
X49868Y-34049D01*
X50001Y-34049D01*
X50742Y-34790D01*
X50630Y-34904D01*
X50562Y-35067D01*
X50562Y-35158D01*
X50672Y-35268D01*
X51068Y-35268D01*
X51068Y-35233D01*
X51124Y-35233D01*
X51124Y-35511D01*
X51068Y-35511D01*
X51068Y-35492D01*
X50672Y-35492D01*
X50562Y-35602D01*
X50562Y-35693D01*
X50598Y-35780D01*
X50562Y-35867D01*
X50562Y-35958D01*
X50672Y-36068D01*
X51068Y-36068D01*
X51068Y-36049D01*
X51124Y-36049D01*
X51124Y-36327D01*
G54D10*
G36*
X57471Y-35692D02*
X57440Y-35724D01*
X57372Y-35887D01*
X57372Y-35978D01*
X57397Y-36003D01*
X57371Y-36003D01*
X57371Y-36033D01*
X57247Y-35981D01*
X57151Y-35981D01*
X57041Y-36091D01*
X57041Y-36463D01*
X57070Y-36463D01*
X57070Y-36541D01*
X57041Y-36541D01*
X57041Y-36580D01*
X56805Y-36580D01*
X56805Y-36541D01*
X56805Y-36463D01*
X56805Y-36091D01*
X56695Y-35981D01*
X56599Y-35981D01*
X56436Y-36049D01*
X56311Y-36173D01*
X56244Y-36336D01*
X56243Y-36352D01*
X56354Y-36463D01*
X56805Y-36463D01*
X56805Y-36541D01*
X56354Y-36541D01*
X56243Y-36652D01*
X56244Y-36668D01*
X56302Y-36809D01*
X55437Y-37675D01*
X55426Y-37658D01*
X55450Y-37624D01*
X55474Y-37506D01*
X55474Y-37419D01*
X56087Y-36807D01*
X56087Y-36806D01*
X56154Y-36707D01*
X56154Y-36706D01*
X56157Y-36686D01*
X56177Y-36588D01*
X56178Y-36588D01*
X56178Y-35104D01*
X56264Y-35104D01*
X56714Y-35104D01*
X56806Y-35066D01*
X56824Y-35047D01*
X57464Y-35688D01*
X57465Y-35688D01*
X57471Y-35692D01*
X57471Y-35692D01*
G37*
G54D25*
X57471Y-35692D02*
X57440Y-35724D01*
X57372Y-35887D01*
X57372Y-35978D01*
X57397Y-36003D01*
X57371Y-36003D01*
X57371Y-36033D01*
X57247Y-35981D01*
X57151Y-35981D01*
X57041Y-36091D01*
X57041Y-36463D01*
X57070Y-36463D01*
X57070Y-36541D01*
X57041Y-36541D01*
X57041Y-36580D01*
X56805Y-36580D01*
X56805Y-36541D01*
X56805Y-36463D01*
X56805Y-36091D01*
X56695Y-35981D01*
X56599Y-35981D01*
X56436Y-36049D01*
X56311Y-36173D01*
X56244Y-36336D01*
X56243Y-36352D01*
X56354Y-36463D01*
X56805Y-36463D01*
X56805Y-36541D01*
X56354Y-36541D01*
X56243Y-36652D01*
X56244Y-36668D01*
X56302Y-36809D01*
X55437Y-37675D01*
X55426Y-37658D01*
X55450Y-37624D01*
X55474Y-37506D01*
X55474Y-37419D01*
X56087Y-36807D01*
X56087Y-36806D01*
X56154Y-36707D01*
X56154Y-36706D01*
X56157Y-36686D01*
X56177Y-36588D01*
X56178Y-36588D01*
X56178Y-35104D01*
X56264Y-35104D01*
X56714Y-35104D01*
X56806Y-35066D01*
X56824Y-35047D01*
X57464Y-35688D01*
X57465Y-35688D01*
X57471Y-35692D01*
G54D10*
G36*
X58065Y-36312D02*
X58002Y-36312D01*
X58002Y-36347D01*
X57878Y-36347D01*
X57878Y-36312D01*
X57815Y-36312D01*
X57815Y-36088D01*
X57878Y-36088D01*
X57878Y-36053D01*
X58002Y-36053D01*
X58002Y-36088D01*
X58065Y-36088D01*
X58065Y-36312D01*
X58065Y-36312D01*
G37*
G54D25*
X58065Y-36312D02*
X58002Y-36312D01*
X58002Y-36347D01*
X57878Y-36347D01*
X57878Y-36312D01*
X57815Y-36312D01*
X57815Y-36088D01*
X57878Y-36088D01*
X57878Y-36053D01*
X58002Y-36053D01*
X58002Y-36088D01*
X58065Y-36088D01*
X58065Y-36312D01*
G54D10*
G36*
X58076Y-34957D02*
X58040Y-34994D01*
X58039Y-34996D01*
X58016Y-34996D01*
X57766Y-34996D01*
X57680Y-35031D01*
X57552Y-34903D01*
X57578Y-34878D01*
X57578Y-34482D01*
X57132Y-34482D01*
X57125Y-34488D01*
X57061Y-34445D01*
X56943Y-34421D01*
X56851Y-34421D01*
X56876Y-34396D01*
X56914Y-34305D01*
X56914Y-34206D01*
X56914Y-33956D01*
X56876Y-33864D01*
X56806Y-33794D01*
X56726Y-33760D01*
X56725Y-33755D01*
X56724Y-33753D01*
X56724Y-33686D01*
X56724Y-33263D01*
X56806Y-33181D01*
X57862Y-33181D01*
X57862Y-33446D01*
X57416Y-33446D01*
X57324Y-33484D01*
X57254Y-33554D01*
X57216Y-33645D01*
X57216Y-33744D01*
X57216Y-33919D01*
X57214Y-33920D01*
X57089Y-34044D01*
X57022Y-34207D01*
X57021Y-34247D01*
X57132Y-34358D01*
X57578Y-34358D01*
X57578Y-34295D01*
X57802Y-34295D01*
X57802Y-34358D01*
X57837Y-34358D01*
X57837Y-34482D01*
X57802Y-34482D01*
X57802Y-34878D01*
X57912Y-34988D01*
X58003Y-34988D01*
X58076Y-34957D01*
X58076Y-34957D01*
G37*
G54D25*
X58076Y-34957D02*
X58040Y-34994D01*
X58039Y-34996D01*
X58016Y-34996D01*
X57766Y-34996D01*
X57680Y-35031D01*
X57552Y-34903D01*
X57578Y-34878D01*
X57578Y-34482D01*
X57132Y-34482D01*
X57125Y-34488D01*
X57061Y-34445D01*
X56943Y-34421D01*
X56851Y-34421D01*
X56876Y-34396D01*
X56914Y-34305D01*
X56914Y-34206D01*
X56914Y-33956D01*
X56876Y-33864D01*
X56806Y-33794D01*
X56726Y-33760D01*
X56725Y-33755D01*
X56724Y-33753D01*
X56724Y-33686D01*
X56724Y-33263D01*
X56806Y-33181D01*
X57862Y-33181D01*
X57862Y-33446D01*
X57416Y-33446D01*
X57324Y-33484D01*
X57254Y-33554D01*
X57216Y-33645D01*
X57216Y-33744D01*
X57216Y-33919D01*
X57214Y-33920D01*
X57089Y-34044D01*
X57022Y-34207D01*
X57021Y-34247D01*
X57132Y-34358D01*
X57578Y-34358D01*
X57578Y-34295D01*
X57802Y-34295D01*
X57802Y-34358D01*
X57837Y-34358D01*
X57837Y-34482D01*
X57802Y-34482D01*
X57802Y-34878D01*
X57912Y-34988D01*
X58003Y-34988D01*
X58076Y-34957D01*
G54D10*
G36*
X58843Y-34838D02*
X58753Y-34802D01*
X58713Y-34801D01*
X58602Y-34912D01*
X58602Y-35358D01*
X58665Y-35358D01*
X58665Y-35582D01*
X58602Y-35582D01*
X58602Y-35617D01*
X58478Y-35617D01*
X58478Y-35582D01*
X58415Y-35582D01*
X58415Y-35358D01*
X58478Y-35358D01*
X58478Y-34912D01*
X58367Y-34801D01*
X58327Y-34802D01*
X58255Y-34831D01*
X58291Y-34796D01*
X58291Y-34794D01*
X58704Y-34794D01*
X58796Y-34756D01*
X58843Y-34709D01*
X58843Y-34838D01*
X58843Y-34838D01*
G37*
G54D25*
X58843Y-34838D02*
X58753Y-34802D01*
X58713Y-34801D01*
X58602Y-34912D01*
X58602Y-35358D01*
X58665Y-35358D01*
X58665Y-35582D01*
X58602Y-35582D01*
X58602Y-35617D01*
X58478Y-35617D01*
X58478Y-35582D01*
X58415Y-35582D01*
X58415Y-35358D01*
X58478Y-35358D01*
X58478Y-34912D01*
X58367Y-34801D01*
X58327Y-34802D01*
X58255Y-34831D01*
X58291Y-34796D01*
X58291Y-34794D01*
X58704Y-34794D01*
X58796Y-34756D01*
X58843Y-34709D01*
X58843Y-34838D01*
G54D10*
G36*
X62305Y-42385D02*
X61621Y-42385D01*
X61621Y-32254D01*
X61510Y-32143D01*
X61388Y-32143D01*
X61388Y-32141D01*
X61351Y-32104D01*
X61388Y-32067D01*
X61388Y-32065D01*
X61510Y-32065D01*
X61621Y-31954D01*
X61620Y-31938D01*
X61553Y-31775D01*
X61428Y-31651D01*
X61426Y-31650D01*
X61426Y-31621D01*
X61426Y-31465D01*
X61388Y-31373D01*
X61318Y-31303D01*
X61227Y-31265D01*
X61128Y-31265D01*
X60656Y-31265D01*
X60564Y-31303D01*
X60513Y-31354D01*
X60494Y-31373D01*
X60456Y-31464D01*
X60456Y-31563D01*
X60456Y-31650D01*
X60454Y-31651D01*
X60329Y-31775D01*
X60262Y-31938D01*
X60261Y-31954D01*
X60372Y-32065D01*
X60493Y-32065D01*
X60494Y-32067D01*
X60531Y-32104D01*
X60494Y-32141D01*
X60493Y-32143D01*
X60372Y-32143D01*
X60261Y-32254D01*
X60262Y-32270D01*
X60329Y-32433D01*
X60454Y-32557D01*
X60456Y-32557D01*
X60456Y-32587D01*
X60456Y-32743D01*
X60456Y-32744D01*
X60456Y-32843D01*
X60456Y-32999D01*
X60456Y-33000D01*
X60456Y-33099D01*
X60456Y-33255D01*
X60494Y-33347D01*
X60564Y-33417D01*
X60655Y-33455D01*
X60754Y-33455D01*
X61226Y-33455D01*
X61318Y-33417D01*
X61388Y-33347D01*
X61426Y-33256D01*
X61426Y-33157D01*
X61426Y-33001D01*
X61425Y-33000D01*
X61426Y-33000D01*
X61426Y-32901D01*
X61426Y-32745D01*
X61425Y-32744D01*
X61426Y-32744D01*
X61426Y-32645D01*
X61426Y-32557D01*
X61428Y-32557D01*
X61553Y-32433D01*
X61620Y-32270D01*
X61621Y-32254D01*
X61621Y-42385D01*
X61493Y-42385D01*
X61326Y-42385D01*
X61425Y-42286D01*
X61350Y-42211D01*
X61426Y-42200D01*
X61493Y-41918D01*
X61447Y-41631D01*
X61426Y-41580D01*
X61289Y-41559D01*
X60993Y-41855D01*
X60958Y-41890D01*
X60750Y-42098D01*
X60542Y-41890D01*
X60750Y-41682D01*
X60785Y-41647D01*
X61081Y-41351D01*
X61060Y-41214D01*
X60778Y-41147D01*
X60491Y-41193D01*
X60440Y-41214D01*
X60428Y-41289D01*
X60354Y-41215D01*
X60327Y-41241D01*
X60301Y-41214D01*
X60138Y-41147D01*
X60008Y-41146D01*
X59897Y-41257D01*
X59897Y-41693D01*
X59897Y-41743D01*
X59897Y-42037D01*
X59603Y-42037D01*
X59603Y-41743D01*
X59603Y-41257D01*
X59492Y-41146D01*
X59362Y-41147D01*
X59199Y-41214D01*
X59075Y-41339D01*
X59007Y-41502D01*
X59007Y-41633D01*
X59117Y-41743D01*
X59603Y-41743D01*
X59603Y-42037D01*
X59553Y-42037D01*
X59117Y-42037D01*
X59007Y-42147D01*
X59007Y-42278D01*
X59051Y-42385D01*
X54723Y-42385D01*
X54723Y-41128D01*
X54677Y-40841D01*
X54656Y-40790D01*
X54519Y-40769D01*
X54188Y-41100D01*
X54519Y-41431D01*
X54656Y-41410D01*
X54723Y-41128D01*
X54723Y-42385D01*
X54311Y-42385D01*
X54311Y-41639D01*
X53980Y-41308D01*
X53649Y-41639D01*
X53670Y-41776D01*
X53952Y-41843D01*
X54239Y-41797D01*
X54290Y-41776D01*
X54311Y-41639D01*
X54311Y-42385D01*
X48929Y-42385D01*
X48929Y-40943D01*
X48818Y-40832D01*
X48372Y-40832D01*
X48372Y-41228D01*
X48482Y-41338D01*
X48573Y-41338D01*
X48736Y-41270D01*
X48861Y-41146D01*
X48928Y-40983D01*
X48929Y-40943D01*
X48929Y-42385D01*
X48148Y-42385D01*
X48148Y-41228D01*
X48148Y-40832D01*
X47702Y-40832D01*
X47591Y-40943D01*
X47592Y-40983D01*
X47659Y-41146D01*
X47784Y-41270D01*
X47947Y-41338D01*
X48038Y-41338D01*
X48148Y-41228D01*
X48148Y-42385D01*
X46004Y-42385D01*
X46101Y-42345D01*
X46255Y-42191D01*
X46339Y-41989D01*
X46339Y-41771D01*
X46337Y-41768D01*
X47621Y-40485D01*
X47592Y-40557D01*
X47591Y-40597D01*
X47702Y-40708D01*
X48148Y-40708D01*
X48148Y-40645D01*
X48372Y-40645D01*
X48372Y-40708D01*
X48818Y-40708D01*
X48929Y-40597D01*
X48928Y-40557D01*
X48861Y-40394D01*
X48736Y-40270D01*
X48734Y-40269D01*
X48734Y-40246D01*
X48734Y-39996D01*
X48696Y-39904D01*
X48626Y-39834D01*
X48623Y-39833D01*
X48629Y-39828D01*
X48667Y-39737D01*
X48667Y-39638D01*
X48667Y-39244D01*
X48629Y-39152D01*
X48559Y-39082D01*
X48468Y-39044D01*
X48369Y-39044D01*
X48093Y-39044D01*
X48001Y-39082D01*
X47931Y-39152D01*
X47893Y-39243D01*
X47893Y-39342D01*
X47893Y-39736D01*
X47927Y-39820D01*
X47894Y-39834D01*
X47867Y-39861D01*
X47500Y-39861D01*
X47382Y-39885D01*
X47281Y-39952D01*
X46588Y-40645D01*
X46588Y-35679D01*
X46588Y-35580D01*
X46588Y-34242D01*
X46550Y-34150D01*
X46480Y-34080D01*
X46389Y-34042D01*
X46290Y-34042D01*
X44952Y-34042D01*
X44860Y-34080D01*
X44790Y-34150D01*
X44752Y-34241D01*
X44752Y-34340D01*
X44752Y-35678D01*
X44790Y-35770D01*
X44860Y-35840D01*
X44951Y-35878D01*
X45050Y-35878D01*
X46388Y-35878D01*
X46480Y-35840D01*
X46550Y-35770D01*
X46588Y-35679D01*
X46588Y-40645D01*
X45901Y-41332D01*
X45899Y-41331D01*
X45681Y-41331D01*
X45479Y-41415D01*
X45339Y-41555D01*
X45339Y-41531D01*
X45301Y-41439D01*
X45231Y-41369D01*
X45140Y-41331D01*
X45041Y-41331D01*
X44441Y-41331D01*
X44349Y-41369D01*
X44279Y-41439D01*
X44241Y-41530D01*
X44241Y-41629D01*
X44241Y-42229D01*
X44279Y-42321D01*
X44343Y-42385D01*
X44045Y-42385D01*
X44045Y-27815D01*
X44323Y-27815D01*
X44279Y-27859D01*
X44241Y-27950D01*
X44241Y-28049D01*
X44241Y-28649D01*
X44279Y-28741D01*
X44349Y-28811D01*
X44440Y-28849D01*
X44481Y-28849D01*
X44481Y-31075D01*
X44505Y-31193D01*
X44572Y-31293D01*
X48201Y-34922D01*
X48201Y-36194D01*
X48123Y-36162D01*
X48083Y-36161D01*
X47972Y-36272D01*
X47972Y-36718D01*
X48035Y-36718D01*
X48035Y-36942D01*
X47972Y-36942D01*
X47972Y-36977D01*
X47848Y-36977D01*
X47848Y-36942D01*
X47848Y-36718D01*
X47848Y-36272D01*
X47737Y-36161D01*
X47697Y-36162D01*
X47534Y-36229D01*
X47410Y-36354D01*
X47342Y-36517D01*
X47342Y-36608D01*
X47452Y-36718D01*
X47848Y-36718D01*
X47848Y-36942D01*
X47452Y-36942D01*
X47342Y-37052D01*
X47342Y-37143D01*
X47410Y-37306D01*
X47534Y-37431D01*
X47536Y-37431D01*
X47536Y-37494D01*
X47536Y-37944D01*
X47574Y-38036D01*
X47601Y-38063D01*
X47601Y-38107D01*
X47556Y-38152D01*
X47518Y-38243D01*
X47518Y-38342D01*
X47518Y-38736D01*
X47556Y-38828D01*
X47626Y-38898D01*
X47717Y-38936D01*
X47816Y-38936D01*
X48092Y-38936D01*
X48184Y-38898D01*
X48254Y-38828D01*
X48280Y-38765D01*
X48306Y-38828D01*
X48376Y-38898D01*
X48467Y-38936D01*
X48566Y-38936D01*
X48842Y-38936D01*
X48934Y-38898D01*
X49004Y-38828D01*
X49016Y-38798D01*
X49224Y-38798D01*
X49224Y-38797D01*
X49342Y-38774D01*
X49442Y-38707D01*
X49720Y-38428D01*
X49805Y-38464D01*
X49904Y-38464D01*
X50154Y-38464D01*
X50246Y-38426D01*
X50280Y-38392D01*
X50314Y-38426D01*
X50405Y-38464D01*
X50504Y-38464D01*
X50754Y-38464D01*
X50846Y-38426D01*
X50855Y-38417D01*
X50864Y-38426D01*
X50955Y-38464D01*
X51054Y-38464D01*
X51123Y-38464D01*
X51123Y-40115D01*
X51122Y-40120D01*
X51148Y-40246D01*
X51219Y-40353D01*
X51497Y-40630D01*
X51469Y-40659D01*
X51431Y-40750D01*
X51431Y-40849D01*
X51431Y-41449D01*
X51469Y-41541D01*
X51539Y-41611D01*
X51630Y-41649D01*
X51729Y-41649D01*
X52329Y-41649D01*
X52421Y-41611D01*
X52491Y-41541D01*
X52529Y-41450D01*
X52529Y-41425D01*
X52669Y-41565D01*
X52871Y-41649D01*
X53089Y-41649D01*
X53291Y-41565D01*
X53427Y-41428D01*
X53441Y-41431D01*
X53737Y-41135D01*
X53772Y-41100D01*
X53980Y-40892D01*
X54015Y-40857D01*
X54311Y-40561D01*
X54298Y-40481D01*
X57196Y-40481D01*
X57196Y-40480D01*
X57314Y-40457D01*
X57414Y-40390D01*
X59370Y-38435D01*
X59370Y-38434D01*
X59437Y-38334D01*
X59460Y-38216D01*
X59461Y-38216D01*
X59461Y-35878D01*
X59550Y-35878D01*
X60888Y-35878D01*
X60980Y-35840D01*
X61050Y-35770D01*
X61088Y-35679D01*
X61088Y-35580D01*
X61088Y-34242D01*
X61050Y-34150D01*
X60980Y-34080D01*
X60889Y-34042D01*
X60790Y-34042D01*
X59461Y-34042D01*
X59461Y-31625D01*
X59437Y-31507D01*
X59436Y-31506D01*
X59414Y-31473D01*
X59370Y-31407D01*
X59370Y-31406D01*
X59337Y-31374D01*
X59237Y-31307D01*
X59119Y-31283D01*
X58868Y-31283D01*
X58825Y-31265D01*
X58726Y-31265D01*
X58623Y-31265D01*
X58623Y-28933D01*
X58623Y-28447D01*
X58137Y-28447D01*
X58027Y-28557D01*
X58027Y-28688D01*
X58095Y-28851D01*
X58219Y-28976D01*
X58382Y-29043D01*
X58512Y-29044D01*
X58623Y-28933D01*
X58623Y-31265D01*
X58254Y-31265D01*
X58162Y-31303D01*
X58092Y-31373D01*
X58054Y-31464D01*
X58054Y-31563D01*
X58054Y-31719D01*
X58054Y-31720D01*
X58054Y-31775D01*
X57345Y-31775D01*
X57011Y-31440D01*
X56904Y-31369D01*
X56778Y-31343D01*
X56773Y-31344D01*
X51275Y-31344D01*
X50452Y-30520D01*
X50518Y-30363D01*
X50518Y-30272D01*
X50518Y-29828D01*
X50518Y-29737D01*
X50450Y-29574D01*
X50326Y-29449D01*
X50163Y-29382D01*
X50123Y-29381D01*
X50012Y-29492D01*
X50012Y-29938D01*
X50408Y-29938D01*
X50518Y-29828D01*
X50518Y-30272D01*
X50408Y-30162D01*
X50062Y-30162D01*
X50049Y-30153D01*
X49979Y-30138D01*
X49979Y-29563D01*
X49954Y-29437D01*
X49883Y-29330D01*
X49110Y-28557D01*
X49003Y-28486D01*
X48877Y-28460D01*
X48872Y-28461D01*
X48658Y-28461D01*
X48638Y-28441D01*
X48547Y-28403D01*
X48448Y-28403D01*
X48054Y-28403D01*
X47962Y-28441D01*
X47892Y-28511D01*
X47854Y-28602D01*
X47854Y-28701D01*
X47854Y-28977D01*
X47892Y-29069D01*
X47962Y-29139D01*
X48053Y-29177D01*
X48152Y-29177D01*
X48546Y-29177D01*
X48638Y-29139D01*
X48658Y-29119D01*
X48740Y-29119D01*
X49197Y-29576D01*
X49176Y-29576D01*
X49084Y-29614D01*
X49014Y-29684D01*
X48976Y-29775D01*
X48976Y-29874D01*
X48976Y-30324D01*
X49012Y-30411D01*
X48822Y-30222D01*
X48722Y-30155D01*
X48604Y-30131D01*
X47701Y-30131D01*
X47726Y-30106D01*
X47764Y-30015D01*
X47764Y-29916D01*
X47764Y-29666D01*
X47726Y-29574D01*
X47656Y-29504D01*
X47650Y-29501D01*
X47708Y-29444D01*
X47746Y-29353D01*
X47746Y-29254D01*
X47746Y-28978D01*
X47708Y-28886D01*
X47638Y-28816D01*
X47575Y-28789D01*
X47638Y-28764D01*
X47708Y-28694D01*
X47746Y-28603D01*
X47746Y-28504D01*
X47746Y-28228D01*
X47708Y-28136D01*
X47638Y-28066D01*
X47547Y-28028D01*
X47448Y-28028D01*
X47054Y-28028D01*
X47016Y-28043D01*
X46974Y-28015D01*
X46856Y-27991D01*
X46255Y-27991D01*
X46255Y-27989D01*
X46101Y-27835D01*
X46052Y-27815D01*
X58067Y-27815D01*
X58027Y-27912D01*
X58027Y-28043D01*
X58137Y-28153D01*
X58573Y-28153D01*
X58623Y-28153D01*
X58917Y-28153D01*
X58917Y-28447D01*
X58917Y-28497D01*
X58917Y-28933D01*
X59028Y-29044D01*
X59158Y-29043D01*
X59321Y-28976D01*
X59347Y-28948D01*
X59374Y-28975D01*
X59448Y-28900D01*
X59460Y-28976D01*
X59742Y-29043D01*
X60029Y-28997D01*
X60080Y-28976D01*
X60101Y-28839D01*
X59805Y-28543D01*
X59770Y-28508D01*
X59562Y-28300D01*
X59770Y-28092D01*
X59978Y-28300D01*
X60013Y-28335D01*
X60309Y-28631D01*
X60446Y-28610D01*
X60513Y-28328D01*
X60467Y-28041D01*
X60446Y-27990D01*
X60370Y-27978D01*
X60445Y-27904D01*
X60356Y-27815D01*
X62305Y-27815D01*
X62305Y-42385D01*
X62305Y-42385D01*
G37*
G54D25*
X62305Y-42385D02*
X61621Y-42385D01*
X61621Y-32254D01*
X61510Y-32143D01*
X61388Y-32143D01*
X61388Y-32141D01*
X61351Y-32104D01*
X61388Y-32067D01*
X61388Y-32065D01*
X61510Y-32065D01*
X61621Y-31954D01*
X61620Y-31938D01*
X61553Y-31775D01*
X61428Y-31651D01*
X61426Y-31650D01*
X61426Y-31621D01*
X61426Y-31465D01*
X61388Y-31373D01*
X61318Y-31303D01*
X61227Y-31265D01*
X61128Y-31265D01*
X60656Y-31265D01*
X60564Y-31303D01*
X60513Y-31354D01*
X60494Y-31373D01*
X60456Y-31464D01*
X60456Y-31563D01*
X60456Y-31650D01*
X60454Y-31651D01*
X60329Y-31775D01*
X60262Y-31938D01*
X60261Y-31954D01*
X60372Y-32065D01*
X60493Y-32065D01*
X60494Y-32067D01*
X60531Y-32104D01*
X60494Y-32141D01*
X60493Y-32143D01*
X60372Y-32143D01*
X60261Y-32254D01*
X60262Y-32270D01*
X60329Y-32433D01*
X60454Y-32557D01*
X60456Y-32557D01*
X60456Y-32587D01*
X60456Y-32743D01*
X60456Y-32744D01*
X60456Y-32843D01*
X60456Y-32999D01*
X60456Y-33000D01*
X60456Y-33099D01*
X60456Y-33255D01*
X60494Y-33347D01*
X60564Y-33417D01*
X60655Y-33455D01*
X60754Y-33455D01*
X61226Y-33455D01*
X61318Y-33417D01*
X61388Y-33347D01*
X61426Y-33256D01*
X61426Y-33157D01*
X61426Y-33001D01*
X61425Y-33000D01*
X61426Y-33000D01*
X61426Y-32901D01*
X61426Y-32745D01*
X61425Y-32744D01*
X61426Y-32744D01*
X61426Y-32645D01*
X61426Y-32557D01*
X61428Y-32557D01*
X61553Y-32433D01*
X61620Y-32270D01*
X61621Y-32254D01*
X61621Y-42385D01*
X61493Y-42385D01*
X61326Y-42385D01*
X61425Y-42286D01*
X61350Y-42211D01*
X61426Y-42200D01*
X61493Y-41918D01*
X61447Y-41631D01*
X61426Y-41580D01*
X61289Y-41559D01*
X60993Y-41855D01*
X60958Y-41890D01*
X60750Y-42098D01*
X60542Y-41890D01*
X60750Y-41682D01*
X60785Y-41647D01*
X61081Y-41351D01*
X61060Y-41214D01*
X60778Y-41147D01*
X60491Y-41193D01*
X60440Y-41214D01*
X60428Y-41289D01*
X60354Y-41215D01*
X60327Y-41241D01*
X60301Y-41214D01*
X60138Y-41147D01*
X60008Y-41146D01*
X59897Y-41257D01*
X59897Y-41693D01*
X59897Y-41743D01*
X59897Y-42037D01*
X59603Y-42037D01*
X59603Y-41743D01*
X59603Y-41257D01*
X59492Y-41146D01*
X59362Y-41147D01*
X59199Y-41214D01*
X59075Y-41339D01*
X59007Y-41502D01*
X59007Y-41633D01*
X59117Y-41743D01*
X59603Y-41743D01*
X59603Y-42037D01*
X59553Y-42037D01*
X59117Y-42037D01*
X59007Y-42147D01*
X59007Y-42278D01*
X59051Y-42385D01*
X54723Y-42385D01*
X54723Y-41128D01*
X54677Y-40841D01*
X54656Y-40790D01*
X54519Y-40769D01*
X54188Y-41100D01*
X54519Y-41431D01*
X54656Y-41410D01*
X54723Y-41128D01*
X54723Y-42385D01*
X54311Y-42385D01*
X54311Y-41639D01*
X53980Y-41308D01*
X53649Y-41639D01*
X53670Y-41776D01*
X53952Y-41843D01*
X54239Y-41797D01*
X54290Y-41776D01*
X54311Y-41639D01*
X54311Y-42385D01*
X48929Y-42385D01*
X48929Y-40943D01*
X48818Y-40832D01*
X48372Y-40832D01*
X48372Y-41228D01*
X48482Y-41338D01*
X48573Y-41338D01*
X48736Y-41270D01*
X48861Y-41146D01*
X48928Y-40983D01*
X48929Y-40943D01*
X48929Y-42385D01*
X48148Y-42385D01*
X48148Y-41228D01*
X48148Y-40832D01*
X47702Y-40832D01*
X47591Y-40943D01*
X47592Y-40983D01*
X47659Y-41146D01*
X47784Y-41270D01*
X47947Y-41338D01*
X48038Y-41338D01*
X48148Y-41228D01*
X48148Y-42385D01*
X46004Y-42385D01*
X46101Y-42345D01*
X46255Y-42191D01*
X46339Y-41989D01*
X46339Y-41771D01*
X46337Y-41768D01*
X47621Y-40485D01*
X47592Y-40557D01*
X47591Y-40597D01*
X47702Y-40708D01*
X48148Y-40708D01*
X48148Y-40645D01*
X48372Y-40645D01*
X48372Y-40708D01*
X48818Y-40708D01*
X48929Y-40597D01*
X48928Y-40557D01*
X48861Y-40394D01*
X48736Y-40270D01*
X48734Y-40269D01*
X48734Y-40246D01*
X48734Y-39996D01*
X48696Y-39904D01*
X48626Y-39834D01*
X48623Y-39833D01*
X48629Y-39828D01*
X48667Y-39737D01*
X48667Y-39638D01*
X48667Y-39244D01*
X48629Y-39152D01*
X48559Y-39082D01*
X48468Y-39044D01*
X48369Y-39044D01*
X48093Y-39044D01*
X48001Y-39082D01*
X47931Y-39152D01*
X47893Y-39243D01*
X47893Y-39342D01*
X47893Y-39736D01*
X47927Y-39820D01*
X47894Y-39834D01*
X47867Y-39861D01*
X47500Y-39861D01*
X47382Y-39885D01*
X47281Y-39952D01*
X46588Y-40645D01*
X46588Y-35679D01*
X46588Y-35580D01*
X46588Y-34242D01*
X46550Y-34150D01*
X46480Y-34080D01*
X46389Y-34042D01*
X46290Y-34042D01*
X44952Y-34042D01*
X44860Y-34080D01*
X44790Y-34150D01*
X44752Y-34241D01*
X44752Y-34340D01*
X44752Y-35678D01*
X44790Y-35770D01*
X44860Y-35840D01*
X44951Y-35878D01*
X45050Y-35878D01*
X46388Y-35878D01*
X46480Y-35840D01*
X46550Y-35770D01*
X46588Y-35679D01*
X46588Y-40645D01*
X45901Y-41332D01*
X45899Y-41331D01*
X45681Y-41331D01*
X45479Y-41415D01*
X45339Y-41555D01*
X45339Y-41531D01*
X45301Y-41439D01*
X45231Y-41369D01*
X45140Y-41331D01*
X45041Y-41331D01*
X44441Y-41331D01*
X44349Y-41369D01*
X44279Y-41439D01*
X44241Y-41530D01*
X44241Y-41629D01*
X44241Y-42229D01*
X44279Y-42321D01*
X44343Y-42385D01*
X44045Y-42385D01*
X44045Y-27815D01*
X44323Y-27815D01*
X44279Y-27859D01*
X44241Y-27950D01*
X44241Y-28049D01*
X44241Y-28649D01*
X44279Y-28741D01*
X44349Y-28811D01*
X44440Y-28849D01*
X44481Y-28849D01*
X44481Y-31075D01*
X44505Y-31193D01*
X44572Y-31293D01*
X48201Y-34922D01*
X48201Y-36194D01*
X48123Y-36162D01*
X48083Y-36161D01*
X47972Y-36272D01*
X47972Y-36718D01*
X48035Y-36718D01*
X48035Y-36942D01*
X47972Y-36942D01*
X47972Y-36977D01*
X47848Y-36977D01*
X47848Y-36942D01*
X47848Y-36718D01*
X47848Y-36272D01*
X47737Y-36161D01*
X47697Y-36162D01*
X47534Y-36229D01*
X47410Y-36354D01*
X47342Y-36517D01*
X47342Y-36608D01*
X47452Y-36718D01*
X47848Y-36718D01*
X47848Y-36942D01*
X47452Y-36942D01*
X47342Y-37052D01*
X47342Y-37143D01*
X47410Y-37306D01*
X47534Y-37431D01*
X47536Y-37431D01*
X47536Y-37494D01*
X47536Y-37944D01*
X47574Y-38036D01*
X47601Y-38063D01*
X47601Y-38107D01*
X47556Y-38152D01*
X47518Y-38243D01*
X47518Y-38342D01*
X47518Y-38736D01*
X47556Y-38828D01*
X47626Y-38898D01*
X47717Y-38936D01*
X47816Y-38936D01*
X48092Y-38936D01*
X48184Y-38898D01*
X48254Y-38828D01*
X48280Y-38765D01*
X48306Y-38828D01*
X48376Y-38898D01*
X48467Y-38936D01*
X48566Y-38936D01*
X48842Y-38936D01*
X48934Y-38898D01*
X49004Y-38828D01*
X49016Y-38798D01*
X49224Y-38798D01*
X49224Y-38797D01*
X49342Y-38774D01*
X49442Y-38707D01*
X49720Y-38428D01*
X49805Y-38464D01*
X49904Y-38464D01*
X50154Y-38464D01*
X50246Y-38426D01*
X50280Y-38392D01*
X50314Y-38426D01*
X50405Y-38464D01*
X50504Y-38464D01*
X50754Y-38464D01*
X50846Y-38426D01*
X50855Y-38417D01*
X50864Y-38426D01*
X50955Y-38464D01*
X51054Y-38464D01*
X51123Y-38464D01*
X51123Y-40115D01*
X51122Y-40120D01*
X51148Y-40246D01*
X51219Y-40353D01*
X51497Y-40630D01*
X51469Y-40659D01*
X51431Y-40750D01*
X51431Y-40849D01*
X51431Y-41449D01*
X51469Y-41541D01*
X51539Y-41611D01*
X51630Y-41649D01*
X51729Y-41649D01*
X52329Y-41649D01*
X52421Y-41611D01*
X52491Y-41541D01*
X52529Y-41450D01*
X52529Y-41425D01*
X52669Y-41565D01*
X52871Y-41649D01*
X53089Y-41649D01*
X53291Y-41565D01*
X53427Y-41428D01*
X53441Y-41431D01*
X53737Y-41135D01*
X53772Y-41100D01*
X53980Y-40892D01*
X54015Y-40857D01*
X54311Y-40561D01*
X54298Y-40481D01*
X57196Y-40481D01*
X57196Y-40480D01*
X57314Y-40457D01*
X57414Y-40390D01*
X59370Y-38435D01*
X59370Y-38434D01*
X59437Y-38334D01*
X59460Y-38216D01*
X59461Y-38216D01*
X59461Y-35878D01*
X59550Y-35878D01*
X60888Y-35878D01*
X60980Y-35840D01*
X61050Y-35770D01*
X61088Y-35679D01*
X61088Y-35580D01*
X61088Y-34242D01*
X61050Y-34150D01*
X60980Y-34080D01*
X60889Y-34042D01*
X60790Y-34042D01*
X59461Y-34042D01*
X59461Y-31625D01*
X59437Y-31507D01*
X59436Y-31506D01*
X59414Y-31473D01*
X59370Y-31407D01*
X59370Y-31406D01*
X59337Y-31374D01*
X59237Y-31307D01*
X59119Y-31283D01*
X58868Y-31283D01*
X58825Y-31265D01*
X58726Y-31265D01*
X58623Y-31265D01*
X58623Y-28933D01*
X58623Y-28447D01*
X58137Y-28447D01*
X58027Y-28557D01*
X58027Y-28688D01*
X58095Y-28851D01*
X58219Y-28976D01*
X58382Y-29043D01*
X58512Y-29044D01*
X58623Y-28933D01*
X58623Y-31265D01*
X58254Y-31265D01*
X58162Y-31303D01*
X58092Y-31373D01*
X58054Y-31464D01*
X58054Y-31563D01*
X58054Y-31719D01*
X58054Y-31720D01*
X58054Y-31775D01*
X57345Y-31775D01*
X57011Y-31440D01*
X56904Y-31369D01*
X56778Y-31343D01*
X56773Y-31344D01*
X51275Y-31344D01*
X50452Y-30520D01*
X50518Y-30363D01*
X50518Y-30272D01*
X50518Y-29828D01*
X50518Y-29737D01*
X50450Y-29574D01*
X50326Y-29449D01*
X50163Y-29382D01*
X50123Y-29381D01*
X50012Y-29492D01*
X50012Y-29938D01*
X50408Y-29938D01*
X50518Y-29828D01*
X50518Y-30272D01*
X50408Y-30162D01*
X50062Y-30162D01*
X50049Y-30153D01*
X49979Y-30138D01*
X49979Y-29563D01*
X49954Y-29437D01*
X49883Y-29330D01*
X49110Y-28557D01*
X49003Y-28486D01*
X48877Y-28460D01*
X48872Y-28461D01*
X48658Y-28461D01*
X48638Y-28441D01*
X48547Y-28403D01*
X48448Y-28403D01*
X48054Y-28403D01*
X47962Y-28441D01*
X47892Y-28511D01*
X47854Y-28602D01*
X47854Y-28701D01*
X47854Y-28977D01*
X47892Y-29069D01*
X47962Y-29139D01*
X48053Y-29177D01*
X48152Y-29177D01*
X48546Y-29177D01*
X48638Y-29139D01*
X48658Y-29119D01*
X48740Y-29119D01*
X49197Y-29576D01*
X49176Y-29576D01*
X49084Y-29614D01*
X49014Y-29684D01*
X48976Y-29775D01*
X48976Y-29874D01*
X48976Y-30324D01*
X49012Y-30411D01*
X48822Y-30222D01*
X48722Y-30155D01*
X48604Y-30131D01*
X47701Y-30131D01*
X47726Y-30106D01*
X47764Y-30015D01*
X47764Y-29916D01*
X47764Y-29666D01*
X47726Y-29574D01*
X47656Y-29504D01*
X47650Y-29501D01*
X47708Y-29444D01*
X47746Y-29353D01*
X47746Y-29254D01*
X47746Y-28978D01*
X47708Y-28886D01*
X47638Y-28816D01*
X47575Y-28789D01*
X47638Y-28764D01*
X47708Y-28694D01*
X47746Y-28603D01*
X47746Y-28504D01*
X47746Y-28228D01*
X47708Y-28136D01*
X47638Y-28066D01*
X47547Y-28028D01*
X47448Y-28028D01*
X47054Y-28028D01*
X47016Y-28043D01*
X46974Y-28015D01*
X46856Y-27991D01*
X46255Y-27991D01*
X46255Y-27989D01*
X46101Y-27835D01*
X46052Y-27815D01*
X58067Y-27815D01*
X58027Y-27912D01*
X58027Y-28043D01*
X58137Y-28153D01*
X58573Y-28153D01*
X58623Y-28153D01*
X58917Y-28153D01*
X58917Y-28447D01*
X58917Y-28497D01*
X58917Y-28933D01*
X59028Y-29044D01*
X59158Y-29043D01*
X59321Y-28976D01*
X59347Y-28948D01*
X59374Y-28975D01*
X59448Y-28900D01*
X59460Y-28976D01*
X59742Y-29043D01*
X60029Y-28997D01*
X60080Y-28976D01*
X60101Y-28839D01*
X59805Y-28543D01*
X59770Y-28508D01*
X59562Y-28300D01*
X59770Y-28092D01*
X59978Y-28300D01*
X60013Y-28335D01*
X60309Y-28631D01*
X60446Y-28610D01*
X60513Y-28328D01*
X60467Y-28041D01*
X60446Y-27990D01*
X60370Y-27978D01*
X60445Y-27904D01*
X60356Y-27815D01*
X62305Y-27815D01*
X62305Y-42385D01*
M02*
