M48
INCH,TZ
T1C0.024
T2C0.025
T3C0.032
T4C0.040
T5C0.118
%
G90
G05
T1
X69094Y-35709
X71437Y-30453
X77303Y-38229
T2
X71403Y-35521
X72506Y-33492
X75298Y-35604
T3
X72972Y-37551
X72972Y-38551
T4
X65932Y-28260
X65932Y-41840
X66932Y-28260
X66932Y-41840
X73122Y-41060
X74122Y-41060
X75122Y-41060
X79912Y-28260
X80892Y-41850
X80912Y-28260
X81892Y-41850
T5
X66812Y-34920
X81312Y-34920
T0
M30
