M48
INCH,TZ
T1C0.024
T2C0.025
T3C0.040
T4C0.118
%
G90
G05
T1
X45490Y-30440
X52240Y-39380
X55590Y-32470
T2
X47910Y-36352
X48744Y-40897
X49848Y-31533
X50331Y-29957
X50753Y-35500
X57215Y-34404
X57567Y-36226
X60439Y-32127
T3
X44790Y-28300
X44790Y-41880
X45790Y-28300
X45790Y-41880
X51980Y-41100
X52980Y-41100
X53980Y-41100
X58770Y-28300
X59750Y-41890
X59770Y-28300
X60750Y-41890
T4
X45670Y-34960
X60170Y-34960
T0
M30
